G04*
G04 #@! TF.GenerationSoftware,Altium Limited,Altium Designer,24.6.1 (21)*
G04*
G04 Layer_Physical_Order=4*
G04 Layer_Color=16711680*
%FSLAX44Y44*%
%MOMM*%
G71*
G04*
G04 #@! TF.SameCoordinates,64C5F76F-1C6F-49FF-9375-2133E5E19FDB*
G04*
G04*
G04 #@! TF.FilePolarity,Positive*
G04*
G01*
G75*
%ADD11C,0.2540*%
%ADD74C,1.5700*%
%ADD75R,1.5700X1.5700*%
%ADD76C,3.0000*%
%ADD90C,1.5500*%
%ADD91R,1.5500X1.5500*%
%ADD95C,0.6350*%
%ADD100C,5.0000*%
%ADD101C,1.7000*%
%ADD102R,1.5000X4.0000*%
%ADD103R,1.5000X3.5000*%
%ADD104R,3.5000X1.5000*%
%ADD105C,0.6500*%
%ADD106O,1.8000X0.9000*%
%ADD107O,2.1000X1.0500*%
%ADD108R,1.5240X1.5240*%
%ADD109C,1.5240*%
%ADD110C,1.2192*%
%ADD111R,1.8000X1.8000*%
%ADD112C,1.8000*%
%ADD113C,0.6000*%
%ADD114C,0.5000*%
G36*
X125000Y240893D02*
X123584Y238774D01*
X122188Y235403D01*
X121476Y231824D01*
Y228176D01*
X122188Y224597D01*
X123584Y221226D01*
X125000Y219107D01*
Y50000D01*
X143276D01*
Y49476D01*
X164324D01*
Y50000D01*
X188559D01*
X190515Y49476D01*
X193286D01*
X195241Y50000D01*
X226659D01*
X228615Y49476D01*
X231385D01*
X233341Y50000D01*
X303276D01*
Y49476D01*
X324324D01*
Y50000D01*
X348559D01*
X350514Y49476D01*
X353286D01*
X355241Y50000D01*
X386659D01*
X388615Y49476D01*
X391386D01*
X393341Y50000D01*
X443276D01*
Y49476D01*
X464324D01*
Y50000D01*
X488559D01*
X490514Y49476D01*
X493285D01*
X495241Y50000D01*
X526659D01*
X528615Y49476D01*
X531385D01*
X533341Y50000D01*
X583276D01*
Y49476D01*
X604324D01*
Y50000D01*
X628559D01*
X630514Y49476D01*
X633285D01*
X635241Y50000D01*
X666659D01*
X668615Y49476D01*
X671385D01*
X673341Y50000D01*
X700000D01*
Y116943D01*
X700782Y117275D01*
X701270Y117332D01*
X702437Y116165D01*
X704100Y115476D01*
X705900D01*
X707563Y116165D01*
X708835Y117437D01*
X709524Y119100D01*
Y120900D01*
X708835Y122563D01*
X707563Y123835D01*
X705900Y124524D01*
X704100D01*
X702437Y123835D01*
X701270Y122668D01*
X700782Y122725D01*
X700000Y123057D01*
Y277500D01*
X780000D01*
Y144524D01*
X779100D01*
X777437Y143835D01*
X776165Y142563D01*
X775476Y140900D01*
Y139100D01*
X776165Y137437D01*
X777437Y136165D01*
X779100Y135476D01*
X780000D01*
Y63341D01*
X779476Y61385D01*
Y58615D01*
X780000Y56659D01*
Y50000D01*
X786659D01*
X788615Y49476D01*
X791385D01*
X793341Y50000D01*
X841376D01*
Y49476D01*
X862424D01*
Y50000D01*
X886659D01*
X888615Y49476D01*
X891385D01*
X893341Y50000D01*
X941376D01*
Y49476D01*
X962424D01*
Y50000D01*
X986659D01*
X988615Y49476D01*
X991385D01*
X993341Y50000D01*
X1065000D01*
X1065000Y9944D01*
Y7686D01*
X30000Y7686D01*
X28537D01*
X25637Y8067D01*
X22812Y8824D01*
X20109Y9944D01*
X17576Y11407D01*
X15256Y13187D01*
X13187Y15256D01*
X11407Y17576D01*
X9944Y20110D01*
X8824Y22812D01*
X8067Y25637D01*
X7686Y28537D01*
X7686Y30000D01*
Y144870D01*
X8806Y145468D01*
X8973Y145357D01*
X11980Y144111D01*
X15172Y143476D01*
X18427D01*
X21620Y144111D01*
X24627Y145357D01*
X27333Y147165D01*
X29635Y149467D01*
X31443Y152173D01*
X32689Y155180D01*
X33324Y158372D01*
Y161628D01*
X32689Y164820D01*
X31443Y167827D01*
X29635Y170533D01*
X27333Y172835D01*
X24627Y174643D01*
X21620Y175889D01*
X18427Y176524D01*
X15172D01*
X11980Y175889D01*
X8973Y174643D01*
X8806Y174532D01*
X7686Y175130D01*
Y282135D01*
X8956Y282719D01*
X11630Y281611D01*
X14822Y280976D01*
X18077D01*
X21270Y281611D01*
X24277Y282857D01*
X26983Y284665D01*
X29285Y286967D01*
X31093Y289673D01*
X32339Y292680D01*
X32974Y295872D01*
Y299128D01*
X32339Y302320D01*
X31093Y305327D01*
X29285Y308033D01*
X26983Y310335D01*
X24277Y312143D01*
X21270Y313389D01*
X18077Y314024D01*
X14822D01*
X11630Y313389D01*
X8956Y312281D01*
X7686Y312865D01*
Y350000D01*
X125000D01*
Y240893D01*
D02*
G37*
%LPC*%
G36*
X92825Y337406D02*
Y330675D01*
X99556D01*
X99332Y331510D01*
X97964Y333880D01*
X96030Y335814D01*
X93660Y337182D01*
X92825Y337406D01*
D02*
G37*
G36*
X86475D02*
X85640Y337182D01*
X83270Y335814D01*
X81336Y333880D01*
X79968Y331510D01*
X79744Y330675D01*
X86475D01*
Y337406D01*
D02*
G37*
G36*
X60884Y336874D02*
X58416D01*
X56032Y336235D01*
X53894Y335001D01*
X52149Y333256D01*
X50915Y331118D01*
X50276Y328734D01*
Y326266D01*
X50915Y323882D01*
X52149Y321744D01*
X53894Y319999D01*
X56032Y318765D01*
X58416Y318126D01*
X60884D01*
X63268Y318765D01*
X65406Y319999D01*
X67151Y321744D01*
X68385Y323882D01*
X69024Y326266D01*
Y328734D01*
X68385Y331118D01*
X67151Y333256D01*
X65406Y335001D01*
X63268Y336235D01*
X60884Y336874D01*
D02*
G37*
G36*
X99556Y324325D02*
X92825D01*
Y317594D01*
X93660Y317818D01*
X96030Y319186D01*
X97964Y321120D01*
X99332Y323490D01*
X99556Y324325D01*
D02*
G37*
G36*
X86475D02*
X79744D01*
X79968Y323490D01*
X81336Y321120D01*
X83270Y319186D01*
X85640Y317818D01*
X86475Y317594D01*
Y324325D01*
D02*
G37*
G36*
X90884Y306874D02*
X88416D01*
X86032Y306235D01*
X83894Y305001D01*
X82149Y303256D01*
X80915Y301118D01*
X80276Y298734D01*
Y296266D01*
X80915Y293882D01*
X82149Y291744D01*
X83894Y289999D01*
X86032Y288765D01*
X88416Y288126D01*
X90884D01*
X93268Y288765D01*
X95406Y289999D01*
X97151Y291744D01*
X98385Y293882D01*
X99024Y296266D01*
Y298734D01*
X98385Y301118D01*
X97151Y303256D01*
X95406Y305001D01*
X93268Y306235D01*
X90884Y306874D01*
D02*
G37*
G36*
X60884D02*
X58416D01*
X56032Y306235D01*
X53894Y305001D01*
X52149Y303256D01*
X50915Y301118D01*
X50276Y298734D01*
Y296266D01*
X50915Y293882D01*
X52149Y291744D01*
X53894Y289999D01*
X56032Y288765D01*
X58416Y288126D01*
X60884D01*
X63268Y288765D01*
X65406Y289999D01*
X67151Y291744D01*
X68385Y293882D01*
X69024Y296266D01*
Y298734D01*
X68385Y301118D01*
X67151Y303256D01*
X65406Y305001D01*
X63268Y306235D01*
X60884Y306874D01*
D02*
G37*
G36*
X92825Y277406D02*
Y270675D01*
X99556D01*
X99332Y271510D01*
X97964Y273880D01*
X96030Y275814D01*
X93660Y277182D01*
X92825Y277406D01*
D02*
G37*
G36*
X86475D02*
X85640Y277182D01*
X83270Y275814D01*
X81336Y273880D01*
X79968Y271510D01*
X79744Y270675D01*
X86475D01*
Y277406D01*
D02*
G37*
G36*
X69024Y276874D02*
X50276D01*
Y258126D01*
X69024D01*
Y276874D01*
D02*
G37*
G36*
X99556Y264325D02*
X92825D01*
Y257594D01*
X93660Y257818D01*
X96030Y259186D01*
X97964Y261120D01*
X99332Y263490D01*
X99556Y264325D01*
D02*
G37*
G36*
X86475D02*
X79744D01*
X79968Y263490D01*
X81336Y261120D01*
X83270Y259186D01*
X85640Y257818D01*
X86475Y257594D01*
Y264325D01*
D02*
G37*
G36*
X93175Y199906D02*
Y193175D01*
X99906D01*
X99682Y194010D01*
X98314Y196380D01*
X96380Y198314D01*
X94010Y199682D01*
X93175Y199906D01*
D02*
G37*
G36*
X86825Y199906D02*
X85990Y199682D01*
X83620Y198314D01*
X81686Y196380D01*
X80318Y194010D01*
X80094Y193175D01*
X86825D01*
Y199906D01*
D02*
G37*
G36*
X110900Y194524D02*
X109100D01*
X107437Y193835D01*
X106165Y192563D01*
X105476Y190900D01*
Y189100D01*
X106165Y187437D01*
X107437Y186165D01*
X109100Y185476D01*
X110900D01*
X112563Y186165D01*
X113835Y187437D01*
X114524Y189100D01*
Y190900D01*
X113835Y192563D01*
X112563Y193835D01*
X110900Y194524D01*
D02*
G37*
G36*
X61234Y199374D02*
X58766D01*
X56382Y198735D01*
X54244Y197501D01*
X52499Y195756D01*
X51265Y193618D01*
X50626Y191234D01*
Y188766D01*
X51265Y186382D01*
X52499Y184244D01*
X54244Y182499D01*
X56382Y181265D01*
X58766Y180626D01*
X61234D01*
X63618Y181265D01*
X65756Y182499D01*
X67501Y184244D01*
X68735Y186382D01*
X69374Y188766D01*
Y191234D01*
X68735Y193618D01*
X67501Y195756D01*
X65756Y197501D01*
X63618Y198735D01*
X61234Y199374D01*
D02*
G37*
G36*
X86825Y186825D02*
X80094D01*
X80318Y185990D01*
X81686Y183620D01*
X83620Y181686D01*
X85990Y180318D01*
X86825Y180094D01*
Y186825D01*
D02*
G37*
G36*
X99906D02*
X93175D01*
Y180094D01*
X94010Y180318D01*
X96380Y181686D01*
X98314Y183620D01*
X99682Y185990D01*
X99906Y186825D01*
D02*
G37*
G36*
X91234Y169374D02*
X88766D01*
X86382Y168735D01*
X84244Y167501D01*
X82499Y165756D01*
X81265Y163618D01*
X80626Y161234D01*
Y158766D01*
X81265Y156382D01*
X82499Y154244D01*
X84244Y152499D01*
X86382Y151265D01*
X88766Y150626D01*
X91234D01*
X93618Y151265D01*
X95756Y152499D01*
X97501Y154244D01*
X98735Y156382D01*
X99374Y158766D01*
Y161234D01*
X98735Y163618D01*
X97501Y165756D01*
X95756Y167501D01*
X93618Y168735D01*
X91234Y169374D01*
D02*
G37*
G36*
X61234D02*
X58766D01*
X56382Y168735D01*
X54244Y167501D01*
X52499Y165756D01*
X51265Y163618D01*
X50626Y161234D01*
Y158766D01*
X51265Y156382D01*
X52499Y154244D01*
X54244Y152499D01*
X56382Y151265D01*
X58766Y150626D01*
X61234D01*
X63618Y151265D01*
X65756Y152499D01*
X67501Y154244D01*
X68735Y156382D01*
X69374Y158766D01*
Y161234D01*
X68735Y163618D01*
X67501Y165756D01*
X65756Y167501D01*
X63618Y168735D01*
X61234Y169374D01*
D02*
G37*
G36*
X93175Y139906D02*
Y133175D01*
X99906D01*
X99682Y134010D01*
X98314Y136380D01*
X96380Y138314D01*
X94010Y139682D01*
X93175Y139906D01*
D02*
G37*
G36*
X86825D02*
X85990Y139682D01*
X83620Y138314D01*
X81686Y136380D01*
X80318Y134010D01*
X80094Y133175D01*
X86825D01*
Y139906D01*
D02*
G37*
G36*
X69374Y139374D02*
X50626D01*
Y120626D01*
X69374D01*
Y139374D01*
D02*
G37*
G36*
X99906Y126825D02*
X93175D01*
Y120094D01*
X94010Y120318D01*
X96380Y121686D01*
X98314Y123620D01*
X99682Y125990D01*
X99906Y126825D01*
D02*
G37*
G36*
X86825D02*
X80094D01*
X80318Y125990D01*
X81686Y123620D01*
X83620Y121686D01*
X85990Y120318D01*
X86825Y120094D01*
Y126825D01*
D02*
G37*
G36*
X762424Y70524D02*
X741376D01*
Y50000D01*
Y49476D01*
X762424D01*
Y50000D01*
Y70524D01*
D02*
G37*
G36*
X81824Y68524D02*
X78176D01*
X74597Y67812D01*
X71226Y66416D01*
X68192Y64388D01*
X65612Y61808D01*
X63584Y58774D01*
X62188Y55403D01*
X61476Y51824D01*
Y48176D01*
X62188Y44597D01*
X63584Y41226D01*
X65612Y38192D01*
X68192Y35612D01*
X71226Y33584D01*
X74597Y32188D01*
X78176Y31476D01*
X81824D01*
X85403Y32188D01*
X88774Y33584D01*
X91808Y35612D01*
X94389Y38192D01*
X96416Y41226D01*
X97812Y44597D01*
X98524Y48176D01*
Y51824D01*
X97812Y55403D01*
X96416Y58774D01*
X94389Y61808D01*
X91808Y64388D01*
X88774Y66416D01*
X85403Y67812D01*
X81824Y68524D01*
D02*
G37*
%LPD*%
D11*
X226843Y268157D02*
X260000Y235000D01*
X232500Y305000D02*
X300000Y237500D01*
X985000Y320000D02*
X1160000D01*
X981686Y312000D02*
X1160000D01*
X1092500Y262500D02*
X1170000D01*
X299064Y460817D02*
X303247Y465000D01*
X305500Y473000D02*
X832000D01*
X303247Y465000D02*
X828686D01*
X295000Y462500D02*
X305500Y473000D01*
X832000D02*
X985000Y320000D01*
X299064Y399064D02*
Y460817D01*
X828686Y465000D02*
X981686Y312000D01*
X295000Y406314D02*
Y462500D01*
X232500Y332500D02*
X299064Y399064D01*
X226843Y338157D02*
X295000Y406314D01*
X232500Y305000D02*
Y332500D01*
X226843Y268157D02*
Y338157D01*
X1595000Y348436D02*
X1600000Y343436D01*
X1604064Y369064D02*
X1610000Y375000D01*
X1600000Y309320D02*
Y343436D01*
X1584240Y293560D02*
X1600000Y309320D01*
X1584240Y265620D02*
X1604064Y285444D01*
Y369064D01*
X1595000Y348436D02*
Y375000D01*
X875000Y160000D02*
X957548Y242548D01*
X845000Y160000D02*
X875000D01*
X1240000Y242500D02*
Y272537D01*
X1090000Y252500D02*
X1107500Y235000D01*
X1232500D02*
X1240000Y242500D01*
X1107500Y235000D02*
X1232500D01*
X1236838Y278972D02*
X1237500Y279634D01*
X1233506Y278972D02*
X1236838D01*
X1233294Y278759D02*
X1233506Y278972D01*
X1233294Y245794D02*
Y278759D01*
X1170000Y262500D02*
X1192500Y240000D01*
X1227500D02*
X1233294Y245794D01*
X1192500Y240000D02*
X1227500D01*
X386998Y436998D02*
X400000Y450000D01*
X386998Y220000D02*
Y436998D01*
X394522Y419122D02*
X425400Y450000D01*
X394522Y220000D02*
Y419122D01*
X895000Y160000D02*
Y174253D01*
X904471Y175529D02*
X918029D01*
X957548Y242548D02*
X970000D01*
X895000Y174253D02*
X955771Y235024D01*
X918029Y175529D02*
X970000Y227500D01*
X955771Y235024D02*
X970000D01*
X780000Y140000D02*
X907500D01*
X990000Y222500D02*
X1232500D01*
X907500Y140000D02*
X990000Y222500D01*
X1232500D02*
X1250000Y240000D01*
Y272500D01*
X1205000Y259206D02*
Y260000D01*
X1227500Y259206D02*
Y312500D01*
X1195000Y270000D02*
X1205000Y260000D01*
X1195000Y270000D02*
Y285000D01*
X1227500Y312500D02*
X1230000Y315000D01*
D74*
X89650Y327500D02*
D03*
Y297500D02*
D03*
Y267500D02*
D03*
X59650Y327500D02*
D03*
Y297500D02*
D03*
X60000Y160000D02*
D03*
Y190000D02*
D03*
X90000Y130000D02*
D03*
Y160000D02*
D03*
Y190000D02*
D03*
D75*
X59650Y267500D02*
D03*
X60000Y130000D02*
D03*
D76*
X16450Y297500D02*
D03*
X16800Y160000D02*
D03*
D90*
X1449200Y185400D02*
D03*
X1474600D02*
D03*
X1500000D02*
D03*
Y134600D02*
D03*
X1474600D02*
D03*
X1449200D02*
D03*
X1398400Y185400D02*
D03*
D91*
Y134600D02*
D03*
D95*
X315000Y355000D02*
X347500Y387500D01*
Y390000D01*
X315000Y215000D02*
Y355000D01*
X330000Y200000D02*
X402500D01*
X315000Y215000D02*
X330000Y200000D01*
X402500D02*
X450000Y247500D01*
Y345000D01*
X472500Y367500D01*
X890000Y349112D02*
Y363780D01*
X886280Y367500D02*
X890000Y363780D01*
X472500Y367500D02*
X886280D01*
X890000Y349112D02*
X939311Y299801D01*
X964535D01*
X965529Y300795D01*
X1064867D01*
X1075662Y290000D01*
X1175000D01*
X1190000Y305000D02*
Y395000D01*
X1175000Y290000D02*
X1190000Y305000D01*
X1189179Y401081D02*
X1192899Y404801D01*
X1189179Y395821D02*
X1190000Y395000D01*
X1192899Y404801D02*
X1205120D01*
X1189179Y395821D02*
Y401081D01*
X1205120Y404801D02*
X1207518Y407199D01*
X1535301D01*
X1557500Y385000D01*
D100*
X1518000Y320000D02*
D03*
X1425000D02*
D03*
D101*
X1496500Y390000D02*
D03*
X1446500D02*
D03*
Y245000D02*
D03*
X1496500D02*
D03*
X1471500D02*
D03*
D102*
X105000Y415000D02*
D03*
D103*
X45000D02*
D03*
D104*
X75000Y368000D02*
D03*
D105*
X1582860Y246940D02*
D03*
Y304740D02*
D03*
D106*
X1619660Y319040D02*
D03*
Y232640D02*
D03*
D107*
X1577860Y319040D02*
D03*
Y232640D02*
D03*
D108*
X349200Y450000D02*
D03*
D109*
X374600D02*
D03*
X400000D02*
D03*
X425400D02*
D03*
D110*
X970000Y380000D02*
D03*
X995400D02*
D03*
X970000Y290000D02*
D03*
X995400D02*
D03*
D111*
X1483800Y60000D02*
D03*
X1383800D02*
D03*
X1083800D02*
D03*
X1183800D02*
D03*
X1283800D02*
D03*
X593800D02*
D03*
X153800D02*
D03*
X313800D02*
D03*
X453800D02*
D03*
X951900D02*
D03*
X851900D02*
D03*
X751900D02*
D03*
D112*
X1521900D02*
D03*
X1560000D02*
D03*
X1421900D02*
D03*
X1121900D02*
D03*
X1221900D02*
D03*
X1321900D02*
D03*
X631900D02*
D03*
X670000D02*
D03*
X191900D02*
D03*
X230000D02*
D03*
X351900D02*
D03*
X390000D02*
D03*
X491900D02*
D03*
X530000D02*
D03*
X990000D02*
D03*
X890000D02*
D03*
X790000D02*
D03*
D113*
X110000Y190000D02*
D03*
X347500Y390000D02*
D03*
X442301Y262500D02*
D03*
X425806Y234194D02*
D03*
X1197699Y320000D02*
D03*
X1182500Y412500D02*
D03*
X1160000Y330000D02*
D03*
Y320000D02*
D03*
Y345000D02*
D03*
X942500Y397500D02*
D03*
X1072500Y395283D02*
D03*
X1557500Y385000D02*
D03*
X1593871Y341371D02*
D03*
X1595000Y375000D02*
D03*
X1610000D02*
D03*
X1322500Y332500D02*
D03*
X1542500Y357500D02*
D03*
X390000Y107500D02*
D03*
X440000Y137500D02*
D03*
X467500Y127500D02*
D03*
X490000Y170000D02*
D03*
X310000Y140000D02*
D03*
X332500Y152500D02*
D03*
X617500Y157500D02*
D03*
X600000Y142500D02*
D03*
X155000Y140000D02*
D03*
X705000Y120000D02*
D03*
X780000Y140000D02*
D03*
X336279Y215391D02*
D03*
X300000Y237500D02*
D03*
X377500Y215000D02*
D03*
X527500Y217500D02*
D03*
X386998Y220000D02*
D03*
X394522D02*
D03*
X275000Y237500D02*
D03*
X260000Y235000D02*
D03*
X335000Y252500D02*
D03*
X385000Y175000D02*
D03*
X397500D02*
D03*
X517500Y255000D02*
D03*
X420000Y330000D02*
D03*
X302500Y322500D02*
D03*
X260000D02*
D03*
X1160000Y312000D02*
D03*
X1240000Y272537D02*
D03*
X1090000Y252500D02*
D03*
X1237500Y279634D02*
D03*
X1092500Y262500D02*
D03*
X904471Y175529D02*
D03*
X1250000Y272500D02*
D03*
X1227500Y259206D02*
D03*
X1205000D02*
D03*
X1062500Y260000D02*
D03*
X1195000Y285000D02*
D03*
X1230000Y315000D02*
D03*
X1287500Y301706D02*
D03*
X1070000Y385000D02*
D03*
X1170000Y302500D02*
D03*
X942500Y307500D02*
D03*
X1052500Y287500D02*
D03*
X1050000Y270000D02*
D03*
X1085000Y275000D02*
D03*
X1220000Y287500D02*
D03*
X1212500Y302500D02*
D03*
X1457500Y220000D02*
D03*
X1140000Y335000D02*
D03*
X1342500Y315000D02*
D03*
X1132500Y427500D02*
D03*
X1584240Y293560D02*
D03*
Y265620D02*
D03*
X842500Y170000D02*
D03*
X845000Y160000D02*
D03*
X910000Y120000D02*
D03*
X897500D02*
D03*
X895000Y160000D02*
D03*
X970000Y242548D02*
D03*
Y235024D02*
D03*
Y227500D02*
D03*
X1072500Y195000D02*
D03*
X1082500D02*
D03*
X1090000D02*
D03*
X1122500Y192500D02*
D03*
X1160000Y417500D02*
D03*
X1300000Y330000D02*
D03*
X1327500Y390000D02*
D03*
D114*
X775000Y360301D02*
D03*
X765000D02*
D03*
X619760Y289560D02*
D03*
X576580D02*
D03*
X635000D02*
D03*
X586740D02*
D03*
X594360D02*
D03*
X609600D02*
D03*
X642620D02*
D03*
X601980D02*
D03*
X627380D02*
D03*
X1102500Y350000D02*
D03*
X1160000Y430000D02*
D03*
X1210000Y420000D02*
D03*
X710000Y220000D02*
D03*
X720000D02*
D03*
X770000Y200000D02*
D03*
X750000Y210000D02*
D03*
X760000D02*
D03*
X770000D02*
D03*
X750000Y200000D02*
D03*
X760000D02*
D03*
X770000Y220000D02*
D03*
X740000D02*
D03*
X750000D02*
D03*
X730000D02*
D03*
X760000D02*
D03*
X775000Y355000D02*
D03*
Y345000D02*
D03*
Y335000D02*
D03*
X795000Y345000D02*
D03*
Y335000D02*
D03*
X775000Y325000D02*
D03*
Y315000D02*
D03*
Y305000D02*
D03*
X730000Y210000D02*
D03*
X740000D02*
D03*
X710000Y200000D02*
D03*
X720000D02*
D03*
X730000D02*
D03*
X740000D02*
D03*
X720000Y210000D02*
D03*
X710000D02*
D03*
X558800Y289560D02*
D03*
X568960Y271780D02*
D03*
Y276860D02*
D03*
Y281940D02*
D03*
Y287020D02*
D03*
X574040Y302260D02*
D03*
X650000Y360000D02*
D03*
X620000D02*
D03*
X630000D02*
D03*
X640000D02*
D03*
X650000Y350000D02*
D03*
X610000D02*
D03*
X520000D02*
D03*
X530000D02*
D03*
X540000D02*
D03*
X550000D02*
D03*
X560000D02*
D03*
X570000D02*
D03*
X580000D02*
D03*
X590000D02*
D03*
X600000D02*
D03*
X620000D02*
D03*
X630000D02*
D03*
X640000D02*
D03*
X520000Y360000D02*
D03*
X530000D02*
D03*
X540000D02*
D03*
X550000D02*
D03*
X560000D02*
D03*
X570000D02*
D03*
X580000D02*
D03*
X610000D02*
D03*
X590000D02*
D03*
X600000D02*
D03*
X765000Y355000D02*
D03*
Y345000D02*
D03*
Y335000D02*
D03*
Y325000D02*
D03*
Y315000D02*
D03*
Y305000D02*
D03*
X902500Y195000D02*
D03*
X802500Y120000D02*
D03*
X895000Y195000D02*
D03*
X887500D02*
D03*
X1170000Y145000D02*
D03*
Y140000D02*
D03*
Y135000D02*
D03*
X1102500Y360000D02*
D03*
Y355000D02*
D03*
Y365000D02*
D03*
Y415000D02*
D03*
Y420000D02*
D03*
Y425000D02*
D03*
Y430000D02*
D03*
X865000Y345000D02*
D03*
X855000D02*
D03*
X845000D02*
D03*
X835000D02*
D03*
X825000D02*
D03*
X815000D02*
D03*
X805000D02*
D03*
X865000Y335000D02*
D03*
X855000D02*
D03*
X845000D02*
D03*
X835000D02*
D03*
X825000D02*
D03*
X815000D02*
D03*
X805000D02*
D03*
X1300000Y430000D02*
D03*
X1275000Y420000D02*
D03*
X1242500D02*
D03*
X1182500D02*
D03*
X1250000Y360500D02*
D03*
X1230250D02*
D03*
X1210500D02*
D03*
Y380250D02*
D03*
X1230250D02*
D03*
X1250000D02*
D03*
Y400000D02*
D03*
X1230250D02*
D03*
X1210500D02*
D03*
X1050000Y47500D02*
D03*
Y40000D02*
D03*
Y32500D02*
D03*
M02*
