G04*
G04 #@! TF.GenerationSoftware,Altium Limited,Altium Designer,24.6.1 (21)*
G04*
G04 Layer_Color=8421504*
%FSLAX44Y44*%
%MOMM*%
G71*
G04*
G04 #@! TF.SameCoordinates,64C5F76F-1C6F-49FF-9375-2133E5E19FDB*
G04*
G04*
G04 #@! TF.FilePolarity,Positive*
G04*
G01*
G75*
%ADD19R,1.5240X1.6764*%
%ADD20R,2.0000X4.1000*%
%ADD21R,1.1400X0.6000*%
%ADD22R,1.1400X0.3000*%
%ADD23R,0.5321X1.2544*%
G04:AMPARAMS|DCode=24|XSize=1.2544mm|YSize=0.5321mm|CornerRadius=0.2661mm|HoleSize=0mm|Usage=FLASHONLY|Rotation=270.000|XOffset=0mm|YOffset=0mm|HoleType=Round|Shape=RoundedRectangle|*
%AMROUNDEDRECTD24*
21,1,1.2544,0.0000,0,0,270.0*
21,1,0.7223,0.5321,0,0,270.0*
1,1,0.5321,0.0000,-0.3611*
1,1,0.5321,0.0000,0.3611*
1,1,0.5321,0.0000,0.3611*
1,1,0.5321,0.0000,-0.3611*
%
%ADD24ROUNDEDRECTD24*%
%ADD25R,1.5052X0.5721*%
G04:AMPARAMS|DCode=26|XSize=1.5052mm|YSize=0.5721mm|CornerRadius=0.2861mm|HoleSize=0mm|Usage=FLASHONLY|Rotation=180.000|XOffset=0mm|YOffset=0mm|HoleType=Round|Shape=RoundedRectangle|*
%AMROUNDEDRECTD26*
21,1,1.5052,0.0000,0,0,180.0*
21,1,0.9331,0.5721,0,0,180.0*
1,1,0.5721,-0.4666,0.0000*
1,1,0.5721,0.4666,0.0000*
1,1,0.5721,0.4666,0.0000*
1,1,0.5721,-0.4666,0.0000*
%
%ADD26ROUNDEDRECTD26*%
%ADD27R,0.5721X1.5052*%
G04:AMPARAMS|DCode=28|XSize=1.5052mm|YSize=0.5721mm|CornerRadius=0.2861mm|HoleSize=0mm|Usage=FLASHONLY|Rotation=90.000|XOffset=0mm|YOffset=0mm|HoleType=Round|Shape=RoundedRectangle|*
%AMROUNDEDRECTD28*
21,1,1.5052,0.0000,0,0,90.0*
21,1,0.9331,0.5721,0,0,90.0*
1,1,0.5721,0.0000,0.4666*
1,1,0.5721,0.0000,-0.4666*
1,1,0.5721,0.0000,-0.4666*
1,1,0.5721,0.0000,0.4666*
%
%ADD28ROUNDEDRECTD28*%
%ADD29R,0.6000X0.8000*%
%ADD30R,3.6000X1.5000*%
%ADD31R,2.7000X1.3000*%
%ADD32R,2.5000X1.2500*%
%ADD33R,2.8000X1.3500*%
%ADD34R,1.0065X0.9582*%
%ADD35R,2.0500X1.1000*%
%ADD36R,0.9121X0.9581*%
%ADD37R,0.8121X0.7581*%
%ADD38R,0.7581X0.8121*%
%ADD39R,0.8000X1.0000*%
G04:AMPARAMS|DCode=40|XSize=0.4mm|YSize=1.2mm|CornerRadius=0.05mm|HoleSize=0mm|Usage=FLASHONLY|Rotation=180.000|XOffset=0mm|YOffset=0mm|HoleType=Round|Shape=RoundedRectangle|*
%AMROUNDEDRECTD40*
21,1,0.4000,1.1000,0,0,180.0*
21,1,0.3000,1.2000,0,0,180.0*
1,1,0.1000,-0.1500,0.5500*
1,1,0.1000,0.1500,0.5500*
1,1,0.1000,0.1500,-0.5500*
1,1,0.1000,-0.1500,-0.5500*
%
%ADD40ROUNDEDRECTD40*%
%ADD41R,0.5821X2.1692*%
G04:AMPARAMS|DCode=42|XSize=2.1692mm|YSize=0.5821mm|CornerRadius=0.2911mm|HoleSize=0mm|Usage=FLASHONLY|Rotation=90.000|XOffset=0mm|YOffset=0mm|HoleType=Round|Shape=RoundedRectangle|*
%AMROUNDEDRECTD42*
21,1,2.1692,0.0000,0,0,90.0*
21,1,1.5870,0.5821,0,0,90.0*
1,1,0.5821,0.0000,0.7935*
1,1,0.5821,0.0000,-0.7935*
1,1,0.5821,0.0000,-0.7935*
1,1,0.5821,0.0000,0.7935*
%
%ADD42ROUNDEDRECTD42*%
%ADD43R,0.7000X0.7000*%
%ADD44R,1.4500X1.4500*%
%ADD45R,0.4000X0.8000*%
%ADD46R,0.8000X0.4000*%
%ADD47R,0.7000X1.0000*%
%ADD48R,1.0000X0.8000*%
%ADD49R,1.0500X2.6000*%
%ADD50R,0.9652X1.0668*%
%ADD51R,0.6500X3.0000*%
%ADD52R,0.9581X0.9121*%
%ADD53O,0.6000X1.9500*%
%ADD54R,1.2000X0.6000*%
%ADD55R,0.6725X0.7154*%
G04:AMPARAMS|DCode=56|XSize=1.45mm|YSize=0.3mm|CornerRadius=0.0495mm|HoleSize=0mm|Usage=FLASHONLY|Rotation=90.000|XOffset=0mm|YOffset=0mm|HoleType=Round|Shape=RoundedRectangle|*
%AMROUNDEDRECTD56*
21,1,1.4500,0.2010,0,0,90.0*
21,1,1.3510,0.3000,0,0,90.0*
1,1,0.0990,0.1005,0.6755*
1,1,0.0990,0.1005,-0.6755*
1,1,0.0990,-0.1005,-0.6755*
1,1,0.0990,-0.1005,0.6755*
%
%ADD56ROUNDEDRECTD56*%
G36*
X1217750Y392750D02*
X1203250D01*
Y401250D01*
X1209250Y407250D01*
X1217750D01*
Y392750D01*
D02*
G37*
D19*
X223796Y395000D02*
D03*
X186204D02*
D03*
X223796Y357500D02*
D03*
X186204D02*
D03*
X326644Y355600D02*
D03*
X364236D02*
D03*
X326644Y386080D02*
D03*
X364236D02*
D03*
D20*
X740000Y343500D02*
D03*
Y256500D02*
D03*
D21*
X1572160Y307840D02*
D03*
Y299840D02*
D03*
Y251840D02*
D03*
Y243840D02*
D03*
D22*
Y293340D02*
D03*
Y288340D02*
D03*
Y283340D02*
D03*
Y278340D02*
D03*
Y273340D02*
D03*
Y268340D02*
D03*
Y263340D02*
D03*
Y258340D02*
D03*
D23*
X559500Y275503D02*
D03*
D24*
X550000D02*
D03*
X540500D02*
D03*
Y254497D02*
D03*
X550000D02*
D03*
X559500D02*
D03*
D25*
X426005Y253000D02*
D03*
D26*
Y262500D02*
D03*
Y272000D02*
D03*
X403995D02*
D03*
Y253000D02*
D03*
D27*
X325500Y266495D02*
D03*
D28*
X335000D02*
D03*
X344500D02*
D03*
Y288505D02*
D03*
X325500D02*
D03*
D29*
X541500Y230000D02*
D03*
X528500D02*
D03*
X564000D02*
D03*
X551000D02*
D03*
D30*
X550000Y335250D02*
D03*
Y304750D02*
D03*
D31*
X398780Y328900D02*
D03*
Y356900D02*
D03*
X630000Y306000D02*
D03*
Y334000D02*
D03*
X1102500Y373500D02*
D03*
Y401500D02*
D03*
D32*
X595000Y337000D02*
D03*
Y303000D02*
D03*
D33*
X853440Y283720D02*
D03*
Y315720D02*
D03*
D34*
X554759Y215000D02*
D03*
X540241D02*
D03*
D35*
X815340Y283220D02*
D03*
Y316220D02*
D03*
D36*
X582500Y257730D02*
D03*
Y272270D02*
D03*
X1060000Y397270D02*
D03*
Y382730D02*
D03*
X1140000Y359770D02*
D03*
Y345230D02*
D03*
X1150000Y402730D02*
D03*
Y417270D02*
D03*
X1132500Y402730D02*
D03*
Y417270D02*
D03*
X1075000Y260230D02*
D03*
Y274770D02*
D03*
X600000Y129770D02*
D03*
Y115230D02*
D03*
X155000Y127270D02*
D03*
Y112730D02*
D03*
X492500Y159770D02*
D03*
Y145230D02*
D03*
X440000Y127270D02*
D03*
Y112730D02*
D03*
X312500Y124770D02*
D03*
Y110230D02*
D03*
X367500Y215230D02*
D03*
Y229770D02*
D03*
D37*
X517500Y276270D02*
D03*
Y263730D02*
D03*
X347500Y216230D02*
D03*
Y228770D02*
D03*
D38*
X403730Y230000D02*
D03*
X416270D02*
D03*
X328730Y312500D02*
D03*
X341270D02*
D03*
D39*
X1447500Y220000D02*
D03*
X1432500D02*
D03*
X1195000Y302500D02*
D03*
X1180000D02*
D03*
X1037500Y270000D02*
D03*
X1022500D02*
D03*
X1370000Y315000D02*
D03*
X1355000D02*
D03*
X1147500Y385000D02*
D03*
X1132500D02*
D03*
X1237500Y302500D02*
D03*
X1222500D02*
D03*
X1245000Y287500D02*
D03*
X1230000D02*
D03*
X1262500Y302500D02*
D03*
X1277500D02*
D03*
X492500Y127500D02*
D03*
X477500D02*
D03*
X632500Y115000D02*
D03*
X617500D02*
D03*
X175000Y112500D02*
D03*
X190000D02*
D03*
X207500D02*
D03*
X222500D02*
D03*
X507500Y110000D02*
D03*
X492500D02*
D03*
X985000Y120000D02*
D03*
X970000D02*
D03*
X820000D02*
D03*
X835000D02*
D03*
X785000D02*
D03*
X770000D02*
D03*
D40*
X1077250Y181500D02*
D03*
X1083750D02*
D03*
X1090250D02*
D03*
X1096750D02*
D03*
X1103250D02*
D03*
X1109750D02*
D03*
X1116250D02*
D03*
X1122750D02*
D03*
X1077250Y238500D02*
D03*
X1083750D02*
D03*
X1090250D02*
D03*
X1096750D02*
D03*
X1103250D02*
D03*
X1109750D02*
D03*
X1116250D02*
D03*
X1122750D02*
D03*
D41*
X260950Y256364D02*
D03*
D42*
X273650D02*
D03*
X286350D02*
D03*
X299050D02*
D03*
Y303636D02*
D03*
X286350D02*
D03*
X273650D02*
D03*
X260950D02*
D03*
D43*
X1289750Y429750D02*
D03*
Y330750D02*
D03*
X1170750D02*
D03*
Y429750D02*
D03*
D44*
X1250000Y380250D02*
D03*
Y360500D02*
D03*
X1230250D02*
D03*
X1210500D02*
D03*
Y380250D02*
D03*
X1230250Y400000D02*
D03*
X1250000D02*
D03*
X1230250Y380250D02*
D03*
D45*
X1182250Y429250D02*
D03*
X1190250D02*
D03*
X1198250D02*
D03*
X1206250D02*
D03*
X1214250D02*
D03*
X1222250D02*
D03*
X1230250D02*
D03*
X1238250D02*
D03*
X1246250D02*
D03*
X1254250D02*
D03*
X1262250D02*
D03*
X1270250D02*
D03*
X1278250D02*
D03*
Y331250D02*
D03*
X1270250D02*
D03*
X1262250D02*
D03*
X1254250D02*
D03*
X1246250D02*
D03*
X1238250D02*
D03*
X1230250D02*
D03*
X1222250D02*
D03*
X1214250D02*
D03*
X1206250D02*
D03*
X1198250D02*
D03*
X1190250D02*
D03*
X1182250D02*
D03*
D46*
X1289250Y420250D02*
D03*
Y412250D02*
D03*
Y404250D02*
D03*
Y396250D02*
D03*
Y388250D02*
D03*
Y380250D02*
D03*
Y372250D02*
D03*
Y364250D02*
D03*
Y356250D02*
D03*
Y348250D02*
D03*
Y340250D02*
D03*
X1171250D02*
D03*
Y348250D02*
D03*
Y356250D02*
D03*
Y364250D02*
D03*
Y372250D02*
D03*
Y380250D02*
D03*
Y388250D02*
D03*
Y396250D02*
D03*
Y404250D02*
D03*
Y412250D02*
D03*
Y420250D02*
D03*
D47*
X1331500Y340000D02*
D03*
Y400000D02*
D03*
X1368500Y340000D02*
D03*
Y400000D02*
D03*
D48*
X930000Y382500D02*
D03*
Y397500D02*
D03*
Y292500D02*
D03*
Y307500D02*
D03*
X377500Y122500D02*
D03*
Y107500D02*
D03*
X617500Y132500D02*
D03*
Y147500D02*
D03*
X352500Y107500D02*
D03*
Y122500D02*
D03*
X952500Y105000D02*
D03*
Y120000D02*
D03*
X852500Y105000D02*
D03*
Y120000D02*
D03*
X752500Y105000D02*
D03*
Y120000D02*
D03*
D49*
X213250Y220000D02*
D03*
X186750D02*
D03*
D50*
X1030000Y400000D02*
D03*
X1039652Y378824D02*
D03*
X1020500D02*
D03*
X1030000Y311176D02*
D03*
X1039652Y290000D02*
D03*
X1020500D02*
D03*
D51*
X197300Y275000D02*
D03*
X222700D02*
D03*
X210000Y305000D02*
D03*
D52*
X287270Y222500D02*
D03*
X272730D02*
D03*
X337730Y140000D02*
D03*
X352270D02*
D03*
X920230Y120000D02*
D03*
X934770D02*
D03*
X887270D02*
D03*
X872730D02*
D03*
X720230D02*
D03*
X734770D02*
D03*
D53*
X1171100Y123000D02*
D03*
X1183800D02*
D03*
X1196500D02*
D03*
X1209200D02*
D03*
X1221900D02*
D03*
X1234600D02*
D03*
X1247300D02*
D03*
X1260000D02*
D03*
X1272700D02*
D03*
X1171100Y217000D02*
D03*
X1183800D02*
D03*
X1196500D02*
D03*
X1209200D02*
D03*
X1221900D02*
D03*
X1234600D02*
D03*
X1247300D02*
D03*
X1260000D02*
D03*
X1272700D02*
D03*
D54*
X1579000Y367000D02*
D03*
Y357500D02*
D03*
Y348000D02*
D03*
X1556000D02*
D03*
Y357500D02*
D03*
Y367000D02*
D03*
X881500Y179500D02*
D03*
Y170000D02*
D03*
Y160500D02*
D03*
X858500D02*
D03*
Y170000D02*
D03*
Y179500D02*
D03*
D55*
X1595000Y364786D02*
D03*
Y355214D02*
D03*
X1610000Y364786D02*
D03*
Y355214D02*
D03*
D56*
X388260Y202760D02*
D03*
X393260D02*
D03*
X398260D02*
D03*
X403260D02*
D03*
X408260D02*
D03*
Y158760D02*
D03*
X403260D02*
D03*
X398260D02*
D03*
X393260D02*
D03*
X388260D02*
D03*
M02*
