G04*
G04 #@! TF.GenerationSoftware,Altium Limited,Altium Designer,24.6.1 (21)*
G04*
G04 Layer_Color=16711935*
%FSLAX44Y44*%
%MOMM*%
G71*
G04*
G04 #@! TF.SameCoordinates,64C5F76F-1C6F-49FF-9375-2133E5E19FDB*
G04*
G04*
G04 #@! TF.FilePolarity,Positive*
G04*
G01*
G75*
%ADD11C,0.2540*%
%ADD115C,0.1778*%
D11*
X1630000Y470000D02*
G03*
X1600000Y500000I-30000J0D01*
G01*
Y0D02*
G03*
X1630000Y30000I0J30000D01*
G01*
X0D02*
G03*
X30000Y0I30000J0D01*
G01*
Y500000D02*
G03*
X-0Y470000I0J-30000D01*
G01*
X30000Y500000D02*
X1600000D01*
X0Y30000D02*
Y470000D01*
X30000Y0D02*
X1600000D01*
X1630000Y30000D02*
Y470000D01*
D115*
X1094923Y194760D02*
X1103387D01*
X1105080Y196453D01*
Y199838D01*
X1103387Y201531D01*
X1094923D01*
X1105080Y209995D02*
X1094923D01*
X1100002Y204917D01*
Y211688D01*
X1096616Y215074D02*
X1094923Y216766D01*
Y220152D01*
X1096616Y221845D01*
X1103387D01*
X1105080Y220152D01*
Y216766D01*
X1103387Y215074D01*
X1096616D01*
X1105080Y232001D02*
Y225230D01*
X1098309Y232001D01*
X1096616D01*
X1094923Y230308D01*
Y226923D01*
X1096616Y225230D01*
M02*
