G04*
G04 #@! TF.GenerationSoftware,Altium Limited,Altium Designer,24.6.1 (21)*
G04*
G04 Layer_Physical_Order=3*
G04 Layer_Color=16440176*
%FSLAX44Y44*%
%MOMM*%
G71*
G04*
G04 #@! TF.SameCoordinates,64C5F76F-1C6F-49FF-9375-2133E5E19FDB*
G04*
G04*
G04 #@! TF.FilePolarity,Positive*
G04*
G01*
G75*
%ADD11C,0.2540*%
%ADD74C,1.5700*%
%ADD75R,1.5700X1.5700*%
%ADD76C,3.0000*%
%ADD90C,1.5500*%
%ADD91R,1.5500X1.5500*%
%ADD100C,5.0000*%
%ADD101C,1.7000*%
%ADD102R,1.5000X4.0000*%
%ADD103R,1.5000X3.5000*%
%ADD104R,3.5000X1.5000*%
%ADD105C,0.6500*%
%ADD106O,1.8000X0.9000*%
%ADD107O,2.1000X1.0500*%
%ADD108R,1.5240X1.5240*%
%ADD109C,1.5240*%
%ADD110C,1.2192*%
%ADD112C,1.8000*%
%ADD113C,0.6000*%
%ADD114C,0.5000*%
G36*
X832686Y492314D02*
X875000Y450000D01*
Y425000D01*
X1128639D01*
X1128665Y424937D01*
X1129937Y423665D01*
X1131600Y422976D01*
X1133400D01*
X1135063Y423665D01*
X1136335Y424937D01*
X1136361Y425000D01*
X1180737D01*
X1180990Y423730D01*
X1180221Y423411D01*
X1179089Y422279D01*
X1178476Y420800D01*
Y419200D01*
X1179089Y417721D01*
X1179376Y417433D01*
X1179937Y416335D01*
X1178665Y415063D01*
X1177976Y413400D01*
Y411600D01*
X1178665Y409937D01*
X1179937Y408665D01*
X1181600Y407976D01*
X1183400D01*
X1185063Y408665D01*
X1186335Y409937D01*
X1187024Y411600D01*
Y413400D01*
X1186335Y415063D01*
X1185063Y416335D01*
X1185624Y417433D01*
X1185911Y417721D01*
X1186524Y419200D01*
Y420800D01*
X1185911Y422279D01*
X1184779Y423411D01*
X1184010Y423730D01*
X1184263Y425000D01*
X1208237D01*
X1208490Y423730D01*
X1207721Y423411D01*
X1206589Y422279D01*
X1205976Y420800D01*
Y419200D01*
X1206589Y417721D01*
X1207721Y416589D01*
X1209200Y415976D01*
X1210800D01*
X1212279Y416589D01*
X1213411Y417721D01*
X1214024Y419200D01*
Y420800D01*
X1213411Y422279D01*
X1212279Y423411D01*
X1211510Y423730D01*
X1211763Y425000D01*
X1240737D01*
X1240990Y423730D01*
X1240221Y423411D01*
X1239089Y422279D01*
X1238476Y420800D01*
Y419200D01*
X1239089Y417721D01*
X1240221Y416589D01*
X1241700Y415976D01*
X1243300D01*
X1244779Y416589D01*
X1245911Y417721D01*
X1246524Y419200D01*
Y420800D01*
X1245911Y422279D01*
X1244779Y423411D01*
X1244010Y423730D01*
X1244263Y425000D01*
X1273237D01*
X1273490Y423730D01*
X1272721Y423411D01*
X1271589Y422279D01*
X1270976Y420800D01*
Y419200D01*
X1271589Y417721D01*
X1272721Y416589D01*
X1274200Y415976D01*
X1275800D01*
X1277279Y416589D01*
X1278411Y417721D01*
X1279024Y419200D01*
Y420800D01*
X1278411Y422279D01*
X1277279Y423411D01*
X1276510Y423730D01*
X1276763Y425000D01*
X1550000D01*
Y212500D01*
X1337500Y212500D01*
X1191842Y66842D01*
X1190262Y68421D01*
X1187862Y69807D01*
X1185185Y70524D01*
X1182414D01*
X1179738Y69807D01*
X1177338Y68421D01*
X1175379Y66462D01*
X1173993Y64062D01*
X1173276Y61385D01*
Y60000D01*
X1132424D01*
Y61385D01*
X1131707Y64062D01*
X1130321Y66462D01*
X1128362Y68421D01*
X1125962Y69807D01*
X1123286Y70524D01*
X1120515D01*
X1117838Y69807D01*
X1115438Y68421D01*
X1113479Y66462D01*
X1112093Y64062D01*
X1111376Y61385D01*
Y60000D01*
X1094324D01*
Y61385D01*
X1093607Y64062D01*
X1092221Y66462D01*
X1090262Y68421D01*
X1087862Y69807D01*
X1085185Y70524D01*
X1082414D01*
X1079738Y69807D01*
X1077338Y68421D01*
X1075379Y66462D01*
X1073993Y64062D01*
X1073276Y61385D01*
Y60000D01*
X1000524D01*
Y61385D01*
X999807Y64062D01*
X998421Y66462D01*
X996462Y68421D01*
X994062Y69807D01*
X991385Y70524D01*
X988615D01*
X985938Y69807D01*
X983538Y68421D01*
X981579Y66462D01*
X980193Y64062D01*
X979476Y61385D01*
Y60000D01*
X962424D01*
Y61385D01*
X961707Y64062D01*
X960321Y66462D01*
X958362Y68421D01*
X955962Y69807D01*
X953286Y70524D01*
X950515D01*
X947838Y69807D01*
X945438Y68421D01*
X943479Y66462D01*
X942093Y64062D01*
X941376Y61385D01*
Y60000D01*
X900524D01*
Y61385D01*
X899807Y64062D01*
X898421Y66462D01*
X896462Y68421D01*
X894062Y69807D01*
X891385Y70524D01*
X888615D01*
X885938Y69807D01*
X883538Y68421D01*
X881579Y66462D01*
X880193Y64062D01*
X879476Y61385D01*
Y60000D01*
X862424D01*
Y61385D01*
X861707Y64062D01*
X860321Y66462D01*
X858362Y68421D01*
X855962Y69807D01*
X853286Y70524D01*
X850515D01*
X847838Y69807D01*
X845438Y68421D01*
X843479Y66462D01*
X842093Y64062D01*
X841376Y61385D01*
Y60000D01*
X800524D01*
Y61385D01*
X799807Y64062D01*
X798421Y66462D01*
X796462Y68421D01*
X794062Y69807D01*
X791385Y70524D01*
X788615D01*
X785938Y69807D01*
X783538Y68421D01*
X781579Y66462D01*
X780193Y64062D01*
X779476Y61385D01*
Y60000D01*
X762424D01*
Y61385D01*
X761707Y64062D01*
X760321Y66462D01*
X758362Y68421D01*
X755962Y69807D01*
X753286Y70524D01*
X750515D01*
X747838Y69807D01*
X745438Y68421D01*
X743479Y66462D01*
X742093Y64062D01*
X741376Y61385D01*
Y60000D01*
X680524D01*
Y61385D01*
X679807Y64062D01*
X678421Y66462D01*
X676462Y68421D01*
X674062Y69807D01*
X671385Y70524D01*
X668615D01*
X665938Y69807D01*
X663538Y68421D01*
X661579Y66462D01*
X660193Y64062D01*
X659476Y61385D01*
Y60000D01*
X642424D01*
Y61385D01*
X641707Y64062D01*
X640321Y66462D01*
X638362Y68421D01*
X635962Y69807D01*
X633285Y70524D01*
X630514D01*
X627838Y69807D01*
X625438Y68421D01*
X623479Y66462D01*
X622093Y64062D01*
X621376Y61385D01*
Y60000D01*
X604324D01*
Y61385D01*
X603607Y64062D01*
X602221Y66462D01*
X600262Y68421D01*
X597862Y69807D01*
X595186Y70524D01*
X592415D01*
X589738Y69807D01*
X587338Y68421D01*
X585379Y66462D01*
X583993Y64062D01*
X583276Y61385D01*
Y60000D01*
X540524D01*
Y61385D01*
X539807Y64062D01*
X538421Y66462D01*
X536462Y68421D01*
X534062Y69807D01*
X531385Y70524D01*
X528615D01*
X525938Y69807D01*
X523538Y68421D01*
X521579Y66462D01*
X520193Y64062D01*
X519476Y61385D01*
Y60000D01*
X502424D01*
Y61385D01*
X501707Y64062D01*
X500321Y66462D01*
X498362Y68421D01*
X495962Y69807D01*
X493285Y70524D01*
X490514D01*
X487838Y69807D01*
X485438Y68421D01*
X483479Y66462D01*
X482093Y64062D01*
X481376Y61385D01*
Y60000D01*
X464324D01*
Y61385D01*
X463607Y64062D01*
X462221Y66462D01*
X460262Y68421D01*
X457862Y69807D01*
X455186Y70524D01*
X452415D01*
X449738Y69807D01*
X447338Y68421D01*
X445379Y66462D01*
X443993Y64062D01*
X443276Y61385D01*
Y60000D01*
X400524D01*
Y61385D01*
X399807Y64062D01*
X398421Y66462D01*
X396462Y68421D01*
X394062Y69807D01*
X391386Y70524D01*
X388615D01*
X385938Y69807D01*
X383538Y68421D01*
X381579Y66462D01*
X380193Y64062D01*
X379476Y61385D01*
Y60000D01*
X362424D01*
Y61385D01*
X361707Y64062D01*
X360321Y66462D01*
X358362Y68421D01*
X355962Y69807D01*
X353286Y70524D01*
X350514D01*
X347838Y69807D01*
X345438Y68421D01*
X343479Y66462D01*
X342093Y64062D01*
X341376Y61385D01*
Y60000D01*
X324324D01*
Y61385D01*
X323607Y64062D01*
X322221Y66462D01*
X320262Y68421D01*
X317862Y69807D01*
X315186Y70524D01*
X312414D01*
X309738Y69807D01*
X307338Y68421D01*
X305379Y66462D01*
X303993Y64062D01*
X303276Y61385D01*
Y60000D01*
X240524D01*
Y61385D01*
X239807Y64062D01*
X238421Y66462D01*
X236462Y68421D01*
X234062Y69807D01*
X231385Y70524D01*
X228615D01*
X225938Y69807D01*
X223538Y68421D01*
X221579Y66462D01*
X220193Y64062D01*
X219476Y61385D01*
Y60000D01*
X202424D01*
Y61385D01*
X201707Y64062D01*
X200321Y66462D01*
X198362Y68421D01*
X195962Y69807D01*
X193286Y70524D01*
X190515D01*
X187838Y69807D01*
X185438Y68421D01*
X183479Y66462D01*
X182093Y64062D01*
X181376Y61385D01*
Y60000D01*
X165340D01*
Y61519D01*
X164554Y64454D01*
X163034Y67086D01*
X160886Y69234D01*
X158254Y70753D01*
X156975Y71096D01*
Y60000D01*
X150625D01*
Y71096D01*
X149346Y70753D01*
X146714Y69234D01*
X144566Y67086D01*
X143046Y64454D01*
X142260Y61519D01*
Y60000D01*
X120000D01*
Y492314D01*
X832686Y492314D01*
D02*
G37*
%LPC*%
G36*
X359360Y460160D02*
X352375D01*
Y453175D01*
X359360D01*
Y460160D01*
D02*
G37*
G36*
X346025D02*
X339040D01*
Y453175D01*
X346025D01*
Y460160D01*
D02*
G37*
G36*
X161824Y478524D02*
X158176D01*
X154597Y477812D01*
X151226Y476416D01*
X148192Y474389D01*
X145611Y471808D01*
X143584Y468774D01*
X142188Y465403D01*
X141476Y461824D01*
Y458176D01*
X142188Y454597D01*
X143584Y451226D01*
X145611Y448192D01*
X148192Y445611D01*
X151226Y443584D01*
X154597Y442188D01*
X158176Y441476D01*
X161824D01*
X165403Y442188D01*
X168774Y443584D01*
X171808Y445611D01*
X174389Y448192D01*
X176416Y451226D01*
X177812Y454597D01*
X178524Y458176D01*
Y461824D01*
X177812Y465403D01*
X176416Y468774D01*
X174389Y471808D01*
X171808Y474389D01*
X168774Y476416D01*
X165403Y477812D01*
X161824Y478524D01*
D02*
G37*
G36*
X426604Y459144D02*
X424196D01*
X421870Y458521D01*
X419785Y457317D01*
X418083Y455615D01*
X416879Y453529D01*
X416256Y451204D01*
Y448796D01*
X416879Y446470D01*
X418083Y444385D01*
X419785Y442683D01*
X421870Y441479D01*
X424196Y440856D01*
X426604D01*
X428929Y441479D01*
X431015Y442683D01*
X432717Y444385D01*
X433921Y446470D01*
X434544Y448796D01*
Y451204D01*
X433921Y453529D01*
X432717Y455615D01*
X431015Y457317D01*
X428929Y458521D01*
X426604Y459144D01*
D02*
G37*
G36*
X401204D02*
X398796D01*
X396470Y458521D01*
X394385Y457317D01*
X392683Y455615D01*
X391479Y453529D01*
X390856Y451204D01*
Y448796D01*
X391479Y446470D01*
X392683Y444385D01*
X394385Y442683D01*
X396470Y441479D01*
X398796Y440856D01*
X401204D01*
X403529Y441479D01*
X405615Y442683D01*
X407317Y444385D01*
X408521Y446470D01*
X409144Y448796D01*
Y451204D01*
X408521Y453529D01*
X407317Y455615D01*
X405615Y457317D01*
X403529Y458521D01*
X401204Y459144D01*
D02*
G37*
G36*
X375804D02*
X373396D01*
X371071Y458521D01*
X368985Y457317D01*
X367283Y455615D01*
X366079Y453529D01*
X365456Y451204D01*
Y448796D01*
X366079Y446470D01*
X367283Y444385D01*
X368985Y442683D01*
X371071Y441479D01*
X373396Y440856D01*
X375804D01*
X378129Y441479D01*
X380215Y442683D01*
X381917Y444385D01*
X383121Y446470D01*
X383744Y448796D01*
Y451204D01*
X383121Y453529D01*
X381917Y455615D01*
X380215Y457317D01*
X378129Y458521D01*
X375804Y459144D01*
D02*
G37*
G36*
X359360Y446825D02*
X352375D01*
Y439840D01*
X359360D01*
Y446825D01*
D02*
G37*
G36*
X346025D02*
X339040D01*
Y439840D01*
X346025D01*
Y446825D01*
D02*
G37*
G36*
X541351Y451524D02*
X538049D01*
X534810Y450880D01*
X531759Y449616D01*
X529014Y447781D01*
X526679Y445446D01*
X524844Y442701D01*
X523580Y439650D01*
X522936Y436411D01*
Y433109D01*
X523580Y429870D01*
X524844Y426819D01*
X526679Y424074D01*
X529014Y421739D01*
X531759Y419904D01*
X534810Y418640D01*
X538049Y417996D01*
X541351D01*
X544590Y418640D01*
X547641Y419904D01*
X550386Y421739D01*
X552721Y424074D01*
X554556Y426819D01*
X555820Y429870D01*
X556464Y433109D01*
Y436411D01*
X555820Y439650D01*
X554556Y442701D01*
X552721Y445446D01*
X550386Y447781D01*
X547641Y449616D01*
X544590Y450880D01*
X541351Y451524D01*
D02*
G37*
G36*
X236551D02*
X233249D01*
X230010Y450880D01*
X226959Y449616D01*
X224214Y447781D01*
X221879Y445446D01*
X220044Y442701D01*
X218780Y439650D01*
X218136Y436411D01*
Y433109D01*
X218780Y429870D01*
X220044Y426819D01*
X221879Y424074D01*
X224214Y421739D01*
X226959Y419904D01*
X230010Y418640D01*
X233249Y417996D01*
X236551D01*
X239790Y418640D01*
X242841Y419904D01*
X245586Y421739D01*
X247921Y424074D01*
X249756Y426819D01*
X251020Y429870D01*
X251664Y433109D01*
Y436411D01*
X251020Y439650D01*
X249756Y442701D01*
X247921Y445446D01*
X245586Y447781D01*
X242841Y449616D01*
X239790Y450880D01*
X236551Y451524D01*
D02*
G37*
G36*
X1160900Y422024D02*
X1159100D01*
X1157437Y421335D01*
X1156165Y420063D01*
X1155476Y418400D01*
Y416600D01*
X1156165Y414937D01*
X1157437Y413665D01*
X1159100Y412976D01*
X1160900D01*
X1162563Y413665D01*
X1163835Y414937D01*
X1164524Y416600D01*
Y418400D01*
X1163835Y420063D01*
X1162563Y421335D01*
X1160900Y422024D01*
D02*
G37*
G36*
X671824Y448524D02*
X668176D01*
X664597Y447812D01*
X661226Y446416D01*
X658192Y444389D01*
X655611Y441808D01*
X653584Y438774D01*
X652188Y435403D01*
X651476Y431824D01*
Y428176D01*
X652188Y424597D01*
X653584Y421226D01*
X655611Y418192D01*
X658192Y415611D01*
X661226Y413584D01*
X664597Y412188D01*
X668176Y411476D01*
X671824D01*
X675403Y412188D01*
X678774Y413584D01*
X681808Y415611D01*
X684389Y418192D01*
X686416Y421226D01*
X687812Y424597D01*
X688524Y428176D01*
Y431824D01*
X687812Y435403D01*
X686416Y438774D01*
X684389Y441808D01*
X681808Y444389D01*
X678774Y446416D01*
X675403Y447812D01*
X671824Y448524D01*
D02*
G37*
G36*
X1250800Y404024D02*
X1249200D01*
X1247721Y403411D01*
X1246589Y402279D01*
X1245976Y400800D01*
Y399200D01*
X1246589Y397721D01*
X1247721Y396589D01*
X1249200Y395976D01*
X1250800D01*
X1252279Y396589D01*
X1253411Y397721D01*
X1254024Y399200D01*
Y400800D01*
X1253411Y402279D01*
X1252279Y403411D01*
X1250800Y404024D01*
D02*
G37*
G36*
X1231050D02*
X1229450D01*
X1227971Y403411D01*
X1226839Y402279D01*
X1226226Y400800D01*
Y399200D01*
X1226839Y397721D01*
X1227971Y396589D01*
X1229450Y395976D01*
X1231050D01*
X1232529Y396589D01*
X1233661Y397721D01*
X1234274Y399200D01*
Y400800D01*
X1233661Y402279D01*
X1232529Y403411D01*
X1231050Y404024D01*
D02*
G37*
G36*
X1211300D02*
X1209700D01*
X1208221Y403411D01*
X1207089Y402279D01*
X1206476Y400800D01*
Y399200D01*
X1207089Y397721D01*
X1208221Y396589D01*
X1209700Y395976D01*
X1211300D01*
X1212779Y396589D01*
X1213911Y397721D01*
X1214524Y399200D01*
Y400800D01*
X1213911Y402279D01*
X1212779Y403411D01*
X1211300Y404024D01*
D02*
G37*
G36*
X1328400Y394524D02*
X1326600D01*
X1324937Y393835D01*
X1323665Y392563D01*
X1322976Y390900D01*
Y389100D01*
X1323665Y387437D01*
X1324937Y386165D01*
X1326600Y385476D01*
X1328400D01*
X1330063Y386165D01*
X1331335Y387437D01*
X1332024Y389100D01*
Y390900D01*
X1331335Y392563D01*
X1330063Y393835D01*
X1328400Y394524D01*
D02*
G37*
G36*
X348400D02*
X346600D01*
X344937Y393835D01*
X343665Y392563D01*
X342976Y390900D01*
Y389100D01*
X343665Y387437D01*
X344937Y386165D01*
X346600Y385476D01*
X348400D01*
X350063Y386165D01*
X351335Y387437D01*
X352024Y389100D01*
Y390900D01*
X351335Y392563D01*
X350063Y393835D01*
X348400Y394524D01*
D02*
G37*
G36*
X1070900Y389524D02*
X1069100D01*
X1067437Y388835D01*
X1066165Y387563D01*
X1065476Y385900D01*
Y384100D01*
X1066165Y382437D01*
X1067437Y381165D01*
X1069100Y380476D01*
X1070900D01*
X1072563Y381165D01*
X1073835Y382437D01*
X1074524Y384100D01*
Y385900D01*
X1073835Y387563D01*
X1072563Y388835D01*
X1070900Y389524D01*
D02*
G37*
G36*
X1497820Y400024D02*
X1495180D01*
X1492631Y399341D01*
X1490345Y398021D01*
X1488479Y396155D01*
X1487159Y393869D01*
X1486476Y391320D01*
Y388680D01*
X1487159Y386131D01*
X1488479Y383845D01*
X1490345Y381979D01*
X1492631Y380659D01*
X1495180Y379976D01*
X1497820D01*
X1500369Y380659D01*
X1502655Y381979D01*
X1504521Y383845D01*
X1505841Y386131D01*
X1506524Y388680D01*
Y391320D01*
X1505841Y393869D01*
X1504521Y396155D01*
X1502655Y398021D01*
X1500369Y399341D01*
X1497820Y400024D01*
D02*
G37*
G36*
X1447820D02*
X1445180D01*
X1442631Y399341D01*
X1440345Y398021D01*
X1438479Y396155D01*
X1437159Y393869D01*
X1436476Y391320D01*
Y388680D01*
X1437159Y386131D01*
X1438479Y383845D01*
X1440345Y381979D01*
X1442631Y380659D01*
X1445180Y379976D01*
X1447820D01*
X1450369Y380659D01*
X1452655Y381979D01*
X1454521Y383845D01*
X1455841Y386131D01*
X1456524Y388680D01*
Y391320D01*
X1455841Y393869D01*
X1454521Y396155D01*
X1452655Y398021D01*
X1450369Y399341D01*
X1447820Y400024D01*
D02*
G37*
G36*
X1250800Y384274D02*
X1249200D01*
X1247721Y383661D01*
X1246589Y382529D01*
X1245976Y381050D01*
Y379450D01*
X1246589Y377971D01*
X1247721Y376839D01*
X1249200Y376226D01*
X1250800D01*
X1252279Y376839D01*
X1253411Y377971D01*
X1254024Y379450D01*
Y381050D01*
X1253411Y382529D01*
X1252279Y383661D01*
X1250800Y384274D01*
D02*
G37*
G36*
X1231050D02*
X1229450D01*
X1227971Y383661D01*
X1226839Y382529D01*
X1226226Y381050D01*
Y379450D01*
X1226839Y377971D01*
X1227971Y376839D01*
X1229450Y376226D01*
X1231050D01*
X1232529Y376839D01*
X1233661Y377971D01*
X1234274Y379450D01*
Y381050D01*
X1233661Y382529D01*
X1232529Y383661D01*
X1231050Y384274D01*
D02*
G37*
G36*
X1211300D02*
X1209700D01*
X1208221Y383661D01*
X1207089Y382529D01*
X1206476Y381050D01*
Y379450D01*
X1207089Y377971D01*
X1208221Y376839D01*
X1209700Y376226D01*
X1211300D01*
X1212779Y376839D01*
X1213911Y377971D01*
X1214524Y379450D01*
Y381050D01*
X1213911Y382529D01*
X1212779Y383661D01*
X1211300Y384274D01*
D02*
G37*
G36*
X996403Y387620D02*
X994397D01*
X992459Y387101D01*
X990721Y386097D01*
X989303Y384679D01*
X988299Y382941D01*
X987780Y381003D01*
Y378997D01*
X988299Y377059D01*
X989303Y375321D01*
X990721Y373903D01*
X992459Y372899D01*
X994397Y372380D01*
X996403D01*
X998341Y372899D01*
X1000079Y373903D01*
X1001497Y375321D01*
X1002501Y377059D01*
X1003020Y378997D01*
Y381003D01*
X1002501Y382941D01*
X1001497Y384679D01*
X1000079Y386097D01*
X998341Y387101D01*
X996403Y387620D01*
D02*
G37*
G36*
X971003D02*
X968997D01*
X967059Y387101D01*
X965321Y386097D01*
X963903Y384679D01*
X962899Y382941D01*
X962380Y381003D01*
Y378997D01*
X962899Y377059D01*
X963903Y375321D01*
X965321Y373903D01*
X967059Y372899D01*
X968997Y372380D01*
X971003D01*
X972941Y372899D01*
X974679Y373903D01*
X976097Y375321D01*
X977101Y377059D01*
X977620Y378997D01*
Y381003D01*
X977101Y382941D01*
X976097Y384679D01*
X974679Y386097D01*
X972941Y387101D01*
X971003Y387620D01*
D02*
G37*
G36*
X1250800Y364524D02*
X1249200D01*
X1247721Y363911D01*
X1246589Y362779D01*
X1245976Y361300D01*
Y359700D01*
X1246589Y358221D01*
X1247721Y357089D01*
X1249200Y356476D01*
X1250800D01*
X1252279Y357089D01*
X1253411Y358221D01*
X1254024Y359700D01*
Y361300D01*
X1253411Y362779D01*
X1252279Y363911D01*
X1250800Y364524D01*
D02*
G37*
G36*
X1231050D02*
X1229450D01*
X1227971Y363911D01*
X1226839Y362779D01*
X1226226Y361300D01*
Y359700D01*
X1226839Y358221D01*
X1227971Y357089D01*
X1229450Y356476D01*
X1231050D01*
X1232529Y357089D01*
X1233661Y358221D01*
X1234274Y359700D01*
Y361300D01*
X1233661Y362779D01*
X1232529Y363911D01*
X1231050Y364524D01*
D02*
G37*
G36*
X1211300D02*
X1209700D01*
X1208221Y363911D01*
X1207089Y362779D01*
X1206476Y361300D01*
Y359700D01*
X1207089Y358221D01*
X1208221Y357089D01*
X1209700Y356476D01*
X1211300D01*
X1212779Y357089D01*
X1213911Y358221D01*
X1214524Y359700D01*
Y361300D01*
X1213911Y362779D01*
X1212779Y363911D01*
X1211300Y364524D01*
D02*
G37*
G36*
X1543400Y362024D02*
X1541600D01*
X1539937Y361335D01*
X1538665Y360063D01*
X1537976Y358400D01*
Y356600D01*
X1538665Y354937D01*
X1539937Y353665D01*
X1541600Y352976D01*
X1543400D01*
X1545063Y353665D01*
X1546335Y354937D01*
X1547024Y356600D01*
Y358400D01*
X1546335Y360063D01*
X1545063Y361335D01*
X1543400Y362024D01*
D02*
G37*
G36*
X775800Y364325D02*
X774200D01*
X772721Y363712D01*
X771589Y362580D01*
X770976Y361101D01*
Y359501D01*
X771589Y358022D01*
X771960Y357650D01*
X771589Y357279D01*
X770976Y355800D01*
Y354200D01*
X771589Y352721D01*
X772721Y351589D01*
X774200Y350976D01*
X775800D01*
X777279Y351589D01*
X778411Y352721D01*
X779024Y354200D01*
Y355800D01*
X778411Y357279D01*
X778040Y357650D01*
X778411Y358022D01*
X779024Y359501D01*
Y361101D01*
X778411Y362580D01*
X777279Y363712D01*
X775800Y364325D01*
D02*
G37*
G36*
X765800D02*
X764200D01*
X762721Y363712D01*
X761589Y362580D01*
X760976Y361101D01*
Y359501D01*
X761589Y358022D01*
X761960Y357650D01*
X761589Y357279D01*
X760976Y355800D01*
Y354200D01*
X761589Y352721D01*
X762721Y351589D01*
X764200Y350976D01*
X765800D01*
X767279Y351589D01*
X768411Y352721D01*
X769024Y354200D01*
Y355800D01*
X768411Y357279D01*
X768040Y357650D01*
X768411Y358022D01*
X769024Y359501D01*
Y361101D01*
X768411Y362580D01*
X767279Y363712D01*
X765800Y364325D01*
D02*
G37*
G36*
X1103300Y369024D02*
X1101700D01*
X1100221Y368411D01*
X1099089Y367279D01*
X1098476Y365800D01*
Y364200D01*
X1099089Y362721D01*
X1099309Y362500D01*
X1099089Y362279D01*
X1098476Y360800D01*
Y359200D01*
X1099089Y357721D01*
X1099309Y357500D01*
X1099089Y357279D01*
X1098476Y355800D01*
Y354200D01*
X1099089Y352721D01*
X1099309Y352500D01*
X1099089Y352279D01*
X1098476Y350800D01*
Y349200D01*
X1099089Y347721D01*
X1100221Y346589D01*
X1101700Y345976D01*
X1103300D01*
X1104779Y346589D01*
X1105911Y347721D01*
X1106524Y349200D01*
Y350800D01*
X1105911Y352279D01*
X1105691Y352500D01*
X1105911Y352721D01*
X1106524Y354200D01*
Y355800D01*
X1105911Y357279D01*
X1105691Y357500D01*
X1105911Y357721D01*
X1106524Y359200D01*
Y360800D01*
X1105911Y362279D01*
X1105691Y362500D01*
X1105911Y362721D01*
X1106524Y364200D01*
Y365800D01*
X1105911Y367279D01*
X1104779Y368411D01*
X1103300Y369024D01*
D02*
G37*
G36*
X865800Y349024D02*
X864200D01*
X862721Y348411D01*
X861589Y347279D01*
X860976Y345800D01*
Y344200D01*
X861589Y342721D01*
X862721Y341589D01*
X864200Y340976D01*
X865800D01*
X867279Y341589D01*
X868411Y342721D01*
X869024Y344200D01*
Y345800D01*
X868411Y347279D01*
X867279Y348411D01*
X865800Y349024D01*
D02*
G37*
G36*
X855800D02*
X854200D01*
X852721Y348411D01*
X851589Y347279D01*
X850976Y345800D01*
Y344200D01*
X851589Y342721D01*
X852721Y341589D01*
X854200Y340976D01*
X855800D01*
X857279Y341589D01*
X858411Y342721D01*
X859024Y344200D01*
Y345800D01*
X858411Y347279D01*
X857279Y348411D01*
X855800Y349024D01*
D02*
G37*
G36*
X845800D02*
X844200D01*
X842721Y348411D01*
X841589Y347279D01*
X840976Y345800D01*
Y344200D01*
X841589Y342721D01*
X842721Y341589D01*
X844200Y340976D01*
X845800D01*
X847279Y341589D01*
X848411Y342721D01*
X849024Y344200D01*
Y345800D01*
X848411Y347279D01*
X847279Y348411D01*
X845800Y349024D01*
D02*
G37*
G36*
X835800D02*
X834200D01*
X832721Y348411D01*
X831589Y347279D01*
X830976Y345800D01*
Y344200D01*
X831589Y342721D01*
X832721Y341589D01*
X834200Y340976D01*
X835800D01*
X837279Y341589D01*
X838411Y342721D01*
X839024Y344200D01*
Y345800D01*
X838411Y347279D01*
X837279Y348411D01*
X835800Y349024D01*
D02*
G37*
G36*
X825800D02*
X824200D01*
X822721Y348411D01*
X821589Y347279D01*
X820976Y345800D01*
Y344200D01*
X821589Y342721D01*
X822721Y341589D01*
X824200Y340976D01*
X825800D01*
X827279Y341589D01*
X828411Y342721D01*
X829024Y344200D01*
Y345800D01*
X828411Y347279D01*
X827279Y348411D01*
X825800Y349024D01*
D02*
G37*
G36*
X815800D02*
X814200D01*
X812721Y348411D01*
X811589Y347279D01*
X810976Y345800D01*
Y344200D01*
X811589Y342721D01*
X812721Y341589D01*
X814200Y340976D01*
X815800D01*
X817279Y341589D01*
X818411Y342721D01*
X819024Y344200D01*
Y345800D01*
X818411Y347279D01*
X817279Y348411D01*
X815800Y349024D01*
D02*
G37*
G36*
X805800D02*
X804200D01*
X802721Y348411D01*
X801589Y347279D01*
X800976Y345800D01*
Y344200D01*
X801589Y342721D01*
X802721Y341589D01*
X804200Y340976D01*
X805800D01*
X807279Y341589D01*
X808411Y342721D01*
X809024Y344200D01*
Y345800D01*
X808411Y347279D01*
X807279Y348411D01*
X805800Y349024D01*
D02*
G37*
G36*
X795800D02*
X794200D01*
X792721Y348411D01*
X791589Y347279D01*
X790976Y345800D01*
Y344200D01*
X791589Y342721D01*
X792721Y341589D01*
X794200Y340976D01*
X795800D01*
X797279Y341589D01*
X798411Y342721D01*
X799024Y344200D01*
Y345800D01*
X798411Y347279D01*
X797279Y348411D01*
X795800Y349024D01*
D02*
G37*
G36*
X775800D02*
X774200D01*
X772721Y348411D01*
X771589Y347279D01*
X770976Y345800D01*
Y344200D01*
X771589Y342721D01*
X772721Y341589D01*
X774200Y340976D01*
X775800D01*
X777279Y341589D01*
X778411Y342721D01*
X779024Y344200D01*
Y345800D01*
X778411Y347279D01*
X777279Y348411D01*
X775800Y349024D01*
D02*
G37*
G36*
X765800D02*
X764200D01*
X762721Y348411D01*
X761589Y347279D01*
X760976Y345800D01*
Y344200D01*
X761589Y342721D01*
X762721Y341589D01*
X764200Y340976D01*
X765800D01*
X767279Y341589D01*
X768411Y342721D01*
X769024Y344200D01*
Y345800D01*
X768411Y347279D01*
X767279Y348411D01*
X765800Y349024D01*
D02*
G37*
G36*
X1160900Y349524D02*
X1159100D01*
X1157437Y348835D01*
X1156165Y347563D01*
X1155476Y345900D01*
Y344100D01*
X1156165Y342437D01*
X1157437Y341165D01*
X1159100Y340476D01*
X1160900D01*
X1162563Y341165D01*
X1163835Y342437D01*
X1164524Y344100D01*
Y345900D01*
X1163835Y347563D01*
X1162563Y348835D01*
X1160900Y349524D01*
D02*
G37*
G36*
X865800Y339024D02*
X864200D01*
X862721Y338411D01*
X861589Y337279D01*
X860976Y335800D01*
Y334200D01*
X861589Y332721D01*
X862721Y331589D01*
X864200Y330976D01*
X865800D01*
X867279Y331589D01*
X868411Y332721D01*
X869024Y334200D01*
Y335800D01*
X868411Y337279D01*
X867279Y338411D01*
X865800Y339024D01*
D02*
G37*
G36*
X855800D02*
X854200D01*
X852721Y338411D01*
X851589Y337279D01*
X850976Y335800D01*
Y334200D01*
X851589Y332721D01*
X852721Y331589D01*
X854200Y330976D01*
X855800D01*
X857279Y331589D01*
X858411Y332721D01*
X859024Y334200D01*
Y335800D01*
X858411Y337279D01*
X857279Y338411D01*
X855800Y339024D01*
D02*
G37*
G36*
X845800D02*
X844200D01*
X842721Y338411D01*
X841589Y337279D01*
X840976Y335800D01*
Y334200D01*
X841589Y332721D01*
X842721Y331589D01*
X844200Y330976D01*
X845800D01*
X847279Y331589D01*
X848411Y332721D01*
X849024Y334200D01*
Y335800D01*
X848411Y337279D01*
X847279Y338411D01*
X845800Y339024D01*
D02*
G37*
G36*
X835800D02*
X834200D01*
X832721Y338411D01*
X831589Y337279D01*
X830976Y335800D01*
Y334200D01*
X831589Y332721D01*
X832721Y331589D01*
X834200Y330976D01*
X835800D01*
X837279Y331589D01*
X838411Y332721D01*
X839024Y334200D01*
Y335800D01*
X838411Y337279D01*
X837279Y338411D01*
X835800Y339024D01*
D02*
G37*
G36*
X825800D02*
X824200D01*
X822721Y338411D01*
X821589Y337279D01*
X820976Y335800D01*
Y334200D01*
X821589Y332721D01*
X822721Y331589D01*
X824200Y330976D01*
X825800D01*
X827279Y331589D01*
X828411Y332721D01*
X829024Y334200D01*
Y335800D01*
X828411Y337279D01*
X827279Y338411D01*
X825800Y339024D01*
D02*
G37*
G36*
X815800D02*
X814200D01*
X812721Y338411D01*
X811589Y337279D01*
X810976Y335800D01*
Y334200D01*
X811589Y332721D01*
X812721Y331589D01*
X814200Y330976D01*
X815800D01*
X817279Y331589D01*
X818411Y332721D01*
X819024Y334200D01*
Y335800D01*
X818411Y337279D01*
X817279Y338411D01*
X815800Y339024D01*
D02*
G37*
G36*
X805800D02*
X804200D01*
X802721Y338411D01*
X801589Y337279D01*
X800976Y335800D01*
Y334200D01*
X801589Y332721D01*
X802721Y331589D01*
X804200Y330976D01*
X805800D01*
X807279Y331589D01*
X808411Y332721D01*
X809024Y334200D01*
Y335800D01*
X808411Y337279D01*
X807279Y338411D01*
X805800Y339024D01*
D02*
G37*
G36*
X795800D02*
X794200D01*
X792721Y338411D01*
X791589Y337279D01*
X790976Y335800D01*
Y334200D01*
X791589Y332721D01*
X792721Y331589D01*
X794200Y330976D01*
X795800D01*
X797279Y331589D01*
X798411Y332721D01*
X799024Y334200D01*
Y335800D01*
X798411Y337279D01*
X797279Y338411D01*
X795800Y339024D01*
D02*
G37*
G36*
X775800D02*
X774200D01*
X772721Y338411D01*
X771589Y337279D01*
X770976Y335800D01*
Y334200D01*
X771589Y332721D01*
X772721Y331589D01*
X774200Y330976D01*
X775800D01*
X777279Y331589D01*
X778411Y332721D01*
X779024Y334200D01*
Y335800D01*
X778411Y337279D01*
X777279Y338411D01*
X775800Y339024D01*
D02*
G37*
G36*
X765800D02*
X764200D01*
X762721Y338411D01*
X761589Y337279D01*
X760976Y335800D01*
Y334200D01*
X761589Y332721D01*
X762721Y331589D01*
X764200Y330976D01*
X765800D01*
X767279Y331589D01*
X768411Y332721D01*
X769024Y334200D01*
Y335800D01*
X768411Y337279D01*
X767279Y338411D01*
X765800Y339024D01*
D02*
G37*
G36*
X1140900Y339524D02*
X1139100D01*
X1137437Y338835D01*
X1136165Y337563D01*
X1135476Y335900D01*
Y334100D01*
X1136165Y332437D01*
X1137437Y331165D01*
X1139100Y330476D01*
X1140900D01*
X1142563Y331165D01*
X1143835Y332437D01*
X1144524Y334100D01*
Y335900D01*
X1143835Y337563D01*
X1142563Y338835D01*
X1140900Y339524D01*
D02*
G37*
G36*
X1323400Y337024D02*
X1321600D01*
X1319937Y336335D01*
X1318665Y335063D01*
X1317976Y333400D01*
Y331600D01*
X1318665Y329937D01*
X1319937Y328665D01*
X1321600Y327976D01*
X1323400D01*
X1325063Y328665D01*
X1326335Y329937D01*
X1327024Y331600D01*
Y333400D01*
X1326335Y335063D01*
X1325063Y336335D01*
X1323400Y337024D01*
D02*
G37*
G36*
X1300900Y334524D02*
X1299100D01*
X1297437Y333835D01*
X1296165Y332563D01*
X1295476Y330900D01*
Y329100D01*
X1296165Y327437D01*
X1297437Y326165D01*
X1299100Y325476D01*
X1300900D01*
X1302563Y326165D01*
X1303835Y327437D01*
X1304524Y329100D01*
Y330900D01*
X1303835Y332563D01*
X1302563Y333835D01*
X1300900Y334524D01*
D02*
G37*
G36*
X420900D02*
X419100D01*
X417437Y333835D01*
X416165Y332563D01*
X415476Y330900D01*
Y329100D01*
X416165Y327437D01*
X417437Y326165D01*
X419100Y325476D01*
X420900D01*
X422563Y326165D01*
X423835Y327437D01*
X424524Y329100D01*
Y330900D01*
X423835Y332563D01*
X422563Y333835D01*
X420900Y334524D01*
D02*
G37*
G36*
X775800Y329024D02*
X774200D01*
X772721Y328411D01*
X771589Y327279D01*
X770976Y325800D01*
Y324200D01*
X771589Y322721D01*
X772721Y321589D01*
X774200Y320976D01*
X775800D01*
X777279Y321589D01*
X778411Y322721D01*
X779024Y324200D01*
Y325800D01*
X778411Y327279D01*
X777279Y328411D01*
X775800Y329024D01*
D02*
G37*
G36*
X765800D02*
X764200D01*
X762721Y328411D01*
X761589Y327279D01*
X760976Y325800D01*
Y324200D01*
X761589Y322721D01*
X762721Y321589D01*
X764200Y320976D01*
X765800D01*
X767279Y321589D01*
X768411Y322721D01*
X769024Y324200D01*
Y325800D01*
X768411Y327279D01*
X767279Y328411D01*
X765800Y329024D01*
D02*
G37*
G36*
X260900Y327024D02*
X259100D01*
X257437Y326335D01*
X256165Y325063D01*
X255476Y323400D01*
Y321600D01*
X256165Y319937D01*
X257437Y318665D01*
X259100Y317976D01*
X260900D01*
X262563Y318665D01*
X263835Y319937D01*
X264524Y321600D01*
Y323400D01*
X263835Y325063D01*
X262563Y326335D01*
X260900Y327024D01*
D02*
G37*
G36*
X1198599Y324524D02*
X1196799D01*
X1195136Y323835D01*
X1193864Y322563D01*
X1193175Y320900D01*
Y319100D01*
X1193864Y317437D01*
X1195136Y316165D01*
X1196799Y315476D01*
X1198599D01*
X1200262Y316165D01*
X1201534Y317437D01*
X1202223Y319100D01*
Y320900D01*
X1201534Y322563D01*
X1200262Y323835D01*
X1198599Y324524D01*
D02*
G37*
G36*
X775800Y319024D02*
X774200D01*
X772721Y318411D01*
X771589Y317279D01*
X770976Y315800D01*
Y314200D01*
X771589Y312721D01*
X772721Y311589D01*
X774200Y310976D01*
X775800D01*
X777279Y311589D01*
X778411Y312721D01*
X779024Y314200D01*
Y315800D01*
X778411Y317279D01*
X777279Y318411D01*
X775800Y319024D01*
D02*
G37*
G36*
X765800D02*
X764200D01*
X762721Y318411D01*
X761589Y317279D01*
X760976Y315800D01*
Y314200D01*
X761589Y312721D01*
X762721Y311589D01*
X764200Y310976D01*
X765800D01*
X767279Y311589D01*
X768411Y312721D01*
X769024Y314200D01*
Y315800D01*
X768411Y317279D01*
X767279Y318411D01*
X765800Y319024D01*
D02*
G37*
G36*
X1230900Y319524D02*
X1229100D01*
X1227437Y318835D01*
X1226165Y317563D01*
X1225476Y315900D01*
Y314100D01*
X1226165Y312437D01*
X1227437Y311165D01*
X1229100Y310476D01*
X1230900D01*
X1232563Y311165D01*
X1233835Y312437D01*
X1234524Y314100D01*
Y315900D01*
X1233835Y317563D01*
X1232563Y318835D01*
X1230900Y319524D01*
D02*
G37*
G36*
X1160900Y334524D02*
X1159100D01*
X1157437Y333835D01*
X1156165Y332563D01*
X1155476Y330900D01*
Y329100D01*
X1156165Y327437D01*
X1157437Y326165D01*
X1158590Y325687D01*
Y324313D01*
X1157437Y323835D01*
X1156165Y322563D01*
X1155476Y320900D01*
Y319100D01*
X1156165Y317437D01*
X1156772Y316830D01*
X1157327Y316000D01*
X1156772Y315170D01*
X1156165Y314563D01*
X1155476Y312900D01*
Y311100D01*
X1156165Y309437D01*
X1157437Y308165D01*
X1159100Y307476D01*
X1160900D01*
X1162563Y308165D01*
X1163835Y309437D01*
X1164524Y311100D01*
Y312900D01*
X1163835Y314563D01*
X1163227Y315170D01*
X1162673Y316000D01*
X1163227Y316830D01*
X1163835Y317437D01*
X1164524Y319100D01*
Y320900D01*
X1163835Y322563D01*
X1162563Y323835D01*
X1161410Y324313D01*
Y325687D01*
X1162563Y326165D01*
X1163835Y327437D01*
X1164524Y329100D01*
Y330900D01*
X1163835Y332563D01*
X1162563Y333835D01*
X1160900Y334524D01*
D02*
G37*
G36*
X775800Y309024D02*
X774200D01*
X772721Y308411D01*
X771589Y307279D01*
X770976Y305800D01*
Y304200D01*
X771589Y302721D01*
X772721Y301589D01*
X774200Y300976D01*
X775800D01*
X777279Y301589D01*
X778411Y302721D01*
X779024Y304200D01*
Y305800D01*
X778411Y307279D01*
X777279Y308411D01*
X775800Y309024D01*
D02*
G37*
G36*
X765800D02*
X764200D01*
X762721Y308411D01*
X761589Y307279D01*
X760976Y305800D01*
Y304200D01*
X761589Y302721D01*
X762721Y301589D01*
X764200Y300976D01*
X765800D01*
X767279Y301589D01*
X768411Y302721D01*
X769024Y304200D01*
Y305800D01*
X768411Y307279D01*
X767279Y308411D01*
X765800Y309024D01*
D02*
G37*
G36*
X574840Y306284D02*
X573240D01*
X571761Y305671D01*
X570629Y304539D01*
X570016Y303060D01*
Y301460D01*
X570629Y299981D01*
X571761Y298849D01*
X573240Y298236D01*
X574840D01*
X576319Y298849D01*
X577451Y299981D01*
X578064Y301460D01*
Y303060D01*
X577451Y304539D01*
X576319Y305671D01*
X574840Y306284D01*
D02*
G37*
G36*
X1520087Y346524D02*
X1515912D01*
X1511789Y345871D01*
X1507818Y344581D01*
X1504098Y342685D01*
X1500721Y340231D01*
X1497769Y337279D01*
X1495315Y333902D01*
X1493419Y330182D01*
X1492129Y326211D01*
X1491476Y322088D01*
Y317913D01*
X1492129Y313789D01*
X1493419Y309818D01*
X1495315Y306098D01*
X1497769Y302721D01*
X1500721Y299769D01*
X1504098Y297315D01*
X1507818Y295419D01*
X1511789Y294129D01*
X1515912Y293476D01*
X1520087D01*
X1524211Y294129D01*
X1528182Y295419D01*
X1531902Y297315D01*
X1535279Y299769D01*
X1538231Y302721D01*
X1540685Y306098D01*
X1542581Y309818D01*
X1543871Y313789D01*
X1544524Y317913D01*
Y322088D01*
X1543871Y326211D01*
X1542581Y330182D01*
X1540685Y333902D01*
X1538231Y337279D01*
X1535279Y340231D01*
X1531902Y342685D01*
X1528182Y344581D01*
X1524211Y345871D01*
X1520087Y346524D01*
D02*
G37*
G36*
X1427088D02*
X1422912D01*
X1418789Y345871D01*
X1414818Y344581D01*
X1411098Y342685D01*
X1407721Y340231D01*
X1404769Y337279D01*
X1402315Y333902D01*
X1400419Y330182D01*
X1399129Y326211D01*
X1398476Y322088D01*
Y317913D01*
X1399129Y313789D01*
X1400419Y309818D01*
X1402315Y306098D01*
X1404769Y302721D01*
X1407721Y299769D01*
X1411098Y297315D01*
X1414818Y295419D01*
X1418789Y294129D01*
X1422912Y293476D01*
X1427088D01*
X1431211Y294129D01*
X1435182Y295419D01*
X1438902Y297315D01*
X1442279Y299769D01*
X1445231Y302721D01*
X1447685Y306098D01*
X1449581Y309818D01*
X1450871Y313789D01*
X1451524Y317913D01*
Y322088D01*
X1450871Y326211D01*
X1449581Y330182D01*
X1447685Y333902D01*
X1445231Y337279D01*
X1442279Y340231D01*
X1438902Y342685D01*
X1435182Y344581D01*
X1431211Y345871D01*
X1427088Y346524D01*
D02*
G37*
G36*
X643420Y293584D02*
X641820D01*
X640341Y292971D01*
X639617Y292248D01*
X638810Y291974D01*
X638003Y292248D01*
X637279Y292971D01*
X635800Y293584D01*
X634200D01*
X632721Y292971D01*
X631997Y292248D01*
X631190Y291974D01*
X630383Y292248D01*
X629659Y292971D01*
X628180Y293584D01*
X626580D01*
X625101Y292971D01*
X624377Y292248D01*
X623570Y291974D01*
X622763Y292248D01*
X622039Y292971D01*
X620560Y293584D01*
X618960D01*
X617481Y292971D01*
X616349Y291839D01*
X615736Y290360D01*
Y288760D01*
X616349Y287281D01*
X617481Y286149D01*
X618960Y285536D01*
X620560D01*
X622039Y286149D01*
X622763Y286872D01*
X623570Y287146D01*
X624377Y286872D01*
X625101Y286149D01*
X626580Y285536D01*
X628180D01*
X629659Y286149D01*
X630383Y286872D01*
X631190Y287146D01*
X631997Y286872D01*
X632721Y286149D01*
X634200Y285536D01*
X635800D01*
X637279Y286149D01*
X638003Y286872D01*
X638810Y287146D01*
X639617Y286872D01*
X640341Y286149D01*
X641820Y285536D01*
X643420D01*
X644899Y286149D01*
X646031Y287281D01*
X646644Y288760D01*
Y290360D01*
X646031Y291839D01*
X644899Y292971D01*
X643420Y293584D01*
D02*
G37*
G36*
X610400D02*
X608800D01*
X607321Y292971D01*
X606597Y292248D01*
X605790Y291974D01*
X604983Y292248D01*
X604259Y292971D01*
X602780Y293584D01*
X601180D01*
X599701Y292971D01*
X598977Y292248D01*
X598170Y291974D01*
X597363Y292248D01*
X596639Y292971D01*
X595160Y293584D01*
X593560D01*
X592081Y292971D01*
X591357Y292248D01*
X590550Y291974D01*
X589743Y292248D01*
X589019Y292971D01*
X587540Y293584D01*
X585940D01*
X584461Y292971D01*
X583329Y291839D01*
X582716Y290360D01*
Y288760D01*
X583329Y287281D01*
X584461Y286149D01*
X585940Y285536D01*
X587540D01*
X589019Y286149D01*
X589743Y286872D01*
X590550Y287146D01*
X591357Y286872D01*
X592081Y286149D01*
X593560Y285536D01*
X595160D01*
X596639Y286149D01*
X597363Y286872D01*
X598170Y287146D01*
X598977Y286872D01*
X599701Y286149D01*
X601180Y285536D01*
X602780D01*
X604259Y286149D01*
X604983Y286872D01*
X605790Y287146D01*
X606597Y286872D01*
X607321Y286149D01*
X608800Y285536D01*
X610400D01*
X611879Y286149D01*
X613011Y287281D01*
X613624Y288760D01*
Y290360D01*
X613011Y291839D01*
X611879Y292971D01*
X610400Y293584D01*
D02*
G37*
G36*
X577380D02*
X575780D01*
X574301Y292971D01*
X573169Y291839D01*
X572717Y290750D01*
X571628Y290373D01*
X571293Y290378D01*
X571239Y290431D01*
X569760Y291044D01*
X568160D01*
X566681Y290431D01*
X565549Y289299D01*
X564936Y287820D01*
Y286220D01*
X565549Y284741D01*
X565809Y284480D01*
X565549Y284219D01*
X564936Y282740D01*
Y281140D01*
X565549Y279661D01*
X565809Y279400D01*
X565549Y279139D01*
X564936Y277660D01*
Y276060D01*
X565549Y274581D01*
X565809Y274320D01*
X565549Y274059D01*
X564936Y272580D01*
Y270980D01*
X565549Y269501D01*
X566681Y268369D01*
X568160Y267756D01*
X569760D01*
X571239Y268369D01*
X572371Y269501D01*
X572984Y270980D01*
Y272580D01*
X572371Y274059D01*
X572111Y274320D01*
X572371Y274581D01*
X572984Y276060D01*
Y277660D01*
X572371Y279139D01*
X572111Y279400D01*
X572371Y279661D01*
X572984Y281140D01*
Y282740D01*
X572371Y284219D01*
X572111Y284480D01*
X572371Y284741D01*
X572823Y285830D01*
X573912Y286207D01*
X574247Y286202D01*
X574301Y286149D01*
X575780Y285536D01*
X577380D01*
X578859Y286149D01*
X579991Y287281D01*
X580604Y288760D01*
Y290360D01*
X579991Y291839D01*
X578859Y292971D01*
X577380Y293584D01*
D02*
G37*
G36*
X559600D02*
X558000D01*
X556521Y292971D01*
X555389Y291839D01*
X554776Y290360D01*
Y288760D01*
X555389Y287281D01*
X556521Y286149D01*
X558000Y285536D01*
X559600D01*
X561079Y286149D01*
X562211Y287281D01*
X562824Y288760D01*
Y290360D01*
X562211Y291839D01*
X561079Y292971D01*
X559600Y293584D01*
D02*
G37*
G36*
X1053400Y292024D02*
X1051600D01*
X1049937Y291335D01*
X1048665Y290063D01*
X1047976Y288400D01*
Y286600D01*
X1048665Y284937D01*
X1049937Y283665D01*
X1051600Y282976D01*
X1053400D01*
X1055063Y283665D01*
X1056335Y284937D01*
X1057024Y286600D01*
Y288400D01*
X1056335Y290063D01*
X1055063Y291335D01*
X1053400Y292024D01*
D02*
G37*
G36*
X996403Y297620D02*
X994397D01*
X992459Y297101D01*
X990721Y296098D01*
X989303Y294679D01*
X988299Y292941D01*
X987780Y291003D01*
Y288997D01*
X988299Y287059D01*
X989303Y285321D01*
X990721Y283902D01*
X992459Y282899D01*
X994397Y282380D01*
X996403D01*
X998341Y282899D01*
X1000079Y283902D01*
X1001497Y285321D01*
X1002501Y287059D01*
X1003020Y288997D01*
Y291003D01*
X1002501Y292941D01*
X1001497Y294679D01*
X1000079Y296098D01*
X998341Y297101D01*
X996403Y297620D01*
D02*
G37*
G36*
X971003D02*
X968997D01*
X967059Y297101D01*
X965321Y296098D01*
X963903Y294679D01*
X962899Y292941D01*
X962380Y291003D01*
Y288997D01*
X962899Y287059D01*
X963903Y285321D01*
X965321Y283902D01*
X967059Y282899D01*
X968997Y282380D01*
X971003D01*
X972941Y282899D01*
X974679Y283902D01*
X976097Y285321D01*
X977101Y287059D01*
X977620Y288997D01*
Y291003D01*
X977101Y292941D01*
X976097Y294679D01*
X974679Y296098D01*
X972941Y297101D01*
X971003Y297620D01*
D02*
G37*
G36*
X1195900Y289524D02*
X1194100D01*
X1192437Y288835D01*
X1191165Y287563D01*
X1190476Y285900D01*
Y284100D01*
X1191165Y282437D01*
X1192437Y281165D01*
X1194100Y280476D01*
X1195900D01*
X1197563Y281165D01*
X1198835Y282437D01*
X1199524Y284100D01*
Y285900D01*
X1198835Y287563D01*
X1197563Y288835D01*
X1195900Y289524D01*
D02*
G37*
G36*
X1085900Y279524D02*
X1084100D01*
X1082437Y278835D01*
X1081165Y277563D01*
X1080476Y275900D01*
Y274100D01*
X1081165Y272437D01*
X1082437Y271165D01*
X1084100Y270476D01*
X1085900D01*
X1087563Y271165D01*
X1088835Y272437D01*
X1089524Y274100D01*
Y275900D01*
X1088835Y277563D01*
X1087563Y278835D01*
X1085900Y279524D01*
D02*
G37*
G36*
X1238400Y284158D02*
X1236600D01*
X1234937Y283469D01*
X1233665Y282196D01*
X1232976Y280533D01*
Y278734D01*
X1233665Y277071D01*
X1234937Y275798D01*
X1236124Y275307D01*
X1236165Y275100D01*
X1235476Y273437D01*
Y271637D01*
X1236165Y269974D01*
X1237437Y268702D01*
X1239100Y268013D01*
X1240900D01*
X1242563Y268702D01*
X1243835Y269974D01*
X1244305Y271108D01*
X1245680D01*
X1246165Y269937D01*
X1247437Y268665D01*
X1249100Y267976D01*
X1250900D01*
X1252563Y268665D01*
X1253835Y269937D01*
X1254524Y271600D01*
Y273400D01*
X1253835Y275063D01*
X1252563Y276335D01*
X1250900Y277024D01*
X1249100D01*
X1247437Y276335D01*
X1246165Y275063D01*
X1245695Y273929D01*
X1244320D01*
X1243835Y275100D01*
X1242563Y276372D01*
X1241376Y276864D01*
X1241335Y277071D01*
X1242024Y278734D01*
Y280533D01*
X1241335Y282196D01*
X1240063Y283469D01*
X1238400Y284158D01*
D02*
G37*
G36*
X1050900Y274524D02*
X1049100D01*
X1047437Y273835D01*
X1046165Y272563D01*
X1045476Y270900D01*
Y269100D01*
X1046165Y267437D01*
X1047437Y266165D01*
X1049100Y265476D01*
X1050900D01*
X1052563Y266165D01*
X1053835Y267437D01*
X1054524Y269100D01*
Y270900D01*
X1053835Y272563D01*
X1052563Y273835D01*
X1050900Y274524D01*
D02*
G37*
G36*
X443201Y267024D02*
X441401D01*
X439738Y266335D01*
X438466Y265063D01*
X437777Y263400D01*
Y261600D01*
X438466Y259937D01*
X439738Y258665D01*
X441401Y257976D01*
X443201D01*
X444864Y258665D01*
X446136Y259937D01*
X446825Y261600D01*
Y263400D01*
X446136Y265063D01*
X444864Y266335D01*
X443201Y267024D01*
D02*
G37*
G36*
X1228400Y263730D02*
X1226600D01*
X1224937Y263041D01*
X1223665Y261769D01*
X1222976Y260106D01*
Y258306D01*
X1223665Y256643D01*
X1224937Y255371D01*
X1226600Y254682D01*
X1228400D01*
X1230063Y255371D01*
X1231335Y256643D01*
X1232024Y258306D01*
Y260106D01*
X1231335Y261769D01*
X1230063Y263041D01*
X1228400Y263730D01*
D02*
G37*
G36*
X1205900D02*
X1204100D01*
X1202437Y263041D01*
X1201165Y261769D01*
X1200476Y260106D01*
Y258306D01*
X1201165Y256643D01*
X1202437Y255371D01*
X1204100Y254682D01*
X1205900D01*
X1207563Y255371D01*
X1208835Y256643D01*
X1209524Y258306D01*
Y260106D01*
X1208835Y261769D01*
X1207563Y263041D01*
X1205900Y263730D01*
D02*
G37*
G36*
X518400Y259524D02*
X516600D01*
X514937Y258835D01*
X513665Y257563D01*
X512976Y255900D01*
Y254100D01*
X513665Y252437D01*
X514937Y251165D01*
X516600Y250476D01*
X518400D01*
X520063Y251165D01*
X521335Y252437D01*
X522024Y254100D01*
Y255900D01*
X521335Y257563D01*
X520063Y258835D01*
X518400Y259524D01*
D02*
G37*
G36*
X1093400Y267024D02*
X1091600D01*
X1089937Y266335D01*
X1088665Y265063D01*
X1087976Y263400D01*
Y261600D01*
X1088665Y259937D01*
X1089937Y258665D01*
X1090745Y258330D01*
X1090832Y258294D01*
X1090580Y257024D01*
X1090436Y257024D01*
X1089100D01*
X1087437Y256335D01*
X1086165Y255063D01*
X1085476Y253400D01*
Y251600D01*
X1086165Y249937D01*
X1087437Y248665D01*
X1089100Y247976D01*
X1090900D01*
X1092563Y248665D01*
X1093835Y249937D01*
X1094524Y251600D01*
Y253400D01*
X1093835Y255063D01*
X1092563Y256335D01*
X1091755Y256670D01*
X1091668Y256706D01*
X1091920Y257976D01*
X1092064Y257976D01*
X1093400D01*
X1095063Y258665D01*
X1096335Y259937D01*
X1097024Y261600D01*
Y263400D01*
X1096335Y265063D01*
X1095063Y266335D01*
X1093400Y267024D01*
D02*
G37*
G36*
X335900Y257024D02*
X334100D01*
X332437Y256335D01*
X331165Y255063D01*
X330476Y253400D01*
Y251600D01*
X331165Y249937D01*
X332437Y248665D01*
X334100Y247976D01*
X335900D01*
X337563Y248665D01*
X338835Y249937D01*
X339524Y251600D01*
Y253400D01*
X338835Y255063D01*
X337563Y256335D01*
X335900Y257024D01*
D02*
G37*
G36*
X1497820Y255024D02*
X1495180D01*
X1492631Y254341D01*
X1490345Y253021D01*
X1488479Y251155D01*
X1487159Y248869D01*
X1486476Y246320D01*
Y243680D01*
X1487159Y241131D01*
X1488479Y238845D01*
X1490345Y236979D01*
X1492631Y235659D01*
X1495180Y234976D01*
X1497820D01*
X1500369Y235659D01*
X1502655Y236979D01*
X1504521Y238845D01*
X1505841Y241131D01*
X1506524Y243680D01*
Y246320D01*
X1505841Y248869D01*
X1504521Y251155D01*
X1502655Y253021D01*
X1500369Y254341D01*
X1497820Y255024D01*
D02*
G37*
G36*
X1472820D02*
X1470180D01*
X1467631Y254341D01*
X1465345Y253021D01*
X1463479Y251155D01*
X1462159Y248869D01*
X1461476Y246320D01*
Y243680D01*
X1462159Y241131D01*
X1463479Y238845D01*
X1465345Y236979D01*
X1467631Y235659D01*
X1470180Y234976D01*
X1472820D01*
X1475369Y235659D01*
X1477655Y236979D01*
X1479521Y238845D01*
X1480841Y241131D01*
X1481524Y243680D01*
Y246320D01*
X1480841Y248869D01*
X1479521Y251155D01*
X1477655Y253021D01*
X1475369Y254341D01*
X1472820Y255024D01*
D02*
G37*
G36*
X1447820D02*
X1445180D01*
X1442631Y254341D01*
X1440345Y253021D01*
X1438479Y251155D01*
X1437159Y248869D01*
X1436476Y246320D01*
Y243680D01*
X1437159Y241131D01*
X1438479Y238845D01*
X1440345Y236979D01*
X1442631Y235659D01*
X1445180Y234976D01*
X1447820D01*
X1450369Y235659D01*
X1452655Y236979D01*
X1454521Y238845D01*
X1455841Y241131D01*
X1456524Y243680D01*
Y246320D01*
X1455841Y248869D01*
X1454521Y251155D01*
X1452655Y253021D01*
X1450369Y254341D01*
X1447820Y255024D01*
D02*
G37*
G36*
X300900Y242024D02*
X299100D01*
X297437Y241335D01*
X296165Y240063D01*
X295476Y238400D01*
Y236600D01*
X296165Y234937D01*
X297437Y233665D01*
X299100Y232976D01*
X300900D01*
X302563Y233665D01*
X303835Y234937D01*
X304524Y236600D01*
Y238400D01*
X303835Y240063D01*
X302563Y241335D01*
X300900Y242024D01*
D02*
G37*
G36*
X275900D02*
X274100D01*
X272437Y241335D01*
X271165Y240063D01*
X270476Y238400D01*
Y236600D01*
X271165Y234937D01*
X272437Y233665D01*
X274100Y232976D01*
X275900D01*
X277563Y233665D01*
X278835Y234937D01*
X279524Y236600D01*
Y238400D01*
X278835Y240063D01*
X277563Y241335D01*
X275900Y242024D01*
D02*
G37*
G36*
X260900Y239524D02*
X259100D01*
X257437Y238835D01*
X256165Y237563D01*
X255476Y235900D01*
Y234100D01*
X256165Y232437D01*
X257437Y231165D01*
X259100Y230476D01*
X260900D01*
X262563Y231165D01*
X263835Y232437D01*
X264524Y234100D01*
Y235900D01*
X263835Y237563D01*
X262563Y238835D01*
X260900Y239524D01*
D02*
G37*
G36*
X426706Y238718D02*
X424906D01*
X423243Y238029D01*
X421971Y236757D01*
X421282Y235094D01*
Y233294D01*
X421971Y231631D01*
X423243Y230359D01*
X424906Y229670D01*
X426706D01*
X428369Y230359D01*
X429641Y231631D01*
X430330Y233294D01*
Y235094D01*
X429641Y236757D01*
X428369Y238029D01*
X426706Y238718D01*
D02*
G37*
G36*
X970900Y247072D02*
X969100D01*
X967437Y246383D01*
X966165Y245111D01*
X965476Y243448D01*
Y241648D01*
X966165Y239985D01*
X967364Y238786D01*
X966165Y237587D01*
X965476Y235924D01*
Y234124D01*
X966165Y232461D01*
X967364Y231262D01*
X966165Y230063D01*
X965476Y228400D01*
Y226600D01*
X966165Y224937D01*
X967437Y223665D01*
X969100Y222976D01*
X970900D01*
X972563Y223665D01*
X973835Y224937D01*
X974524Y226600D01*
Y228400D01*
X973835Y230063D01*
X972636Y231262D01*
X973835Y232461D01*
X974524Y234124D01*
Y235924D01*
X973835Y237587D01*
X972636Y238786D01*
X973835Y239985D01*
X974524Y241648D01*
Y243448D01*
X973835Y245111D01*
X972563Y246383D01*
X970900Y247072D01*
D02*
G37*
G36*
X395422Y224524D02*
X393622D01*
X391959Y223835D01*
X390760Y222636D01*
X389561Y223835D01*
X387898Y224524D01*
X386098D01*
X384435Y223835D01*
X383163Y222563D01*
X382474Y220900D01*
Y219100D01*
X383163Y217437D01*
X384435Y216165D01*
X386098Y215476D01*
X387898D01*
X389561Y216165D01*
X390760Y217364D01*
X391959Y216165D01*
X393622Y215476D01*
X395422D01*
X397085Y216165D01*
X398357Y217437D01*
X399046Y219100D01*
Y220900D01*
X398357Y222563D01*
X397085Y223835D01*
X395422Y224524D01*
D02*
G37*
G36*
X770800Y224024D02*
X769200D01*
X767721Y223411D01*
X766589Y222279D01*
X765976Y220800D01*
Y219200D01*
X766589Y217721D01*
X767721Y216589D01*
X769200Y215976D01*
X770800D01*
X772279Y216589D01*
X773411Y217721D01*
X774024Y219200D01*
Y220800D01*
X773411Y222279D01*
X772279Y223411D01*
X770800Y224024D01*
D02*
G37*
G36*
X760800D02*
X759200D01*
X757721Y223411D01*
X756589Y222279D01*
X755976Y220800D01*
Y219200D01*
X756589Y217721D01*
X757721Y216589D01*
X759200Y215976D01*
X760800D01*
X762279Y216589D01*
X763411Y217721D01*
X764024Y219200D01*
Y220800D01*
X763411Y222279D01*
X762279Y223411D01*
X760800Y224024D01*
D02*
G37*
G36*
X750800D02*
X749200D01*
X747721Y223411D01*
X746589Y222279D01*
X745976Y220800D01*
Y219200D01*
X746589Y217721D01*
X747721Y216589D01*
X749200Y215976D01*
X750800D01*
X752279Y216589D01*
X753411Y217721D01*
X754024Y219200D01*
Y220800D01*
X753411Y222279D01*
X752279Y223411D01*
X750800Y224024D01*
D02*
G37*
G36*
X740800D02*
X739200D01*
X737721Y223411D01*
X736589Y222279D01*
X735976Y220800D01*
Y219200D01*
X736589Y217721D01*
X737721Y216589D01*
X739200Y215976D01*
X740800D01*
X742279Y216589D01*
X743411Y217721D01*
X744024Y219200D01*
Y220800D01*
X743411Y222279D01*
X742279Y223411D01*
X740800Y224024D01*
D02*
G37*
G36*
X730800D02*
X729200D01*
X727721Y223411D01*
X726589Y222279D01*
X725976Y220800D01*
Y219200D01*
X726589Y217721D01*
X727721Y216589D01*
X729200Y215976D01*
X730800D01*
X732279Y216589D01*
X733411Y217721D01*
X734024Y219200D01*
Y220800D01*
X733411Y222279D01*
X732279Y223411D01*
X730800Y224024D01*
D02*
G37*
G36*
X720800D02*
X719200D01*
X717721Y223411D01*
X716589Y222279D01*
X715976Y220800D01*
Y219200D01*
X716589Y217721D01*
X717721Y216589D01*
X719200Y215976D01*
X720800D01*
X722279Y216589D01*
X723411Y217721D01*
X724024Y219200D01*
Y220800D01*
X723411Y222279D01*
X722279Y223411D01*
X720800Y224024D01*
D02*
G37*
G36*
X710800D02*
X709200D01*
X707721Y223411D01*
X706589Y222279D01*
X705976Y220800D01*
Y219200D01*
X706589Y217721D01*
X707721Y216589D01*
X709200Y215976D01*
X710800D01*
X712279Y216589D01*
X713411Y217721D01*
X714024Y219200D01*
Y220800D01*
X713411Y222279D01*
X712279Y223411D01*
X710800Y224024D01*
D02*
G37*
G36*
X528400Y222024D02*
X526600D01*
X524937Y221335D01*
X523665Y220063D01*
X522976Y218400D01*
Y216600D01*
X523665Y214937D01*
X524937Y213665D01*
X526600Y212976D01*
X528400D01*
X530063Y213665D01*
X531335Y214937D01*
X532024Y216600D01*
Y218400D01*
X531335Y220063D01*
X530063Y221335D01*
X528400Y222024D01*
D02*
G37*
G36*
X141825Y248524D02*
X138175D01*
X134597Y247812D01*
X131226Y246416D01*
X128192Y244389D01*
X125611Y241808D01*
X123584Y238774D01*
X122188Y235403D01*
X121476Y231824D01*
Y228176D01*
X122188Y224597D01*
X123584Y221226D01*
X125611Y218192D01*
X128192Y215611D01*
X131226Y213584D01*
X134597Y212188D01*
X138175Y211476D01*
X141825D01*
X145403Y212188D01*
X148774Y213584D01*
X151808Y215611D01*
X154389Y218192D01*
X156416Y221226D01*
X157812Y224597D01*
X158524Y228176D01*
Y231824D01*
X157812Y235403D01*
X156416Y238774D01*
X154389Y241808D01*
X151808Y244389D01*
X148774Y246416D01*
X145403Y247812D01*
X141825Y248524D01*
D02*
G37*
G36*
X337179Y219915D02*
X335379D01*
X333716Y219226D01*
X332444Y217954D01*
X331755Y216291D01*
Y214491D01*
X332444Y212828D01*
X333716Y211556D01*
X335379Y210867D01*
X337179D01*
X338842Y211556D01*
X340114Y212828D01*
X340803Y214491D01*
Y216291D01*
X340114Y217954D01*
X338842Y219226D01*
X337179Y219915D01*
D02*
G37*
G36*
X378400Y219524D02*
X376600D01*
X374937Y218835D01*
X373665Y217563D01*
X372976Y215900D01*
Y214100D01*
X373665Y212437D01*
X374937Y211165D01*
X376600Y210476D01*
X378400D01*
X380063Y211165D01*
X381335Y212437D01*
X382024Y214100D01*
Y215900D01*
X381335Y217563D01*
X380063Y218835D01*
X378400Y219524D01*
D02*
G37*
G36*
X770800Y214024D02*
X769200D01*
X767721Y213411D01*
X766589Y212279D01*
X765976Y210800D01*
Y209200D01*
X766589Y207721D01*
X767721Y206589D01*
X769200Y205976D01*
X770800D01*
X772279Y206589D01*
X773411Y207721D01*
X774024Y209200D01*
Y210800D01*
X773411Y212279D01*
X772279Y213411D01*
X770800Y214024D01*
D02*
G37*
G36*
X760800D02*
X759200D01*
X757721Y213411D01*
X756589Y212279D01*
X755976Y210800D01*
Y209200D01*
X756589Y207721D01*
X757721Y206589D01*
X759200Y205976D01*
X760800D01*
X762279Y206589D01*
X763411Y207721D01*
X764024Y209200D01*
Y210800D01*
X763411Y212279D01*
X762279Y213411D01*
X760800Y214024D01*
D02*
G37*
G36*
X750800D02*
X749200D01*
X747721Y213411D01*
X746589Y212279D01*
X745976Y210800D01*
Y209200D01*
X746589Y207721D01*
X747721Y206589D01*
X749200Y205976D01*
X750800D01*
X752279Y206589D01*
X753411Y207721D01*
X754024Y209200D01*
Y210800D01*
X753411Y212279D01*
X752279Y213411D01*
X750800Y214024D01*
D02*
G37*
G36*
X740800D02*
X739200D01*
X737721Y213411D01*
X736589Y212279D01*
X735976Y210800D01*
Y209200D01*
X736589Y207721D01*
X737721Y206589D01*
X739200Y205976D01*
X740800D01*
X742279Y206589D01*
X743411Y207721D01*
X744024Y209200D01*
Y210800D01*
X743411Y212279D01*
X742279Y213411D01*
X740800Y214024D01*
D02*
G37*
G36*
X730800D02*
X729200D01*
X727721Y213411D01*
X726589Y212279D01*
X725976Y210800D01*
Y209200D01*
X726589Y207721D01*
X727721Y206589D01*
X729200Y205976D01*
X730800D01*
X732279Y206589D01*
X733411Y207721D01*
X734024Y209200D01*
Y210800D01*
X733411Y212279D01*
X732279Y213411D01*
X730800Y214024D01*
D02*
G37*
G36*
X720800D02*
X719200D01*
X717721Y213411D01*
X716589Y212279D01*
X715976Y210800D01*
Y209200D01*
X716589Y207721D01*
X717721Y206589D01*
X719200Y205976D01*
X720800D01*
X722279Y206589D01*
X723411Y207721D01*
X724024Y209200D01*
Y210800D01*
X723411Y212279D01*
X722279Y213411D01*
X720800Y214024D01*
D02*
G37*
G36*
X710800D02*
X709200D01*
X707721Y213411D01*
X706589Y212279D01*
X705976Y210800D01*
Y209200D01*
X706589Y207721D01*
X707721Y206589D01*
X709200Y205976D01*
X710800D01*
X712279Y206589D01*
X713411Y207721D01*
X714024Y209200D01*
Y210800D01*
X713411Y212279D01*
X712279Y213411D01*
X710800Y214024D01*
D02*
G37*
G36*
X1090900Y199524D02*
X1089100D01*
X1087437Y198835D01*
X1086250Y197648D01*
X1085063Y198835D01*
X1083400Y199524D01*
X1081600D01*
X1079937Y198835D01*
X1078665Y197563D01*
X1078187Y196410D01*
X1076813D01*
X1076335Y197563D01*
X1075063Y198835D01*
X1073400Y199524D01*
X1071600D01*
X1069937Y198835D01*
X1068665Y197563D01*
X1067976Y195900D01*
Y194100D01*
X1068665Y192437D01*
X1069937Y191165D01*
X1071600Y190476D01*
X1073400D01*
X1075063Y191165D01*
X1076335Y192437D01*
X1076813Y193590D01*
X1078187D01*
X1078665Y192437D01*
X1079937Y191165D01*
X1081600Y190476D01*
X1083400D01*
X1085063Y191165D01*
X1086250Y192352D01*
X1087437Y191165D01*
X1089100Y190476D01*
X1090900D01*
X1092563Y191165D01*
X1093835Y192437D01*
X1094524Y194100D01*
Y195900D01*
X1093835Y197563D01*
X1092563Y198835D01*
X1090900Y199524D01*
D02*
G37*
G36*
X770800Y204024D02*
X769200D01*
X767721Y203411D01*
X766589Y202279D01*
X765976Y200800D01*
Y199200D01*
X766589Y197721D01*
X767721Y196589D01*
X769200Y195976D01*
X770800D01*
X772279Y196589D01*
X773411Y197721D01*
X774024Y199200D01*
Y200800D01*
X773411Y202279D01*
X772279Y203411D01*
X770800Y204024D01*
D02*
G37*
G36*
X760800D02*
X759200D01*
X757721Y203411D01*
X756589Y202279D01*
X755976Y200800D01*
Y199200D01*
X756589Y197721D01*
X757721Y196589D01*
X759200Y195976D01*
X760800D01*
X762279Y196589D01*
X763411Y197721D01*
X764024Y199200D01*
Y200800D01*
X763411Y202279D01*
X762279Y203411D01*
X760800Y204024D01*
D02*
G37*
G36*
X750800D02*
X749200D01*
X747721Y203411D01*
X746589Y202279D01*
X745976Y200800D01*
Y199200D01*
X746589Y197721D01*
X747721Y196589D01*
X749200Y195976D01*
X750800D01*
X752279Y196589D01*
X753411Y197721D01*
X754024Y199200D01*
Y200800D01*
X753411Y202279D01*
X752279Y203411D01*
X750800Y204024D01*
D02*
G37*
G36*
X740800D02*
X739200D01*
X737721Y203411D01*
X736589Y202279D01*
X735976Y200800D01*
Y199200D01*
X736589Y197721D01*
X737721Y196589D01*
X739200Y195976D01*
X740800D01*
X742279Y196589D01*
X743411Y197721D01*
X744024Y199200D01*
Y200800D01*
X743411Y202279D01*
X742279Y203411D01*
X740800Y204024D01*
D02*
G37*
G36*
X730800D02*
X729200D01*
X727721Y203411D01*
X726589Y202279D01*
X725976Y200800D01*
Y199200D01*
X726589Y197721D01*
X727721Y196589D01*
X729200Y195976D01*
X730800D01*
X732279Y196589D01*
X733411Y197721D01*
X734024Y199200D01*
Y200800D01*
X733411Y202279D01*
X732279Y203411D01*
X730800Y204024D01*
D02*
G37*
G36*
X720800D02*
X719200D01*
X717721Y203411D01*
X716589Y202279D01*
X715976Y200800D01*
Y199200D01*
X716589Y197721D01*
X717721Y196589D01*
X719200Y195976D01*
X720800D01*
X722279Y196589D01*
X723411Y197721D01*
X724024Y199200D01*
Y200800D01*
X723411Y202279D01*
X722279Y203411D01*
X720800Y204024D01*
D02*
G37*
G36*
X710800D02*
X709200D01*
X707721Y203411D01*
X706589Y202279D01*
X705976Y200800D01*
Y199200D01*
X706589Y197721D01*
X707721Y196589D01*
X709200Y195976D01*
X710800D01*
X712279Y196589D01*
X713411Y197721D01*
X714024Y199200D01*
Y200800D01*
X713411Y202279D01*
X712279Y203411D01*
X710800Y204024D01*
D02*
G37*
G36*
X1123400Y197024D02*
X1121600D01*
X1119937Y196335D01*
X1118665Y195063D01*
X1117976Y193400D01*
Y191600D01*
X1118665Y189937D01*
X1119937Y188665D01*
X1121600Y187976D01*
X1123400D01*
X1125063Y188665D01*
X1126335Y189937D01*
X1127024Y191600D01*
Y193400D01*
X1126335Y195063D01*
X1125063Y196335D01*
X1123400Y197024D01*
D02*
G37*
G36*
X905370Y180053D02*
X903571D01*
X901908Y179365D01*
X900635Y178092D01*
X899947Y176429D01*
Y174629D01*
X900635Y172967D01*
X901908Y171694D01*
X903571Y171005D01*
X905370D01*
X907033Y171694D01*
X908306Y172967D01*
X908995Y174629D01*
Y176429D01*
X908306Y178092D01*
X907033Y179365D01*
X905370Y180053D01*
D02*
G37*
G36*
X398400Y179524D02*
X396600D01*
X394937Y178835D01*
X393665Y177563D01*
X392976Y175900D01*
Y174100D01*
X393665Y172437D01*
X394937Y171165D01*
X396600Y170476D01*
X398400D01*
X400063Y171165D01*
X401335Y172437D01*
X402024Y174100D01*
Y175900D01*
X401335Y177563D01*
X400063Y178835D01*
X398400Y179524D01*
D02*
G37*
G36*
X385900D02*
X384100D01*
X382437Y178835D01*
X381165Y177563D01*
X380476Y175900D01*
Y174100D01*
X381165Y172437D01*
X382437Y171165D01*
X384100Y170476D01*
X385900D01*
X387563Y171165D01*
X388835Y172437D01*
X389524Y174100D01*
Y175900D01*
X388835Y177563D01*
X387563Y178835D01*
X385900Y179524D01*
D02*
G37*
G36*
X490900Y174524D02*
X489100D01*
X487437Y173835D01*
X486165Y172563D01*
X485476Y170900D01*
Y169100D01*
X486165Y167437D01*
X487437Y166165D01*
X489100Y165476D01*
X490900D01*
X492563Y166165D01*
X493835Y167437D01*
X494524Y169100D01*
Y170900D01*
X493835Y172563D01*
X492563Y173835D01*
X490900Y174524D01*
D02*
G37*
G36*
X895900Y164524D02*
X894100D01*
X892437Y163835D01*
X891165Y162563D01*
X890476Y160900D01*
Y159100D01*
X891165Y157437D01*
X892437Y156165D01*
X894100Y155476D01*
X895900D01*
X897563Y156165D01*
X898835Y157437D01*
X899524Y159100D01*
Y160900D01*
X898835Y162563D01*
X897563Y163835D01*
X895900Y164524D01*
D02*
G37*
G36*
X843400Y174524D02*
X841600D01*
X839937Y173835D01*
X838665Y172563D01*
X837976Y170900D01*
Y169100D01*
X838665Y167437D01*
X839937Y166165D01*
X841600Y165476D01*
X842936D01*
X843080Y165476D01*
X843332Y164206D01*
X843246Y164170D01*
X842437Y163835D01*
X841165Y162563D01*
X840476Y160900D01*
Y159100D01*
X841165Y157437D01*
X842437Y156165D01*
X844100Y155476D01*
X845900D01*
X847563Y156165D01*
X848835Y157437D01*
X849524Y159100D01*
Y160900D01*
X848835Y162563D01*
X847563Y163835D01*
X845900Y164524D01*
X844564D01*
X844420Y164524D01*
X844168Y165794D01*
X844254Y165830D01*
X845063Y166165D01*
X846335Y167437D01*
X847024Y169100D01*
Y170900D01*
X846335Y172563D01*
X845063Y173835D01*
X843400Y174524D01*
D02*
G37*
G36*
X618400Y162024D02*
X616600D01*
X614937Y161335D01*
X613665Y160063D01*
X612976Y158400D01*
Y156600D01*
X613665Y154937D01*
X614937Y153665D01*
X616600Y152976D01*
X618400D01*
X620063Y153665D01*
X621335Y154937D01*
X622024Y156600D01*
Y158400D01*
X621335Y160063D01*
X620063Y161335D01*
X618400Y162024D01*
D02*
G37*
G36*
X671824Y188524D02*
X668176D01*
X664597Y187812D01*
X661226Y186416D01*
X658192Y184389D01*
X655611Y181808D01*
X653584Y178774D01*
X652188Y175403D01*
X651476Y171824D01*
Y168176D01*
X652188Y164597D01*
X653584Y161226D01*
X655611Y158192D01*
X658192Y155611D01*
X661226Y153584D01*
X664597Y152188D01*
X668176Y151476D01*
X671824D01*
X675403Y152188D01*
X678774Y153584D01*
X681808Y155611D01*
X684389Y158192D01*
X686416Y161226D01*
X687812Y164597D01*
X688524Y168176D01*
Y171824D01*
X687812Y175403D01*
X686416Y178774D01*
X684389Y181808D01*
X681808Y184389D01*
X678774Y186416D01*
X675403Y187812D01*
X671824Y188524D01*
D02*
G37*
G36*
X333400Y157024D02*
X331600D01*
X329937Y156335D01*
X328665Y155063D01*
X327976Y153400D01*
Y151600D01*
X328665Y149937D01*
X329937Y148665D01*
X331600Y147976D01*
X333400D01*
X335063Y148665D01*
X336335Y149937D01*
X337024Y151600D01*
Y153400D01*
X336335Y155063D01*
X335063Y156335D01*
X333400Y157024D01*
D02*
G37*
G36*
X541351Y172124D02*
X538049D01*
X534810Y171480D01*
X531759Y170216D01*
X529014Y168381D01*
X526679Y166046D01*
X524844Y163301D01*
X523580Y160250D01*
X522936Y157011D01*
Y153709D01*
X523580Y150470D01*
X524844Y147419D01*
X526679Y144674D01*
X529014Y142339D01*
X531759Y140504D01*
X534810Y139240D01*
X538049Y138596D01*
X541351D01*
X544590Y139240D01*
X547641Y140504D01*
X550386Y142339D01*
X552721Y144674D01*
X554556Y147419D01*
X555820Y150470D01*
X556464Y153709D01*
Y157011D01*
X555820Y160250D01*
X554556Y163301D01*
X552721Y166046D01*
X550386Y168381D01*
X547641Y170216D01*
X544590Y171480D01*
X541351Y172124D01*
D02*
G37*
G36*
X236551D02*
X233249D01*
X230010Y171480D01*
X226959Y170216D01*
X224214Y168381D01*
X221879Y166046D01*
X220044Y163301D01*
X218780Y160250D01*
X218136Y157011D01*
Y153709D01*
X218780Y150470D01*
X220044Y147419D01*
X221879Y144674D01*
X224214Y142339D01*
X226959Y140504D01*
X230010Y139240D01*
X233249Y138596D01*
X236551D01*
X239790Y139240D01*
X242841Y140504D01*
X245586Y142339D01*
X247921Y144674D01*
X249756Y147419D01*
X251020Y150470D01*
X251664Y153709D01*
Y157011D01*
X251020Y160250D01*
X249756Y163301D01*
X247921Y166046D01*
X245586Y168381D01*
X242841Y170216D01*
X239790Y171480D01*
X236551Y172124D01*
D02*
G37*
G36*
X600900Y147024D02*
X599100D01*
X597437Y146335D01*
X596165Y145063D01*
X595476Y143400D01*
Y141600D01*
X596165Y139937D01*
X597437Y138665D01*
X599100Y137976D01*
X600900D01*
X602563Y138665D01*
X603835Y139937D01*
X604524Y141600D01*
Y143400D01*
X603835Y145063D01*
X602563Y146335D01*
X600900Y147024D01*
D02*
G37*
G36*
X780900Y144524D02*
X779100D01*
X777437Y143835D01*
X776165Y142563D01*
X775476Y140900D01*
Y139100D01*
X776165Y137437D01*
X777437Y136165D01*
X779100Y135476D01*
X780900D01*
X782563Y136165D01*
X783835Y137437D01*
X784524Y139100D01*
Y140900D01*
X783835Y142563D01*
X782563Y143835D01*
X780900Y144524D01*
D02*
G37*
G36*
X310900D02*
X309100D01*
X307437Y143835D01*
X306165Y142563D01*
X305476Y140900D01*
Y139100D01*
X306165Y137437D01*
X307437Y136165D01*
X309100Y135476D01*
X310900D01*
X312563Y136165D01*
X313835Y137437D01*
X314524Y139100D01*
Y140900D01*
X313835Y142563D01*
X312563Y143835D01*
X310900Y144524D01*
D02*
G37*
G36*
X155900D02*
X154100D01*
X152437Y143835D01*
X151165Y142563D01*
X150476Y140900D01*
Y139100D01*
X151165Y137437D01*
X152437Y136165D01*
X154100Y135476D01*
X155900D01*
X157563Y136165D01*
X158835Y137437D01*
X159524Y139100D01*
Y140900D01*
X158835Y142563D01*
X157563Y143835D01*
X155900Y144524D01*
D02*
G37*
G36*
X440900Y142024D02*
X439100D01*
X437437Y141335D01*
X436165Y140063D01*
X435476Y138400D01*
Y136600D01*
X436165Y134937D01*
X437437Y133665D01*
X439100Y132976D01*
X440900D01*
X442563Y133665D01*
X443835Y134937D01*
X444524Y136600D01*
Y138400D01*
X443835Y140063D01*
X442563Y141335D01*
X440900Y142024D01*
D02*
G37*
G36*
X1170800Y149024D02*
X1169200D01*
X1167721Y148411D01*
X1166589Y147279D01*
X1165976Y145800D01*
Y144200D01*
X1166589Y142721D01*
X1166809Y142500D01*
X1166589Y142279D01*
X1165976Y140800D01*
Y139200D01*
X1166589Y137721D01*
X1166809Y137500D01*
X1166589Y137279D01*
X1165976Y135800D01*
Y134200D01*
X1166589Y132721D01*
X1167721Y131589D01*
X1169200Y130976D01*
X1170800D01*
X1172279Y131589D01*
X1173411Y132721D01*
X1174024Y134200D01*
Y135800D01*
X1173411Y137279D01*
X1173191Y137500D01*
X1173411Y137721D01*
X1174024Y139200D01*
Y140800D01*
X1173411Y142279D01*
X1173191Y142500D01*
X1173411Y142721D01*
X1174024Y144200D01*
Y145800D01*
X1173411Y147279D01*
X1172279Y148411D01*
X1170800Y149024D01*
D02*
G37*
G36*
X468400Y132024D02*
X466600D01*
X464937Y131335D01*
X463665Y130063D01*
X462976Y128400D01*
Y126600D01*
X463665Y124937D01*
X464937Y123665D01*
X466600Y122976D01*
X468400D01*
X470063Y123665D01*
X471335Y124937D01*
X472024Y126600D01*
Y128400D01*
X471335Y130063D01*
X470063Y131335D01*
X468400Y132024D01*
D02*
G37*
G36*
X910900Y124524D02*
X909100D01*
X907437Y123835D01*
X906165Y122563D01*
X905476Y120900D01*
Y119100D01*
X906165Y117437D01*
X907437Y116165D01*
X909100Y115476D01*
X910900D01*
X912563Y116165D01*
X913835Y117437D01*
X914524Y119100D01*
Y120900D01*
X913835Y122563D01*
X912563Y123835D01*
X910900Y124524D01*
D02*
G37*
G36*
X898400D02*
X896600D01*
X894937Y123835D01*
X893665Y122563D01*
X892976Y120900D01*
Y119100D01*
X893665Y117437D01*
X894937Y116165D01*
X896600Y115476D01*
X898400D01*
X900063Y116165D01*
X901335Y117437D01*
X902024Y119100D01*
Y120900D01*
X901335Y122563D01*
X900063Y123835D01*
X898400Y124524D01*
D02*
G37*
G36*
X705900D02*
X704100D01*
X702437Y123835D01*
X701165Y122563D01*
X700476Y120900D01*
Y119100D01*
X701165Y117437D01*
X702437Y116165D01*
X704100Y115476D01*
X705900D01*
X707563Y116165D01*
X708835Y117437D01*
X709524Y119100D01*
Y120900D01*
X708835Y122563D01*
X707563Y123835D01*
X705900Y124524D01*
D02*
G37*
G36*
X390900Y112024D02*
X389100D01*
X387437Y111335D01*
X386165Y110063D01*
X385476Y108400D01*
Y106600D01*
X386165Y104937D01*
X387437Y103665D01*
X389100Y102976D01*
X390900D01*
X392563Y103665D01*
X393835Y104937D01*
X394524Y106600D01*
Y108400D01*
X393835Y110063D01*
X392563Y111335D01*
X390900Y112024D01*
D02*
G37*
%LPD*%
D11*
X110000Y180000D02*
Y190000D01*
X90000Y160000D02*
X110000Y180000D01*
D74*
X89650Y327500D02*
D03*
Y297500D02*
D03*
Y267500D02*
D03*
X59650Y327500D02*
D03*
Y297500D02*
D03*
X60000Y160000D02*
D03*
Y190000D02*
D03*
X90000Y130000D02*
D03*
Y160000D02*
D03*
Y190000D02*
D03*
D75*
X59650Y267500D02*
D03*
X60000Y130000D02*
D03*
D76*
X16450Y297500D02*
D03*
X16800Y160000D02*
D03*
D90*
X1449200Y185400D02*
D03*
X1474600D02*
D03*
X1500000D02*
D03*
Y134600D02*
D03*
X1474600D02*
D03*
X1449200D02*
D03*
X1398400Y185400D02*
D03*
D91*
Y134600D02*
D03*
D100*
X1518000Y320000D02*
D03*
X1425000D02*
D03*
D101*
X1496500Y390000D02*
D03*
X1446500D02*
D03*
Y245000D02*
D03*
X1496500D02*
D03*
X1471500D02*
D03*
D102*
X105000Y415000D02*
D03*
D103*
X45000D02*
D03*
D104*
X75000Y368000D02*
D03*
D105*
X1582860Y246940D02*
D03*
Y304740D02*
D03*
D106*
X1619660Y319040D02*
D03*
Y232640D02*
D03*
D107*
X1577860Y319040D02*
D03*
Y232640D02*
D03*
D108*
X349200Y450000D02*
D03*
D109*
X374600D02*
D03*
X400000D02*
D03*
X425400D02*
D03*
D110*
X970000Y380000D02*
D03*
X995400D02*
D03*
X970000Y290000D02*
D03*
X995400D02*
D03*
D112*
X1483800Y60000D02*
D03*
X1521900D02*
D03*
X1560000D02*
D03*
X1383800D02*
D03*
X1421900D02*
D03*
X1083800D02*
D03*
X1121900D02*
D03*
X1183800D02*
D03*
X1221900D02*
D03*
X1283800D02*
D03*
X1321900D02*
D03*
X593800D02*
D03*
X631900D02*
D03*
X670000D02*
D03*
X153800D02*
D03*
X191900D02*
D03*
X230000D02*
D03*
X313800D02*
D03*
X351900D02*
D03*
X390000D02*
D03*
X453800D02*
D03*
X491900D02*
D03*
X530000D02*
D03*
X951900D02*
D03*
X990000D02*
D03*
X851900D02*
D03*
X890000D02*
D03*
X751900D02*
D03*
X790000D02*
D03*
D113*
X110000Y190000D02*
D03*
X347500Y390000D02*
D03*
X442301Y262500D02*
D03*
X425806Y234194D02*
D03*
X1197699Y320000D02*
D03*
X1182500Y412500D02*
D03*
X1160000Y330000D02*
D03*
Y320000D02*
D03*
Y345000D02*
D03*
X942500Y397500D02*
D03*
X1072500Y395283D02*
D03*
X1557500Y385000D02*
D03*
X1593871Y341371D02*
D03*
X1595000Y375000D02*
D03*
X1610000D02*
D03*
X1322500Y332500D02*
D03*
X1542500Y357500D02*
D03*
X390000Y107500D02*
D03*
X440000Y137500D02*
D03*
X467500Y127500D02*
D03*
X490000Y170000D02*
D03*
X310000Y140000D02*
D03*
X332500Y152500D02*
D03*
X617500Y157500D02*
D03*
X600000Y142500D02*
D03*
X155000Y140000D02*
D03*
X705000Y120000D02*
D03*
X780000Y140000D02*
D03*
X336279Y215391D02*
D03*
X300000Y237500D02*
D03*
X377500Y215000D02*
D03*
X527500Y217500D02*
D03*
X386998Y220000D02*
D03*
X394522D02*
D03*
X275000Y237500D02*
D03*
X260000Y235000D02*
D03*
X335000Y252500D02*
D03*
X385000Y175000D02*
D03*
X397500D02*
D03*
X517500Y255000D02*
D03*
X420000Y330000D02*
D03*
X302500Y322500D02*
D03*
X260000D02*
D03*
X1160000Y312000D02*
D03*
X1240000Y272537D02*
D03*
X1090000Y252500D02*
D03*
X1237500Y279634D02*
D03*
X1092500Y262500D02*
D03*
X904471Y175529D02*
D03*
X1250000Y272500D02*
D03*
X1227500Y259206D02*
D03*
X1205000D02*
D03*
X1062500Y260000D02*
D03*
X1195000Y285000D02*
D03*
X1230000Y315000D02*
D03*
X1287500Y301706D02*
D03*
X1070000Y385000D02*
D03*
X1170000Y302500D02*
D03*
X942500Y307500D02*
D03*
X1052500Y287500D02*
D03*
X1050000Y270000D02*
D03*
X1085000Y275000D02*
D03*
X1220000Y287500D02*
D03*
X1212500Y302500D02*
D03*
X1457500Y220000D02*
D03*
X1140000Y335000D02*
D03*
X1342500Y315000D02*
D03*
X1132500Y427500D02*
D03*
X1584240Y293560D02*
D03*
Y265620D02*
D03*
X842500Y170000D02*
D03*
X845000Y160000D02*
D03*
X910000Y120000D02*
D03*
X897500D02*
D03*
X895000Y160000D02*
D03*
X970000Y242548D02*
D03*
Y235024D02*
D03*
Y227500D02*
D03*
X1072500Y195000D02*
D03*
X1082500D02*
D03*
X1090000D02*
D03*
X1122500Y192500D02*
D03*
X1160000Y417500D02*
D03*
X1300000Y330000D02*
D03*
X1327500Y390000D02*
D03*
D114*
X775000Y360301D02*
D03*
X765000D02*
D03*
X619760Y289560D02*
D03*
X576580D02*
D03*
X635000D02*
D03*
X586740D02*
D03*
X594360D02*
D03*
X609600D02*
D03*
X642620D02*
D03*
X601980D02*
D03*
X627380D02*
D03*
X1102500Y350000D02*
D03*
X1160000Y430000D02*
D03*
X1210000Y420000D02*
D03*
X710000Y220000D02*
D03*
X720000D02*
D03*
X770000Y200000D02*
D03*
X750000Y210000D02*
D03*
X760000D02*
D03*
X770000D02*
D03*
X750000Y200000D02*
D03*
X760000D02*
D03*
X770000Y220000D02*
D03*
X740000D02*
D03*
X750000D02*
D03*
X730000D02*
D03*
X760000D02*
D03*
X775000Y355000D02*
D03*
Y345000D02*
D03*
Y335000D02*
D03*
X795000Y345000D02*
D03*
Y335000D02*
D03*
X775000Y325000D02*
D03*
Y315000D02*
D03*
Y305000D02*
D03*
X730000Y210000D02*
D03*
X740000D02*
D03*
X710000Y200000D02*
D03*
X720000D02*
D03*
X730000D02*
D03*
X740000D02*
D03*
X720000Y210000D02*
D03*
X710000D02*
D03*
X558800Y289560D02*
D03*
X568960Y271780D02*
D03*
Y276860D02*
D03*
Y281940D02*
D03*
Y287020D02*
D03*
X574040Y302260D02*
D03*
X650000Y360000D02*
D03*
X620000D02*
D03*
X630000D02*
D03*
X640000D02*
D03*
X650000Y350000D02*
D03*
X610000D02*
D03*
X520000D02*
D03*
X530000D02*
D03*
X540000D02*
D03*
X550000D02*
D03*
X560000D02*
D03*
X570000D02*
D03*
X580000D02*
D03*
X590000D02*
D03*
X600000D02*
D03*
X620000D02*
D03*
X630000D02*
D03*
X640000D02*
D03*
X520000Y360000D02*
D03*
X530000D02*
D03*
X540000D02*
D03*
X550000D02*
D03*
X560000D02*
D03*
X570000D02*
D03*
X580000D02*
D03*
X610000D02*
D03*
X590000D02*
D03*
X600000D02*
D03*
X765000Y355000D02*
D03*
Y345000D02*
D03*
Y335000D02*
D03*
Y325000D02*
D03*
Y315000D02*
D03*
Y305000D02*
D03*
X902500Y195000D02*
D03*
X802500Y120000D02*
D03*
X895000Y195000D02*
D03*
X887500D02*
D03*
X1170000Y145000D02*
D03*
Y140000D02*
D03*
Y135000D02*
D03*
X1102500Y360000D02*
D03*
Y355000D02*
D03*
Y365000D02*
D03*
Y415000D02*
D03*
Y420000D02*
D03*
Y425000D02*
D03*
Y430000D02*
D03*
X865000Y345000D02*
D03*
X855000D02*
D03*
X845000D02*
D03*
X835000D02*
D03*
X825000D02*
D03*
X815000D02*
D03*
X805000D02*
D03*
X865000Y335000D02*
D03*
X855000D02*
D03*
X845000D02*
D03*
X835000D02*
D03*
X825000D02*
D03*
X815000D02*
D03*
X805000D02*
D03*
X1300000Y430000D02*
D03*
X1275000Y420000D02*
D03*
X1242500D02*
D03*
X1182500D02*
D03*
X1250000Y360500D02*
D03*
X1230250D02*
D03*
X1210500D02*
D03*
Y380250D02*
D03*
X1230250D02*
D03*
X1250000D02*
D03*
Y400000D02*
D03*
X1230250D02*
D03*
X1210500D02*
D03*
X1050000Y47500D02*
D03*
Y40000D02*
D03*
Y32500D02*
D03*
M02*
