G04*
G04 #@! TF.GenerationSoftware,Altium Limited,Altium Designer,24.6.1 (21)*
G04*
G04 Layer_Physical_Order=2*
G04 Layer_Color=36540*
%FSLAX44Y44*%
%MOMM*%
G71*
G04*
G04 #@! TF.SameCoordinates,64C5F76F-1C6F-49FF-9375-2133E5E19FDB*
G04*
G04*
G04 #@! TF.FilePolarity,Positive*
G04*
G01*
G75*
%ADD74C,1.5700*%
%ADD75R,1.5700X1.5700*%
%ADD76C,3.0000*%
%ADD90C,1.5500*%
%ADD91R,1.5500X1.5500*%
%ADD100C,5.0000*%
%ADD101C,1.7000*%
%ADD102R,1.5000X4.0000*%
%ADD103R,1.5000X3.5000*%
%ADD104R,3.5000X1.5000*%
%ADD105C,0.6500*%
%ADD106O,1.8000X0.9000*%
%ADD107O,2.1000X1.0500*%
%ADD108R,1.5240X1.5240*%
%ADD109C,1.5240*%
%ADD110C,1.2192*%
%ADD112C,1.8000*%
%ADD113C,0.6000*%
%ADD114C,0.5000*%
G36*
X575000Y492314D02*
Y435000D01*
X651107D01*
X651912Y434018D01*
X651476Y431824D01*
Y428176D01*
X652188Y424597D01*
X653584Y421226D01*
X655611Y418192D01*
X658192Y415611D01*
X661226Y413584D01*
X664597Y412188D01*
X668176Y411476D01*
X671824D01*
X675403Y412188D01*
X678774Y413584D01*
X681808Y415611D01*
X684389Y418192D01*
X686416Y421226D01*
X687812Y424597D01*
X688524Y428176D01*
Y431824D01*
X688088Y434018D01*
X688893Y435000D01*
X1100737D01*
X1100990Y433730D01*
X1100221Y433411D01*
X1099089Y432279D01*
X1098476Y430800D01*
Y429200D01*
X1099089Y427721D01*
X1099309Y427500D01*
X1099089Y427279D01*
X1098476Y425800D01*
Y424200D01*
X1099089Y422721D01*
X1099309Y422500D01*
X1099089Y422279D01*
X1098476Y420800D01*
Y419200D01*
X1099089Y417721D01*
X1099309Y417500D01*
X1099089Y417279D01*
X1098476Y415800D01*
Y414200D01*
X1099089Y412721D01*
X1100221Y411589D01*
X1101700Y410976D01*
X1103300D01*
X1104779Y411589D01*
X1105911Y412721D01*
X1106524Y414200D01*
Y415800D01*
X1105911Y417279D01*
X1105691Y417500D01*
X1105911Y417721D01*
X1106524Y419200D01*
Y420800D01*
X1105911Y422279D01*
X1105691Y422500D01*
X1105911Y422721D01*
X1106524Y424200D01*
Y425800D01*
X1105911Y427279D01*
X1105691Y427500D01*
X1105911Y427721D01*
X1106524Y429200D01*
Y430800D01*
X1105911Y432279D01*
X1104779Y433411D01*
X1104010Y433730D01*
X1104263Y435000D01*
X1163285D01*
X1164250Y434600D01*
X1296250D01*
X1297215Y435000D01*
X1622314D01*
Y326141D01*
X1615160D01*
X1613322Y325899D01*
X1611610Y325189D01*
X1610139Y324061D01*
X1609011Y322590D01*
X1608855Y322215D01*
X1619660D01*
Y315865D01*
X1608855D01*
X1609011Y315490D01*
X1610139Y314019D01*
X1611610Y312891D01*
X1613322Y312181D01*
X1615160Y311939D01*
X1622314D01*
X1622314Y239741D01*
X1615160D01*
X1613322Y239499D01*
X1611610Y238789D01*
X1610139Y237661D01*
X1609011Y236190D01*
X1608855Y235815D01*
X1619660D01*
Y229465D01*
X1608855D01*
X1609011Y229090D01*
X1610139Y227619D01*
X1611610Y226491D01*
X1613322Y225781D01*
X1615160Y225539D01*
X1622314D01*
Y30000D01*
Y28537D01*
X1621933Y25637D01*
X1621176Y22812D01*
X1620056Y20109D01*
X1618593Y17576D01*
X1616813Y15256D01*
X1614744Y13187D01*
X1612424Y11407D01*
X1609890Y9944D01*
X1607188Y8824D01*
X1604363Y8067D01*
X1601463Y7686D01*
X1600000Y7686D01*
X30000Y7686D01*
X28537D01*
X25637Y8067D01*
X22812Y8824D01*
X20109Y9944D01*
X17576Y11407D01*
X15256Y13187D01*
X13187Y15256D01*
X11407Y17576D01*
X9944Y20110D01*
X8824Y22812D01*
X8067Y25637D01*
X7686Y28537D01*
X7686Y30000D01*
Y144870D01*
X8806Y145468D01*
X8973Y145357D01*
X11980Y144111D01*
X15172Y143476D01*
X18427D01*
X21620Y144111D01*
X24627Y145357D01*
X27333Y147165D01*
X29635Y149467D01*
X31443Y152173D01*
X32689Y155180D01*
X33324Y158372D01*
Y161628D01*
X32689Y164820D01*
X31443Y167827D01*
X29635Y170533D01*
X27333Y172835D01*
X24627Y174643D01*
X21620Y175889D01*
X18427Y176524D01*
X15172D01*
X11980Y175889D01*
X8973Y174643D01*
X8806Y174532D01*
X7686Y175130D01*
Y282135D01*
X8956Y282719D01*
X11630Y281611D01*
X14822Y280976D01*
X18077D01*
X21270Y281611D01*
X24277Y282857D01*
X26983Y284665D01*
X29285Y286967D01*
X31093Y289673D01*
X32339Y292680D01*
X32974Y295872D01*
Y299128D01*
X32339Y302320D01*
X31093Y305327D01*
X29285Y308033D01*
X26983Y310335D01*
X24277Y312143D01*
X21270Y313389D01*
X18077Y314024D01*
X14822D01*
X11630Y313389D01*
X8956Y312281D01*
X7686Y312865D01*
Y400000D01*
Y470000D01*
Y470000D01*
Y470000D01*
X7686Y471463D01*
X8067Y474362D01*
X8824Y477188D01*
X9944Y479891D01*
X11407Y482424D01*
X13187Y484744D01*
X15256Y486813D01*
X17576Y488593D01*
X20109Y490056D01*
X22812Y491175D01*
X25638Y491933D01*
X28537Y492314D01*
X30000Y492314D01*
X575000D01*
D02*
G37*
%LPC*%
G36*
X377775Y459668D02*
Y453175D01*
X384268D01*
X384068Y453922D01*
X382730Y456238D01*
X380838Y458130D01*
X378522Y459468D01*
X377775Y459668D01*
D02*
G37*
G36*
X371425D02*
X370678Y459468D01*
X368362Y458130D01*
X366470Y456238D01*
X365132Y453922D01*
X364932Y453175D01*
X371425D01*
Y459668D01*
D02*
G37*
G36*
X161824Y478524D02*
X158176D01*
X154597Y477812D01*
X151226Y476416D01*
X148192Y474389D01*
X145611Y471808D01*
X143584Y468774D01*
X142188Y465403D01*
X141476Y461824D01*
Y458176D01*
X142188Y454597D01*
X143584Y451226D01*
X145611Y448192D01*
X148192Y445611D01*
X151226Y443584D01*
X154597Y442188D01*
X158176Y441476D01*
X161824D01*
X165403Y442188D01*
X168774Y443584D01*
X171808Y445611D01*
X174389Y448192D01*
X176416Y451226D01*
X177812Y454597D01*
X178524Y458176D01*
Y461824D01*
X177812Y465403D01*
X176416Y468774D01*
X174389Y471808D01*
X171808Y474389D01*
X168774Y476416D01*
X165403Y477812D01*
X161824Y478524D01*
D02*
G37*
G36*
X426604Y459144D02*
X424196D01*
X421870Y458521D01*
X419785Y457317D01*
X418083Y455615D01*
X416879Y453529D01*
X416256Y451204D01*
Y448796D01*
X416879Y446470D01*
X418083Y444385D01*
X419785Y442683D01*
X421870Y441479D01*
X424196Y440856D01*
X426604D01*
X428929Y441479D01*
X431015Y442683D01*
X432717Y444385D01*
X433921Y446470D01*
X434544Y448796D01*
Y451204D01*
X433921Y453529D01*
X432717Y455615D01*
X431015Y457317D01*
X428929Y458521D01*
X426604Y459144D01*
D02*
G37*
G36*
X401204D02*
X398796D01*
X396470Y458521D01*
X394385Y457317D01*
X392683Y455615D01*
X391479Y453529D01*
X390856Y451204D01*
Y448796D01*
X391479Y446470D01*
X392683Y444385D01*
X394385Y442683D01*
X396470Y441479D01*
X398796Y440856D01*
X401204D01*
X403529Y441479D01*
X405615Y442683D01*
X407317Y444385D01*
X408521Y446470D01*
X409144Y448796D01*
Y451204D01*
X408521Y453529D01*
X407317Y455615D01*
X405615Y457317D01*
X403529Y458521D01*
X401204Y459144D01*
D02*
G37*
G36*
X358344D02*
X340056D01*
Y440856D01*
X358344D01*
Y459144D01*
D02*
G37*
G36*
X384268Y446825D02*
X377775D01*
Y440332D01*
X378522Y440532D01*
X380838Y441870D01*
X382730Y443762D01*
X384068Y446078D01*
X384268Y446825D01*
D02*
G37*
G36*
X371425D02*
X364932D01*
X365132Y446078D01*
X366470Y443762D01*
X368362Y441870D01*
X370678Y440532D01*
X371425Y440332D01*
Y446825D01*
D02*
G37*
G36*
X55040Y435040D02*
X48175D01*
Y418175D01*
X55040D01*
Y435000D01*
Y435040D01*
D02*
G37*
G36*
X41825D02*
X34960D01*
Y435000D01*
Y418175D01*
X41825D01*
Y435040D01*
D02*
G37*
G36*
X541351Y451524D02*
X538049D01*
X534810Y450880D01*
X531759Y449616D01*
X529014Y447781D01*
X526679Y445446D01*
X524844Y442701D01*
X523580Y439650D01*
X522936Y436411D01*
Y435000D01*
Y433109D01*
X523580Y429870D01*
X524844Y426819D01*
X526679Y424074D01*
X529014Y421739D01*
X531759Y419904D01*
X534810Y418640D01*
X538049Y417996D01*
X541351D01*
X544590Y418640D01*
X547641Y419904D01*
X550386Y421739D01*
X552721Y424074D01*
X554556Y426819D01*
X555820Y429870D01*
X556464Y433109D01*
Y435000D01*
Y436411D01*
X555820Y439650D01*
X554556Y442701D01*
X552721Y445446D01*
X550386Y447781D01*
X547641Y449616D01*
X544590Y450880D01*
X541351Y451524D01*
D02*
G37*
G36*
X236551D02*
X233249D01*
X230010Y450880D01*
X226959Y449616D01*
X224214Y447781D01*
X221879Y445446D01*
X220044Y442701D01*
X218780Y439650D01*
X218136Y436411D01*
Y435000D01*
Y433109D01*
X218780Y429870D01*
X220044Y426819D01*
X221879Y424074D01*
X224214Y421739D01*
X226959Y419904D01*
X230010Y418640D01*
X233249Y417996D01*
X236551D01*
X239790Y418640D01*
X242841Y419904D01*
X245586Y421739D01*
X247921Y424074D01*
X249756Y426819D01*
X251020Y429870D01*
X251664Y433109D01*
Y435000D01*
Y436411D01*
X251020Y439650D01*
X249756Y442701D01*
X247921Y445446D01*
X245586Y447781D01*
X242841Y449616D01*
X239790Y450880D01*
X236551Y451524D01*
D02*
G37*
G36*
X55040Y411825D02*
X48175D01*
Y394960D01*
X55040D01*
Y400000D01*
Y411825D01*
D02*
G37*
G36*
X41825D02*
X34960D01*
D01*
Y400000D01*
Y394960D01*
X41825D01*
Y411825D01*
D02*
G37*
G36*
X114024Y436524D02*
X95976D01*
Y400000D01*
Y393476D01*
X114024D01*
Y400000D01*
Y436524D01*
D02*
G37*
G36*
X1499675Y400579D02*
Y393175D01*
X1507079D01*
X1506788Y394261D01*
X1505334Y396779D01*
X1503279Y398834D01*
X1500761Y400288D01*
X1499675Y400579D01*
D02*
G37*
G36*
X1493325Y400579D02*
X1492239Y400288D01*
X1489721Y398834D01*
X1487666Y396779D01*
X1486212Y394261D01*
X1485921Y393175D01*
X1493325D01*
Y400579D01*
D02*
G37*
G36*
X943400Y402024D02*
X941600D01*
X939937Y401335D01*
X938665Y400063D01*
X937976Y398400D01*
Y396600D01*
X938665Y394937D01*
X939937Y393665D01*
X941600Y392976D01*
X943400D01*
X945063Y393665D01*
X946335Y394937D01*
X947024Y396600D01*
Y398400D01*
X946335Y400063D01*
X945063Y401335D01*
X943400Y402024D01*
D02*
G37*
G36*
X1581824Y428524D02*
X1578176D01*
X1574597Y427812D01*
X1571226Y426416D01*
X1568192Y424389D01*
X1565611Y421808D01*
X1563584Y418774D01*
X1562188Y415403D01*
X1561476Y411824D01*
Y408176D01*
X1562188Y404597D01*
X1563584Y401226D01*
X1565611Y398192D01*
X1568192Y395611D01*
X1571226Y393584D01*
X1574597Y392188D01*
X1578176Y391476D01*
X1581824D01*
X1585403Y392188D01*
X1588774Y393584D01*
X1591808Y395611D01*
X1594388Y398192D01*
X1596416Y401226D01*
X1597812Y404597D01*
X1598524Y408176D01*
Y411824D01*
X1597812Y415403D01*
X1596416Y418774D01*
X1594388Y421808D01*
X1591808Y424389D01*
X1588774Y426416D01*
X1585403Y427812D01*
X1581824Y428524D01*
D02*
G37*
G36*
X1073400Y399807D02*
X1071600D01*
X1069937Y399118D01*
X1068665Y397845D01*
X1067976Y396183D01*
Y394383D01*
X1068665Y392720D01*
X1069937Y391448D01*
X1071600Y390759D01*
X1073400D01*
X1075063Y391448D01*
X1076335Y392720D01*
X1077024Y394383D01*
Y396183D01*
X1076335Y397845D01*
X1075063Y399118D01*
X1073400Y399807D01*
D02*
G37*
G36*
X348400Y394524D02*
X346600D01*
X344937Y393835D01*
X343665Y392563D01*
X342976Y390900D01*
Y389100D01*
X343665Y387437D01*
X344937Y386165D01*
X346600Y385476D01*
X348400D01*
X350063Y386165D01*
X351335Y387437D01*
X352024Y389100D01*
Y390900D01*
X351335Y392563D01*
X350063Y393835D01*
X348400Y394524D01*
D02*
G37*
G36*
X1558400Y389524D02*
X1556600D01*
X1554937Y388835D01*
X1553665Y387563D01*
X1552976Y385900D01*
Y384100D01*
X1553665Y382437D01*
X1554937Y381165D01*
X1556600Y380476D01*
X1558400D01*
X1560063Y381165D01*
X1561335Y382437D01*
X1562024Y384100D01*
Y385900D01*
X1561335Y387563D01*
X1560063Y388835D01*
X1558400Y389524D01*
D02*
G37*
G36*
X1447820Y400024D02*
X1445180D01*
X1442631Y399341D01*
X1440345Y398021D01*
X1438479Y396155D01*
X1437159Y393869D01*
X1436476Y391320D01*
Y388680D01*
X1437159Y386131D01*
X1438479Y383845D01*
X1440345Y381979D01*
X1442631Y380659D01*
X1445180Y379976D01*
X1447820D01*
X1450369Y380659D01*
X1452655Y381979D01*
X1454521Y383845D01*
X1455841Y386131D01*
X1456524Y388680D01*
Y391320D01*
X1455841Y393869D01*
X1454521Y396155D01*
X1452655Y398021D01*
X1450369Y399341D01*
X1447820Y400024D01*
D02*
G37*
G36*
X1507079Y386825D02*
X1499675D01*
Y379421D01*
X1500761Y379712D01*
X1503279Y381166D01*
X1505334Y383221D01*
X1506788Y385739D01*
X1507079Y386825D01*
D02*
G37*
G36*
X1493325D02*
X1485921D01*
X1486212Y385739D01*
X1487666Y383221D01*
X1489721Y381166D01*
X1492239Y379712D01*
X1493325Y379421D01*
Y386825D01*
D02*
G37*
G36*
X996403Y387620D02*
X994397D01*
X992459Y387101D01*
X990721Y386097D01*
X989303Y384679D01*
X988299Y382941D01*
X987780Y381003D01*
Y378997D01*
X988299Y377059D01*
X989303Y375321D01*
X990721Y373903D01*
X992459Y372899D01*
X994397Y372380D01*
X996403D01*
X998341Y372899D01*
X1000079Y373903D01*
X1001497Y375321D01*
X1002501Y377059D01*
X1003020Y378997D01*
Y381003D01*
X1002501Y382941D01*
X1001497Y384679D01*
X1000079Y386097D01*
X998341Y387101D01*
X996403Y387620D01*
D02*
G37*
G36*
X971003D02*
X968997D01*
X967059Y387101D01*
X965321Y386097D01*
X963903Y384679D01*
X962899Y382941D01*
X962380Y381003D01*
Y378997D01*
X962899Y377059D01*
X963903Y375321D01*
X965321Y373903D01*
X967059Y372899D01*
X968997Y372380D01*
X971003D01*
X972941Y372899D01*
X974679Y373903D01*
X976097Y375321D01*
X977101Y377059D01*
X977620Y378997D01*
Y381003D01*
X977101Y382941D01*
X976097Y384679D01*
X974679Y386097D01*
X972941Y387101D01*
X971003Y387620D01*
D02*
G37*
G36*
X95040Y378040D02*
X78175D01*
Y371175D01*
X95040D01*
Y378040D01*
D02*
G37*
G36*
X71825D02*
X54960D01*
Y371175D01*
X71825D01*
Y378040D01*
D02*
G37*
G36*
X1610900Y379524D02*
X1609100D01*
X1607437Y378835D01*
X1606165Y377563D01*
X1605476Y375900D01*
Y374100D01*
X1606165Y372437D01*
X1607437Y371165D01*
X1609100Y370476D01*
X1610900D01*
X1612563Y371165D01*
X1613835Y372437D01*
X1614524Y374100D01*
Y375900D01*
X1613835Y377563D01*
X1612563Y378835D01*
X1610900Y379524D01*
D02*
G37*
G36*
X1595900D02*
X1594100D01*
X1592437Y378835D01*
X1591165Y377563D01*
X1590476Y375900D01*
Y374100D01*
X1591165Y372437D01*
X1592437Y371165D01*
X1594100Y370476D01*
X1595900D01*
X1597563Y371165D01*
X1598835Y372437D01*
X1599524Y374100D01*
Y375900D01*
X1598835Y377563D01*
X1597563Y378835D01*
X1595900Y379524D01*
D02*
G37*
G36*
X95040Y364825D02*
X78175D01*
Y357960D01*
X95040D01*
Y364825D01*
D02*
G37*
G36*
X71825D02*
X54960D01*
Y357960D01*
X71825D01*
Y364825D01*
D02*
G37*
G36*
X650800Y364024D02*
X649200D01*
X647721Y363411D01*
X646589Y362279D01*
X645976Y360800D01*
Y359200D01*
X646589Y357721D01*
X647721Y356589D01*
X649200Y355976D01*
X650800D01*
X652279Y356589D01*
X653411Y357721D01*
X654024Y359200D01*
Y360800D01*
X653411Y362279D01*
X652279Y363411D01*
X650800Y364024D01*
D02*
G37*
G36*
X640800D02*
X639200D01*
X637721Y363411D01*
X636589Y362279D01*
X635976Y360800D01*
Y359200D01*
X636589Y357721D01*
X637721Y356589D01*
X639200Y355976D01*
X640800D01*
X642279Y356589D01*
X643411Y357721D01*
X644024Y359200D01*
Y360800D01*
X643411Y362279D01*
X642279Y363411D01*
X640800Y364024D01*
D02*
G37*
G36*
X630800D02*
X629200D01*
X627721Y363411D01*
X626589Y362279D01*
X625976Y360800D01*
Y359200D01*
X626589Y357721D01*
X627721Y356589D01*
X629200Y355976D01*
X630800D01*
X632279Y356589D01*
X633411Y357721D01*
X634024Y359200D01*
Y360800D01*
X633411Y362279D01*
X632279Y363411D01*
X630800Y364024D01*
D02*
G37*
G36*
X620800D02*
X619200D01*
X617721Y363411D01*
X616589Y362279D01*
X615976Y360800D01*
Y359200D01*
X616589Y357721D01*
X617721Y356589D01*
X619200Y355976D01*
X620800D01*
X622279Y356589D01*
X623411Y357721D01*
X624024Y359200D01*
Y360800D01*
X623411Y362279D01*
X622279Y363411D01*
X620800Y364024D01*
D02*
G37*
G36*
X610800D02*
X609200D01*
X607721Y363411D01*
X606589Y362279D01*
X605976Y360800D01*
Y359200D01*
X606589Y357721D01*
X607721Y356589D01*
X609200Y355976D01*
X610800D01*
X612279Y356589D01*
X613411Y357721D01*
X614024Y359200D01*
Y360800D01*
X613411Y362279D01*
X612279Y363411D01*
X610800Y364024D01*
D02*
G37*
G36*
X600800D02*
X599200D01*
X597721Y363411D01*
X596589Y362279D01*
X595976Y360800D01*
Y359200D01*
X596589Y357721D01*
X597721Y356589D01*
X599200Y355976D01*
X600800D01*
X602279Y356589D01*
X603411Y357721D01*
X604024Y359200D01*
Y360800D01*
X603411Y362279D01*
X602279Y363411D01*
X600800Y364024D01*
D02*
G37*
G36*
X590800D02*
X589200D01*
X587721Y363411D01*
X586589Y362279D01*
X585976Y360800D01*
Y359200D01*
X586589Y357721D01*
X587721Y356589D01*
X589200Y355976D01*
X590800D01*
X592279Y356589D01*
X593411Y357721D01*
X594024Y359200D01*
Y360800D01*
X593411Y362279D01*
X592279Y363411D01*
X590800Y364024D01*
D02*
G37*
G36*
X580800D02*
X579200D01*
X577721Y363411D01*
X576589Y362279D01*
X575976Y360800D01*
Y359200D01*
X576589Y357721D01*
X577721Y356589D01*
X579200Y355976D01*
X580800D01*
X582279Y356589D01*
X583411Y357721D01*
X584024Y359200D01*
Y360800D01*
X583411Y362279D01*
X582279Y363411D01*
X580800Y364024D01*
D02*
G37*
G36*
X570800D02*
X569200D01*
X567721Y363411D01*
X566589Y362279D01*
X565976Y360800D01*
Y359200D01*
X566589Y357721D01*
X567721Y356589D01*
X569200Y355976D01*
X570800D01*
X572279Y356589D01*
X573411Y357721D01*
X574024Y359200D01*
Y360800D01*
X573411Y362279D01*
X572279Y363411D01*
X570800Y364024D01*
D02*
G37*
G36*
X560800D02*
X559200D01*
X557721Y363411D01*
X556589Y362279D01*
X555976Y360800D01*
Y359200D01*
X556589Y357721D01*
X557721Y356589D01*
X559200Y355976D01*
X560800D01*
X562279Y356589D01*
X563411Y357721D01*
X564024Y359200D01*
Y360800D01*
X563411Y362279D01*
X562279Y363411D01*
X560800Y364024D01*
D02*
G37*
G36*
X550800D02*
X549200D01*
X547721Y363411D01*
X546589Y362279D01*
X545976Y360800D01*
Y359200D01*
X546589Y357721D01*
X547721Y356589D01*
X549200Y355976D01*
X550800D01*
X552279Y356589D01*
X553411Y357721D01*
X554024Y359200D01*
Y360800D01*
X553411Y362279D01*
X552279Y363411D01*
X550800Y364024D01*
D02*
G37*
G36*
X540800D02*
X539200D01*
X537721Y363411D01*
X536589Y362279D01*
X535976Y360800D01*
Y359200D01*
X536589Y357721D01*
X537721Y356589D01*
X539200Y355976D01*
X540800D01*
X542279Y356589D01*
X543411Y357721D01*
X544024Y359200D01*
Y360800D01*
X543411Y362279D01*
X542279Y363411D01*
X540800Y364024D01*
D02*
G37*
G36*
X530800D02*
X529200D01*
X527721Y363411D01*
X526589Y362279D01*
X525976Y360800D01*
Y359200D01*
X526589Y357721D01*
X527721Y356589D01*
X529200Y355976D01*
X530800D01*
X532279Y356589D01*
X533411Y357721D01*
X534024Y359200D01*
Y360800D01*
X533411Y362279D01*
X532279Y363411D01*
X530800Y364024D01*
D02*
G37*
G36*
X520800D02*
X519200D01*
X517721Y363411D01*
X516589Y362279D01*
X515976Y360800D01*
Y359200D01*
X516589Y357721D01*
X517721Y356589D01*
X519200Y355976D01*
X520800D01*
X522279Y356589D01*
X523411Y357721D01*
X524024Y359200D01*
Y360800D01*
X523411Y362279D01*
X522279Y363411D01*
X520800Y364024D01*
D02*
G37*
G36*
X650800Y354024D02*
X649200D01*
X647721Y353411D01*
X646589Y352279D01*
X645976Y350800D01*
Y349200D01*
X646589Y347721D01*
X647721Y346589D01*
X649200Y345976D01*
X650800D01*
X652279Y346589D01*
X653411Y347721D01*
X654024Y349200D01*
Y350800D01*
X653411Y352279D01*
X652279Y353411D01*
X650800Y354024D01*
D02*
G37*
G36*
X640800D02*
X639200D01*
X637721Y353411D01*
X636589Y352279D01*
X635976Y350800D01*
Y349200D01*
X636589Y347721D01*
X637721Y346589D01*
X639200Y345976D01*
X640800D01*
X642279Y346589D01*
X643411Y347721D01*
X644024Y349200D01*
Y350800D01*
X643411Y352279D01*
X642279Y353411D01*
X640800Y354024D01*
D02*
G37*
G36*
X630800D02*
X629200D01*
X627721Y353411D01*
X626589Y352279D01*
X625976Y350800D01*
Y349200D01*
X626589Y347721D01*
X627721Y346589D01*
X629200Y345976D01*
X630800D01*
X632279Y346589D01*
X633411Y347721D01*
X634024Y349200D01*
Y350800D01*
X633411Y352279D01*
X632279Y353411D01*
X630800Y354024D01*
D02*
G37*
G36*
X620800D02*
X619200D01*
X617721Y353411D01*
X616589Y352279D01*
X615976Y350800D01*
Y349200D01*
X616589Y347721D01*
X617721Y346589D01*
X619200Y345976D01*
X620800D01*
X622279Y346589D01*
X623411Y347721D01*
X624024Y349200D01*
Y350800D01*
X623411Y352279D01*
X622279Y353411D01*
X620800Y354024D01*
D02*
G37*
G36*
X610800D02*
X609200D01*
X607721Y353411D01*
X606589Y352279D01*
X605976Y350800D01*
Y349200D01*
X606589Y347721D01*
X607721Y346589D01*
X609200Y345976D01*
X610800D01*
X612279Y346589D01*
X613411Y347721D01*
X614024Y349200D01*
Y350800D01*
X613411Y352279D01*
X612279Y353411D01*
X610800Y354024D01*
D02*
G37*
G36*
X600800D02*
X599200D01*
X597721Y353411D01*
X596589Y352279D01*
X595976Y350800D01*
Y349200D01*
X596589Y347721D01*
X597721Y346589D01*
X599200Y345976D01*
X600800D01*
X602279Y346589D01*
X603411Y347721D01*
X604024Y349200D01*
Y350800D01*
X603411Y352279D01*
X602279Y353411D01*
X600800Y354024D01*
D02*
G37*
G36*
X590800D02*
X589200D01*
X587721Y353411D01*
X586589Y352279D01*
X585976Y350800D01*
Y349200D01*
X586589Y347721D01*
X587721Y346589D01*
X589200Y345976D01*
X590800D01*
X592279Y346589D01*
X593411Y347721D01*
X594024Y349200D01*
Y350800D01*
X593411Y352279D01*
X592279Y353411D01*
X590800Y354024D01*
D02*
G37*
G36*
X580800D02*
X579200D01*
X577721Y353411D01*
X576589Y352279D01*
X575976Y350800D01*
Y349200D01*
X576589Y347721D01*
X577721Y346589D01*
X579200Y345976D01*
X580800D01*
X582279Y346589D01*
X583411Y347721D01*
X584024Y349200D01*
Y350800D01*
X583411Y352279D01*
X582279Y353411D01*
X580800Y354024D01*
D02*
G37*
G36*
X570800D02*
X569200D01*
X567721Y353411D01*
X566589Y352279D01*
X565976Y350800D01*
Y349200D01*
X566589Y347721D01*
X567721Y346589D01*
X569200Y345976D01*
X570800D01*
X572279Y346589D01*
X573411Y347721D01*
X574024Y349200D01*
Y350800D01*
X573411Y352279D01*
X572279Y353411D01*
X570800Y354024D01*
D02*
G37*
G36*
X560800D02*
X559200D01*
X557721Y353411D01*
X556589Y352279D01*
X555976Y350800D01*
Y349200D01*
X556589Y347721D01*
X557721Y346589D01*
X559200Y345976D01*
X560800D01*
X562279Y346589D01*
X563411Y347721D01*
X564024Y349200D01*
Y350800D01*
X563411Y352279D01*
X562279Y353411D01*
X560800Y354024D01*
D02*
G37*
G36*
X550800D02*
X549200D01*
X547721Y353411D01*
X546589Y352279D01*
X545976Y350800D01*
Y349200D01*
X546589Y347721D01*
X547721Y346589D01*
X549200Y345976D01*
X550800D01*
X552279Y346589D01*
X553411Y347721D01*
X554024Y349200D01*
Y350800D01*
X553411Y352279D01*
X552279Y353411D01*
X550800Y354024D01*
D02*
G37*
G36*
X540800D02*
X539200D01*
X537721Y353411D01*
X536589Y352279D01*
X535976Y350800D01*
Y349200D01*
X536589Y347721D01*
X537721Y346589D01*
X539200Y345976D01*
X540800D01*
X542279Y346589D01*
X543411Y347721D01*
X544024Y349200D01*
Y350800D01*
X543411Y352279D01*
X542279Y353411D01*
X540800Y354024D01*
D02*
G37*
G36*
X530800D02*
X529200D01*
X527721Y353411D01*
X526589Y352279D01*
X525976Y350800D01*
Y349200D01*
X526589Y347721D01*
X527721Y346589D01*
X529200Y345976D01*
X530800D01*
X532279Y346589D01*
X533411Y347721D01*
X534024Y349200D01*
Y350800D01*
X533411Y352279D01*
X532279Y353411D01*
X530800Y354024D01*
D02*
G37*
G36*
X520800D02*
X519200D01*
X517721Y353411D01*
X516589Y352279D01*
X515976Y350800D01*
Y349200D01*
X516589Y347721D01*
X517721Y346589D01*
X519200Y345976D01*
X520800D01*
X522279Y346589D01*
X523411Y347721D01*
X524024Y349200D01*
Y350800D01*
X523411Y352279D01*
X522279Y353411D01*
X520800Y354024D01*
D02*
G37*
G36*
X62825Y337406D02*
Y330675D01*
X69556D01*
X69332Y331510D01*
X67964Y333880D01*
X66030Y335814D01*
X63660Y337182D01*
X62825Y337406D01*
D02*
G37*
G36*
X56475D02*
X55640Y337182D01*
X53270Y335814D01*
X51336Y333880D01*
X49968Y331510D01*
X49744Y330675D01*
X56475D01*
Y337406D01*
D02*
G37*
G36*
X1583110Y326897D02*
X1581035D01*
Y322215D01*
X1590227D01*
X1589915Y322969D01*
X1588666Y324596D01*
X1587039Y325844D01*
X1585144Y326629D01*
X1583110Y326897D01*
D02*
G37*
G36*
X1574685D02*
X1572610D01*
X1570576Y326629D01*
X1568681Y325844D01*
X1567054Y324596D01*
X1565806Y322969D01*
X1565493Y322215D01*
X1574685D01*
Y326897D01*
D02*
G37*
G36*
X90884Y336874D02*
X88416D01*
X86032Y336235D01*
X83894Y335001D01*
X82149Y333256D01*
X80915Y331118D01*
X80276Y328734D01*
Y326266D01*
X80915Y323882D01*
X82149Y321744D01*
X83894Y319999D01*
X86032Y318765D01*
X88416Y318126D01*
X90884D01*
X93268Y318765D01*
X95406Y319999D01*
X97151Y321744D01*
X98385Y323882D01*
X99024Y326266D01*
Y328734D01*
X98385Y331118D01*
X97151Y333256D01*
X95406Y335001D01*
X93268Y336235D01*
X90884Y336874D01*
D02*
G37*
G36*
X303400Y327024D02*
X301600D01*
X299937Y326335D01*
X298665Y325063D01*
X297976Y323400D01*
Y321600D01*
X298665Y319937D01*
X299937Y318665D01*
X301600Y317976D01*
X303400D01*
X305063Y318665D01*
X306335Y319937D01*
X307024Y321600D01*
Y323400D01*
X306335Y325063D01*
X305063Y326335D01*
X303400Y327024D01*
D02*
G37*
G36*
X69556Y324325D02*
X62825D01*
Y317594D01*
X63660Y317818D01*
X66030Y319186D01*
X67964Y321120D01*
X69332Y323490D01*
X69556Y324325D01*
D02*
G37*
G36*
X56475D02*
X49744D01*
X49968Y323490D01*
X51336Y321120D01*
X53270Y319186D01*
X55640Y317818D01*
X56475Y317594D01*
Y324325D01*
D02*
G37*
G36*
X1590227Y315865D02*
X1581035D01*
Y311183D01*
X1583110D01*
X1585144Y311451D01*
X1587039Y312235D01*
X1588666Y313484D01*
X1589915Y315111D01*
X1590227Y315865D01*
D02*
G37*
G36*
X1574685D02*
X1565493D01*
X1565806Y315111D01*
X1567054Y313484D01*
X1568681Y312235D01*
X1570576Y311451D01*
X1572610Y311183D01*
X1574685D01*
Y315865D01*
D02*
G37*
G36*
X1343400Y319524D02*
X1341600D01*
X1339937Y318835D01*
X1338665Y317563D01*
X1337976Y315900D01*
Y314100D01*
X1338665Y312437D01*
X1339937Y311165D01*
X1341600Y310476D01*
X1343400D01*
X1345063Y311165D01*
X1346335Y312437D01*
X1347024Y314100D01*
Y315900D01*
X1346335Y317563D01*
X1345063Y318835D01*
X1343400Y319524D01*
D02*
G37*
G36*
X1230900D02*
X1229100D01*
X1227437Y318835D01*
X1226165Y317563D01*
X1225476Y315900D01*
Y314100D01*
X1226165Y312437D01*
X1227437Y311165D01*
X1229100Y310476D01*
X1230900D01*
X1232563Y311165D01*
X1233835Y312437D01*
X1234524Y314100D01*
Y315900D01*
X1233835Y317563D01*
X1232563Y318835D01*
X1230900Y319524D01*
D02*
G37*
G36*
X1160900Y324524D02*
X1159100D01*
X1157437Y323835D01*
X1156165Y322563D01*
X1155476Y320900D01*
Y319100D01*
X1156165Y317437D01*
X1156772Y316830D01*
X1157327Y316000D01*
X1156772Y315170D01*
X1156165Y314563D01*
X1155476Y312900D01*
Y311100D01*
X1156165Y309437D01*
X1157437Y308165D01*
X1159100Y307476D01*
X1160900D01*
X1162563Y308165D01*
X1163835Y309437D01*
X1164524Y311100D01*
Y312900D01*
X1163835Y314563D01*
X1163227Y315170D01*
X1162673Y316000D01*
X1163227Y316830D01*
X1163835Y317437D01*
X1164524Y319100D01*
Y320900D01*
X1163835Y322563D01*
X1162563Y323835D01*
X1160900Y324524D01*
D02*
G37*
G36*
X943400Y312024D02*
X941600D01*
X939937Y311335D01*
X938665Y310063D01*
X937976Y308400D01*
Y306600D01*
X938665Y304937D01*
X939937Y303665D01*
X941600Y302976D01*
X943400D01*
X945063Y303665D01*
X946335Y304937D01*
X947024Y306600D01*
Y308400D01*
X946335Y310063D01*
X945063Y311335D01*
X943400Y312024D01*
D02*
G37*
G36*
X1583810Y309514D02*
X1581910D01*
X1580156Y308787D01*
X1578813Y307444D01*
X1578086Y305690D01*
Y303790D01*
X1578813Y302036D01*
X1580156Y300693D01*
X1581910Y299966D01*
X1583810D01*
X1585564Y300693D01*
X1586907Y302036D01*
X1587634Y303790D01*
Y305690D01*
X1586907Y307444D01*
X1585564Y308787D01*
X1583810Y309514D01*
D02*
G37*
G36*
X1170900Y307024D02*
X1169100D01*
X1167437Y306335D01*
X1166165Y305063D01*
X1165476Y303400D01*
Y301600D01*
X1166165Y299937D01*
X1167437Y298665D01*
X1169100Y297976D01*
X1170900D01*
X1172563Y298665D01*
X1173835Y299937D01*
X1174524Y301600D01*
Y303400D01*
X1173835Y305063D01*
X1172563Y306335D01*
X1170900Y307024D01*
D02*
G37*
G36*
X1213400Y307024D02*
X1211600D01*
X1209937Y306335D01*
X1208665Y305063D01*
X1207976Y303400D01*
Y301600D01*
X1208665Y299937D01*
X1209937Y298665D01*
X1211600Y297976D01*
X1213400D01*
X1215063Y298665D01*
X1216335Y299937D01*
X1217024Y301600D01*
Y303400D01*
X1216335Y305063D01*
X1215063Y306335D01*
X1213400Y307024D01*
D02*
G37*
G36*
X1288400Y306230D02*
X1286600D01*
X1284937Y305541D01*
X1283665Y304269D01*
X1282976Y302606D01*
Y300806D01*
X1283665Y299143D01*
X1284937Y297871D01*
X1286600Y297182D01*
X1288400D01*
X1290063Y297871D01*
X1291335Y299143D01*
X1292024Y300806D01*
Y302606D01*
X1291335Y304269D01*
X1290063Y305541D01*
X1288400Y306230D01*
D02*
G37*
G36*
X1520087Y346524D02*
X1515912D01*
X1511789Y345871D01*
X1507818Y344581D01*
X1504098Y342685D01*
X1500721Y340231D01*
X1497769Y337279D01*
X1495315Y333902D01*
X1493419Y330182D01*
X1492129Y326211D01*
X1491476Y322088D01*
Y317913D01*
X1492129Y313789D01*
X1493419Y309818D01*
X1495315Y306098D01*
X1497769Y302721D01*
X1500721Y299769D01*
X1504098Y297315D01*
X1507818Y295419D01*
X1511789Y294129D01*
X1515912Y293476D01*
X1520087D01*
X1524211Y294129D01*
X1528182Y295419D01*
X1531902Y297315D01*
X1535279Y299769D01*
X1538231Y302721D01*
X1540685Y306098D01*
X1542581Y309818D01*
X1543871Y313789D01*
X1544524Y317913D01*
Y322088D01*
X1543871Y326211D01*
X1542581Y330182D01*
X1540685Y333902D01*
X1538231Y337279D01*
X1535279Y340231D01*
X1531902Y342685D01*
X1528182Y344581D01*
X1524211Y345871D01*
X1520087Y346524D01*
D02*
G37*
G36*
X1427088D02*
X1422912D01*
X1418789Y345871D01*
X1414818Y344581D01*
X1411098Y342685D01*
X1407721Y340231D01*
X1404769Y337279D01*
X1402315Y333902D01*
X1400419Y330182D01*
X1399129Y326211D01*
X1398476Y322088D01*
Y317913D01*
X1399129Y313789D01*
X1400419Y309818D01*
X1402315Y306098D01*
X1404769Y302721D01*
X1407721Y299769D01*
X1411098Y297315D01*
X1414818Y295419D01*
X1418789Y294129D01*
X1422912Y293476D01*
X1427088D01*
X1431211Y294129D01*
X1435182Y295419D01*
X1438902Y297315D01*
X1442279Y299769D01*
X1445231Y302721D01*
X1447685Y306098D01*
X1449581Y309818D01*
X1450871Y313789D01*
X1451524Y317913D01*
Y322088D01*
X1450871Y326211D01*
X1449581Y330182D01*
X1447685Y333902D01*
X1445231Y337279D01*
X1442279Y340231D01*
X1438902Y342685D01*
X1435182Y344581D01*
X1431211Y345871D01*
X1427088Y346524D01*
D02*
G37*
G36*
X1585140Y298084D02*
X1583340D01*
X1581677Y297395D01*
X1580405Y296123D01*
X1579716Y294460D01*
Y292660D01*
X1580405Y290997D01*
X1581677Y289725D01*
X1583340Y289036D01*
X1585140D01*
X1586803Y289725D01*
X1588075Y290997D01*
X1588764Y292660D01*
Y294460D01*
X1588075Y296123D01*
X1586803Y297395D01*
X1585140Y298084D01*
D02*
G37*
G36*
X90884Y306874D02*
X88416D01*
X86032Y306235D01*
X83894Y305001D01*
X82149Y303256D01*
X80915Y301118D01*
X80276Y298734D01*
Y296266D01*
X80915Y293882D01*
X82149Y291744D01*
X83894Y289999D01*
X86032Y288765D01*
X88416Y288126D01*
X90884D01*
X93268Y288765D01*
X95406Y289999D01*
X97151Y291744D01*
X98385Y293882D01*
X99024Y296266D01*
Y298734D01*
X98385Y301118D01*
X97151Y303256D01*
X95406Y305001D01*
X93268Y306235D01*
X90884Y306874D01*
D02*
G37*
G36*
X60884D02*
X58416D01*
X56032Y306235D01*
X53894Y305001D01*
X52149Y303256D01*
X50915Y301118D01*
X50276Y298734D01*
Y296266D01*
X50915Y293882D01*
X52149Y291744D01*
X53894Y289999D01*
X56032Y288765D01*
X58416Y288126D01*
X60884D01*
X63268Y288765D01*
X65406Y289999D01*
X67151Y291744D01*
X68385Y293882D01*
X69024Y296266D01*
Y298734D01*
X68385Y301118D01*
X67151Y303256D01*
X65406Y305001D01*
X63268Y306235D01*
X60884Y306874D01*
D02*
G37*
G36*
X1220900Y292024D02*
X1219100D01*
X1217437Y291335D01*
X1216165Y290063D01*
X1215476Y288400D01*
Y286600D01*
X1216165Y284937D01*
X1217437Y283665D01*
X1219100Y282976D01*
X1220900D01*
X1222563Y283665D01*
X1223835Y284937D01*
X1224524Y286600D01*
Y288400D01*
X1223835Y290063D01*
X1222563Y291335D01*
X1220900Y292024D01*
D02*
G37*
G36*
X996403Y297620D02*
X994397D01*
X992459Y297101D01*
X990721Y296098D01*
X989303Y294679D01*
X988299Y292941D01*
X987780Y291003D01*
Y288997D01*
X988299Y287059D01*
X989303Y285321D01*
X990721Y283902D01*
X992459Y282899D01*
X994397Y282380D01*
X996403D01*
X998341Y282899D01*
X1000079Y283902D01*
X1001497Y285321D01*
X1002501Y287059D01*
X1003020Y288997D01*
Y291003D01*
X1002501Y292941D01*
X1001497Y294679D01*
X1000079Y296098D01*
X998341Y297101D01*
X996403Y297620D01*
D02*
G37*
G36*
X971003D02*
X968997D01*
X967059Y297101D01*
X965321Y296098D01*
X963903Y294679D01*
X962899Y292941D01*
X962380Y291003D01*
Y288997D01*
X962899Y287059D01*
X963903Y285321D01*
X965321Y283902D01*
X967059Y282899D01*
X968997Y282380D01*
X971003D01*
X972941Y282899D01*
X974679Y283902D01*
X976097Y285321D01*
X977101Y287059D01*
X977620Y288997D01*
Y291003D01*
X977101Y292941D01*
X976097Y294679D01*
X974679Y296098D01*
X972941Y297101D01*
X971003Y297620D01*
D02*
G37*
G36*
X1195900Y289524D02*
X1194100D01*
X1192437Y288835D01*
X1191165Y287563D01*
X1190476Y285900D01*
Y284100D01*
X1191165Y282437D01*
X1192437Y281165D01*
X1194100Y280476D01*
X1195900D01*
X1197563Y281165D01*
X1198835Y282437D01*
X1199524Y284100D01*
Y285900D01*
X1198835Y287563D01*
X1197563Y288835D01*
X1195900Y289524D01*
D02*
G37*
G36*
X70040Y277890D02*
X62825D01*
Y270675D01*
X70040D01*
Y277890D01*
D02*
G37*
G36*
X56475D02*
X49260D01*
Y270675D01*
X56475D01*
Y277890D01*
D02*
G37*
G36*
X1238400Y284158D02*
X1236600D01*
X1234937Y283469D01*
X1233665Y282196D01*
X1232976Y280533D01*
Y278734D01*
X1233665Y277071D01*
X1234937Y275798D01*
X1236124Y275307D01*
X1236165Y275100D01*
X1235476Y273437D01*
Y271637D01*
X1236165Y269974D01*
X1237437Y268702D01*
X1239100Y268013D01*
X1240900D01*
X1242563Y268702D01*
X1243835Y269974D01*
X1244305Y271108D01*
X1245680D01*
X1246165Y269937D01*
X1247437Y268665D01*
X1249100Y267976D01*
X1250900D01*
X1252563Y268665D01*
X1253835Y269937D01*
X1254524Y271600D01*
Y273400D01*
X1253835Y275063D01*
X1252563Y276335D01*
X1250900Y277024D01*
X1249100D01*
X1247437Y276335D01*
X1246165Y275063D01*
X1245695Y273929D01*
X1244320D01*
X1243835Y275100D01*
X1242563Y276372D01*
X1241376Y276864D01*
X1241335Y277071D01*
X1242024Y278734D01*
Y280533D01*
X1241335Y282196D01*
X1240063Y283469D01*
X1238400Y284158D01*
D02*
G37*
G36*
X1585140Y270144D02*
X1583340D01*
X1581677Y269455D01*
X1580405Y268183D01*
X1579716Y266520D01*
Y264720D01*
X1580405Y263057D01*
X1581677Y261785D01*
X1583340Y261096D01*
X1585140D01*
X1586803Y261785D01*
X1588075Y263057D01*
X1588764Y264720D01*
Y266520D01*
X1588075Y268183D01*
X1586803Y269455D01*
X1585140Y270144D01*
D02*
G37*
G36*
X90884Y276874D02*
X88416D01*
X86032Y276235D01*
X83894Y275001D01*
X82149Y273256D01*
X80915Y271118D01*
X80276Y268734D01*
Y266266D01*
X80915Y263882D01*
X82149Y261744D01*
X83894Y259999D01*
X86032Y258765D01*
X88416Y258126D01*
X90884D01*
X93268Y258765D01*
X95406Y259999D01*
X97151Y261744D01*
X98385Y263882D01*
X99024Y266266D01*
Y268734D01*
X98385Y271118D01*
X97151Y273256D01*
X95406Y275001D01*
X93268Y276235D01*
X90884Y276874D01*
D02*
G37*
G36*
X70040Y264325D02*
X62825D01*
Y257110D01*
X70040D01*
Y264325D01*
D02*
G37*
G36*
X56475D02*
X49260D01*
Y257110D01*
X56475D01*
Y264325D01*
D02*
G37*
G36*
X1063400Y264524D02*
X1061600D01*
X1059937Y263835D01*
X1058665Y262563D01*
X1057976Y260900D01*
Y259100D01*
X1058665Y257437D01*
X1059937Y256165D01*
X1061600Y255476D01*
X1063400D01*
X1065063Y256165D01*
X1066335Y257437D01*
X1067024Y259100D01*
Y260900D01*
X1066335Y262563D01*
X1065063Y263835D01*
X1063400Y264524D01*
D02*
G37*
G36*
X1228400Y263730D02*
X1226600D01*
X1224937Y263041D01*
X1223665Y261769D01*
X1222976Y260106D01*
Y258306D01*
X1223665Y256643D01*
X1224937Y255371D01*
X1226600Y254682D01*
X1228400D01*
X1230063Y255371D01*
X1231335Y256643D01*
X1232024Y258306D01*
Y260106D01*
X1231335Y261769D01*
X1230063Y263041D01*
X1228400Y263730D01*
D02*
G37*
G36*
X1205900D02*
X1204100D01*
X1202437Y263041D01*
X1201165Y261769D01*
X1200476Y260106D01*
Y258306D01*
X1201165Y256643D01*
X1202437Y255371D01*
X1204100Y254682D01*
X1205900D01*
X1207563Y255371D01*
X1208835Y256643D01*
X1209524Y258306D01*
Y260106D01*
X1208835Y261769D01*
X1207563Y263041D01*
X1205900Y263730D01*
D02*
G37*
G36*
X1474675Y255579D02*
Y248175D01*
X1482079D01*
X1481788Y249261D01*
X1480334Y251779D01*
X1478279Y253834D01*
X1475761Y255288D01*
X1474675Y255579D01*
D02*
G37*
G36*
X1468325D02*
X1467239Y255288D01*
X1464721Y253834D01*
X1462666Y251779D01*
X1461212Y249261D01*
X1460921Y248175D01*
X1468325D01*
Y255579D01*
D02*
G37*
G36*
X1093400Y267024D02*
X1091600D01*
X1089937Y266335D01*
X1088665Y265063D01*
X1087976Y263400D01*
Y261600D01*
X1088665Y259937D01*
X1089937Y258665D01*
X1090745Y258330D01*
X1090832Y258294D01*
X1090580Y257024D01*
X1090436Y257024D01*
X1089100D01*
X1087437Y256335D01*
X1086165Y255063D01*
X1085476Y253400D01*
Y251600D01*
X1086165Y249937D01*
X1087437Y248665D01*
X1089100Y247976D01*
X1090900D01*
X1092563Y248665D01*
X1093835Y249937D01*
X1094524Y251600D01*
Y253400D01*
X1093835Y255063D01*
X1092563Y256335D01*
X1091755Y256670D01*
X1091668Y256706D01*
X1091920Y257976D01*
X1092064Y257976D01*
X1093400D01*
X1095063Y258665D01*
X1096335Y259937D01*
X1097024Y261600D01*
Y263400D01*
X1096335Y265063D01*
X1095063Y266335D01*
X1093400Y267024D01*
D02*
G37*
G36*
X1583810Y251714D02*
X1581910D01*
X1580156Y250987D01*
X1578813Y249644D01*
X1578086Y247890D01*
Y245990D01*
X1578813Y244236D01*
X1580156Y242893D01*
X1581910Y242166D01*
X1583810D01*
X1585564Y242893D01*
X1586907Y244236D01*
X1587634Y245990D01*
Y247890D01*
X1586907Y249644D01*
X1585564Y250987D01*
X1583810Y251714D01*
D02*
G37*
G36*
X1583110Y240497D02*
X1581035D01*
Y235815D01*
X1590227D01*
X1589915Y236569D01*
X1588666Y238196D01*
X1587039Y239445D01*
X1585144Y240229D01*
X1583110Y240497D01*
D02*
G37*
G36*
X1574685D02*
X1572610D01*
X1570576Y240229D01*
X1568681Y239445D01*
X1567054Y238196D01*
X1565806Y236569D01*
X1565493Y235815D01*
X1574685D01*
Y240497D01*
D02*
G37*
G36*
X1497820Y255024D02*
X1495180D01*
X1492631Y254341D01*
X1490345Y253021D01*
X1488479Y251155D01*
X1487159Y248869D01*
X1486476Y246320D01*
Y243680D01*
X1487159Y241131D01*
X1488479Y238845D01*
X1490345Y236979D01*
X1492631Y235659D01*
X1495180Y234976D01*
X1497820D01*
X1500369Y235659D01*
X1502655Y236979D01*
X1504521Y238845D01*
X1505841Y241131D01*
X1506524Y243680D01*
Y246320D01*
X1505841Y248869D01*
X1504521Y251155D01*
X1502655Y253021D01*
X1500369Y254341D01*
X1497820Y255024D01*
D02*
G37*
G36*
X1447820D02*
X1445180D01*
X1442631Y254341D01*
X1440345Y253021D01*
X1438479Y251155D01*
X1437159Y248869D01*
X1436476Y246320D01*
Y243680D01*
X1437159Y241131D01*
X1438479Y238845D01*
X1440345Y236979D01*
X1442631Y235659D01*
X1445180Y234976D01*
X1447820D01*
X1450369Y235659D01*
X1452655Y236979D01*
X1454521Y238845D01*
X1455841Y241131D01*
X1456524Y243680D01*
Y246320D01*
X1455841Y248869D01*
X1454521Y251155D01*
X1452655Y253021D01*
X1450369Y254341D01*
X1447820Y255024D01*
D02*
G37*
G36*
X1482079Y241825D02*
X1474675D01*
Y234421D01*
X1475761Y234712D01*
X1478279Y236166D01*
X1480334Y238221D01*
X1481788Y240739D01*
X1482079Y241825D01*
D02*
G37*
G36*
X1468325D02*
X1460921D01*
X1461212Y240739D01*
X1462666Y238221D01*
X1464721Y236166D01*
X1467239Y234712D01*
X1468325Y234421D01*
Y241825D01*
D02*
G37*
G36*
X300900Y242024D02*
X299100D01*
X297437Y241335D01*
X296165Y240063D01*
X295476Y238400D01*
Y236600D01*
X296165Y234937D01*
X297437Y233665D01*
X299100Y232976D01*
X300900D01*
X302563Y233665D01*
X303835Y234937D01*
X304524Y236600D01*
Y238400D01*
X303835Y240063D01*
X302563Y241335D01*
X300900Y242024D01*
D02*
G37*
G36*
X260900Y239524D02*
X259100D01*
X257437Y238835D01*
X256165Y237563D01*
X255476Y235900D01*
Y234100D01*
X256165Y232437D01*
X257437Y231165D01*
X259100Y230476D01*
X260900D01*
X262563Y231165D01*
X263835Y232437D01*
X264524Y234100D01*
Y235900D01*
X263835Y237563D01*
X262563Y238835D01*
X260900Y239524D01*
D02*
G37*
G36*
X1590227Y229465D02*
X1581035D01*
Y224783D01*
X1583110D01*
X1585144Y225051D01*
X1587039Y225835D01*
X1588666Y227084D01*
X1589915Y228711D01*
X1590227Y229465D01*
D02*
G37*
G36*
X1574685D02*
X1565493D01*
X1565806Y228711D01*
X1567054Y227084D01*
X1568681Y225835D01*
X1570576Y225051D01*
X1572610Y224783D01*
X1574685D01*
Y229465D01*
D02*
G37*
G36*
X970900Y247072D02*
X969100D01*
X967437Y246383D01*
X966165Y245111D01*
X965476Y243448D01*
Y241648D01*
X966165Y239985D01*
X967364Y238786D01*
X966165Y237587D01*
X965476Y235924D01*
Y234124D01*
X966165Y232461D01*
X967364Y231262D01*
X966165Y230063D01*
X965476Y228400D01*
Y226600D01*
X966165Y224937D01*
X967437Y223665D01*
X969100Y222976D01*
X970900D01*
X972563Y223665D01*
X973835Y224937D01*
X974524Y226600D01*
Y228400D01*
X973835Y230063D01*
X972636Y231262D01*
X973835Y232461D01*
X974524Y234124D01*
Y235924D01*
X973835Y237587D01*
X972636Y238786D01*
X973835Y239985D01*
X974524Y241648D01*
Y243448D01*
X973835Y245111D01*
X972563Y246383D01*
X970900Y247072D01*
D02*
G37*
G36*
X395422Y224524D02*
X393622D01*
X391959Y223835D01*
X390760Y222636D01*
X389561Y223835D01*
X387898Y224524D01*
X386098D01*
X384435Y223835D01*
X383163Y222563D01*
X382474Y220900D01*
Y219100D01*
X383163Y217437D01*
X384435Y216165D01*
X386098Y215476D01*
X387898D01*
X389561Y216165D01*
X390760Y217364D01*
X391959Y216165D01*
X393622Y215476D01*
X395422D01*
X397085Y216165D01*
X398357Y217437D01*
X399046Y219100D01*
Y220900D01*
X398357Y222563D01*
X397085Y223835D01*
X395422Y224524D01*
D02*
G37*
G36*
X770800Y224024D02*
X769200D01*
X767721Y223411D01*
X766589Y222279D01*
X765976Y220800D01*
Y219200D01*
X766589Y217721D01*
X767721Y216589D01*
X769200Y215976D01*
X770800D01*
X772279Y216589D01*
X773411Y217721D01*
X774024Y219200D01*
Y220800D01*
X773411Y222279D01*
X772279Y223411D01*
X770800Y224024D01*
D02*
G37*
G36*
X760800D02*
X759200D01*
X757721Y223411D01*
X756589Y222279D01*
X755976Y220800D01*
Y219200D01*
X756589Y217721D01*
X757721Y216589D01*
X759200Y215976D01*
X760800D01*
X762279Y216589D01*
X763411Y217721D01*
X764024Y219200D01*
Y220800D01*
X763411Y222279D01*
X762279Y223411D01*
X760800Y224024D01*
D02*
G37*
G36*
X750800D02*
X749200D01*
X747721Y223411D01*
X746589Y222279D01*
X745976Y220800D01*
Y219200D01*
X746589Y217721D01*
X747721Y216589D01*
X749200Y215976D01*
X750800D01*
X752279Y216589D01*
X753411Y217721D01*
X754024Y219200D01*
Y220800D01*
X753411Y222279D01*
X752279Y223411D01*
X750800Y224024D01*
D02*
G37*
G36*
X740800D02*
X739200D01*
X737721Y223411D01*
X736589Y222279D01*
X735976Y220800D01*
Y219200D01*
X736589Y217721D01*
X737721Y216589D01*
X739200Y215976D01*
X740800D01*
X742279Y216589D01*
X743411Y217721D01*
X744024Y219200D01*
Y220800D01*
X743411Y222279D01*
X742279Y223411D01*
X740800Y224024D01*
D02*
G37*
G36*
X730800D02*
X729200D01*
X727721Y223411D01*
X726589Y222279D01*
X725976Y220800D01*
Y219200D01*
X726589Y217721D01*
X727721Y216589D01*
X729200Y215976D01*
X730800D01*
X732279Y216589D01*
X733411Y217721D01*
X734024Y219200D01*
Y220800D01*
X733411Y222279D01*
X732279Y223411D01*
X730800Y224024D01*
D02*
G37*
G36*
X720800D02*
X719200D01*
X717721Y223411D01*
X716589Y222279D01*
X715976Y220800D01*
Y219200D01*
X716589Y217721D01*
X717721Y216589D01*
X719200Y215976D01*
X720800D01*
X722279Y216589D01*
X723411Y217721D01*
X724024Y219200D01*
Y220800D01*
X723411Y222279D01*
X722279Y223411D01*
X720800Y224024D01*
D02*
G37*
G36*
X710800D02*
X709200D01*
X707721Y223411D01*
X706589Y222279D01*
X705976Y220800D01*
Y219200D01*
X706589Y217721D01*
X707721Y216589D01*
X709200Y215976D01*
X710800D01*
X712279Y216589D01*
X713411Y217721D01*
X714024Y219200D01*
Y220800D01*
X713411Y222279D01*
X712279Y223411D01*
X710800Y224024D01*
D02*
G37*
G36*
X1458400Y224524D02*
X1456600D01*
X1454937Y223835D01*
X1453665Y222563D01*
X1452976Y220900D01*
Y219100D01*
X1453665Y217437D01*
X1454937Y216165D01*
X1456600Y215476D01*
X1458400D01*
X1460063Y216165D01*
X1461335Y217437D01*
X1462024Y219100D01*
Y220900D01*
X1461335Y222563D01*
X1460063Y223835D01*
X1458400Y224524D01*
D02*
G37*
G36*
X141825Y248524D02*
X138175D01*
X134597Y247812D01*
X131226Y246416D01*
X128192Y244389D01*
X125611Y241808D01*
X123584Y238774D01*
X122188Y235403D01*
X121476Y231824D01*
Y228176D01*
X122188Y224597D01*
X123584Y221226D01*
X125611Y218192D01*
X128192Y215611D01*
X131226Y213584D01*
X134597Y212188D01*
X138175Y211476D01*
X141825D01*
X145403Y212188D01*
X148774Y213584D01*
X151808Y215611D01*
X154389Y218192D01*
X156416Y221226D01*
X157812Y224597D01*
X158524Y228176D01*
Y231824D01*
X157812Y235403D01*
X156416Y238774D01*
X154389Y241808D01*
X151808Y244389D01*
X148774Y246416D01*
X145403Y247812D01*
X141825Y248524D01*
D02*
G37*
G36*
X770800Y214024D02*
X769200D01*
X767721Y213411D01*
X766589Y212279D01*
X765976Y210800D01*
Y209200D01*
X766589Y207721D01*
X767721Y206589D01*
X769200Y205976D01*
X770800D01*
X772279Y206589D01*
X773411Y207721D01*
X774024Y209200D01*
Y210800D01*
X773411Y212279D01*
X772279Y213411D01*
X770800Y214024D01*
D02*
G37*
G36*
X760800D02*
X759200D01*
X757721Y213411D01*
X756589Y212279D01*
X755976Y210800D01*
Y209200D01*
X756589Y207721D01*
X757721Y206589D01*
X759200Y205976D01*
X760800D01*
X762279Y206589D01*
X763411Y207721D01*
X764024Y209200D01*
Y210800D01*
X763411Y212279D01*
X762279Y213411D01*
X760800Y214024D01*
D02*
G37*
G36*
X750800D02*
X749200D01*
X747721Y213411D01*
X746589Y212279D01*
X745976Y210800D01*
Y209200D01*
X746589Y207721D01*
X747721Y206589D01*
X749200Y205976D01*
X750800D01*
X752279Y206589D01*
X753411Y207721D01*
X754024Y209200D01*
Y210800D01*
X753411Y212279D01*
X752279Y213411D01*
X750800Y214024D01*
D02*
G37*
G36*
X740800D02*
X739200D01*
X737721Y213411D01*
X736589Y212279D01*
X735976Y210800D01*
Y209200D01*
X736589Y207721D01*
X737721Y206589D01*
X739200Y205976D01*
X740800D01*
X742279Y206589D01*
X743411Y207721D01*
X744024Y209200D01*
Y210800D01*
X743411Y212279D01*
X742279Y213411D01*
X740800Y214024D01*
D02*
G37*
G36*
X730800D02*
X729200D01*
X727721Y213411D01*
X726589Y212279D01*
X725976Y210800D01*
Y209200D01*
X726589Y207721D01*
X727721Y206589D01*
X729200Y205976D01*
X730800D01*
X732279Y206589D01*
X733411Y207721D01*
X734024Y209200D01*
Y210800D01*
X733411Y212279D01*
X732279Y213411D01*
X730800Y214024D01*
D02*
G37*
G36*
X720800D02*
X719200D01*
X717721Y213411D01*
X716589Y212279D01*
X715976Y210800D01*
Y209200D01*
X716589Y207721D01*
X717721Y206589D01*
X719200Y205976D01*
X720800D01*
X722279Y206589D01*
X723411Y207721D01*
X724024Y209200D01*
Y210800D01*
X723411Y212279D01*
X722279Y213411D01*
X720800Y214024D01*
D02*
G37*
G36*
X710800D02*
X709200D01*
X707721Y213411D01*
X706589Y212279D01*
X705976Y210800D01*
Y209200D01*
X706589Y207721D01*
X707721Y206589D01*
X709200Y205976D01*
X710800D01*
X712279Y206589D01*
X713411Y207721D01*
X714024Y209200D01*
Y210800D01*
X713411Y212279D01*
X712279Y213411D01*
X710800Y214024D01*
D02*
G37*
G36*
X903300Y199024D02*
X901700D01*
X900221Y198411D01*
X899580Y197770D01*
X898750Y197422D01*
X897920Y197770D01*
X897279Y198411D01*
X895800Y199024D01*
X894200D01*
X892721Y198411D01*
X892080Y197771D01*
X891250Y197422D01*
X890420Y197771D01*
X889779Y198411D01*
X888300Y199024D01*
X886700D01*
X885221Y198411D01*
X884089Y197279D01*
X883476Y195800D01*
Y194200D01*
X884089Y192721D01*
X885221Y191589D01*
X886700Y190976D01*
X888300D01*
X889779Y191589D01*
X890420Y192229D01*
X891250Y192578D01*
X892080Y192229D01*
X892721Y191589D01*
X894200Y190976D01*
X895800D01*
X897279Y191589D01*
X897920Y192229D01*
X898750Y192578D01*
X899580Y192229D01*
X900221Y191589D01*
X901700Y190976D01*
X903300D01*
X904779Y191589D01*
X905911Y192721D01*
X906524Y194200D01*
Y195800D01*
X905911Y197279D01*
X904779Y198411D01*
X903300Y199024D01*
D02*
G37*
G36*
X770800Y204024D02*
X769200D01*
X767721Y203411D01*
X766589Y202279D01*
X765976Y200800D01*
Y199200D01*
X766589Y197721D01*
X767721Y196589D01*
X769200Y195976D01*
X770800D01*
X772279Y196589D01*
X773411Y197721D01*
X774024Y199200D01*
Y200800D01*
X773411Y202279D01*
X772279Y203411D01*
X770800Y204024D01*
D02*
G37*
G36*
X760800D02*
X759200D01*
X757721Y203411D01*
X756589Y202279D01*
X755976Y200800D01*
Y199200D01*
X756589Y197721D01*
X757721Y196589D01*
X759200Y195976D01*
X760800D01*
X762279Y196589D01*
X763411Y197721D01*
X764024Y199200D01*
Y200800D01*
X763411Y202279D01*
X762279Y203411D01*
X760800Y204024D01*
D02*
G37*
G36*
X750800D02*
X749200D01*
X747721Y203411D01*
X746589Y202279D01*
X745976Y200800D01*
Y199200D01*
X746589Y197721D01*
X747721Y196589D01*
X749200Y195976D01*
X750800D01*
X752279Y196589D01*
X753411Y197721D01*
X754024Y199200D01*
Y200800D01*
X753411Y202279D01*
X752279Y203411D01*
X750800Y204024D01*
D02*
G37*
G36*
X740800D02*
X739200D01*
X737721Y203411D01*
X736589Y202279D01*
X735976Y200800D01*
Y199200D01*
X736589Y197721D01*
X737721Y196589D01*
X739200Y195976D01*
X740800D01*
X742279Y196589D01*
X743411Y197721D01*
X744024Y199200D01*
Y200800D01*
X743411Y202279D01*
X742279Y203411D01*
X740800Y204024D01*
D02*
G37*
G36*
X730800D02*
X729200D01*
X727721Y203411D01*
X726589Y202279D01*
X725976Y200800D01*
Y199200D01*
X726589Y197721D01*
X727721Y196589D01*
X729200Y195976D01*
X730800D01*
X732279Y196589D01*
X733411Y197721D01*
X734024Y199200D01*
Y200800D01*
X733411Y202279D01*
X732279Y203411D01*
X730800Y204024D01*
D02*
G37*
G36*
X720800D02*
X719200D01*
X717721Y203411D01*
X716589Y202279D01*
X715976Y200800D01*
Y199200D01*
X716589Y197721D01*
X717721Y196589D01*
X719200Y195976D01*
X720800D01*
X722279Y196589D01*
X723411Y197721D01*
X724024Y199200D01*
Y200800D01*
X723411Y202279D01*
X722279Y203411D01*
X720800Y204024D01*
D02*
G37*
G36*
X710800D02*
X709200D01*
X707721Y203411D01*
X706589Y202279D01*
X705976Y200800D01*
Y199200D01*
X706589Y197721D01*
X707721Y196589D01*
X709200Y195976D01*
X710800D01*
X712279Y196589D01*
X713411Y197721D01*
X714024Y199200D01*
Y200800D01*
X713411Y202279D01*
X712279Y203411D01*
X710800Y204024D01*
D02*
G37*
G36*
X63175Y199906D02*
Y193175D01*
X69906D01*
X69682Y194010D01*
X68314Y196380D01*
X66380Y198314D01*
X64010Y199682D01*
X63175Y199906D01*
D02*
G37*
G36*
X56825Y199906D02*
X55990Y199682D01*
X53620Y198314D01*
X51686Y196380D01*
X50318Y194010D01*
X50094Y193175D01*
X56825D01*
Y199906D01*
D02*
G37*
G36*
X1401575Y195202D02*
Y188575D01*
X1408202D01*
X1407989Y189372D01*
X1406634Y191718D01*
X1404718Y193634D01*
X1402372Y194989D01*
X1401575Y195202D01*
D02*
G37*
G36*
X1395225D02*
X1394428Y194989D01*
X1392082Y193634D01*
X1390166Y191718D01*
X1388811Y189372D01*
X1388598Y188575D01*
X1395225D01*
Y195202D01*
D02*
G37*
G36*
X110900Y194524D02*
X109100D01*
X107437Y193835D01*
X106165Y192563D01*
X105476Y190900D01*
Y189100D01*
X106165Y187437D01*
X107437Y186165D01*
X109100Y185476D01*
X110900D01*
X112563Y186165D01*
X113835Y187437D01*
X114524Y189100D01*
Y190900D01*
X113835Y192563D01*
X112563Y193835D01*
X110900Y194524D01*
D02*
G37*
G36*
X91234Y199374D02*
X88766D01*
X86382Y198735D01*
X84244Y197501D01*
X82499Y195756D01*
X81265Y193618D01*
X80626Y191234D01*
Y188766D01*
X81265Y186382D01*
X82499Y184244D01*
X84244Y182499D01*
X86382Y181265D01*
X88766Y180626D01*
X91234D01*
X93618Y181265D01*
X95756Y182499D01*
X97501Y184244D01*
X98735Y186382D01*
X99374Y188766D01*
Y191234D01*
X98735Y193618D01*
X97501Y195756D01*
X95756Y197501D01*
X93618Y198735D01*
X91234Y199374D01*
D02*
G37*
G36*
X56825Y186825D02*
X50094D01*
X50318Y185990D01*
X51686Y183620D01*
X53620Y181686D01*
X55990Y180318D01*
X56825Y180094D01*
Y186825D01*
D02*
G37*
G36*
X69906D02*
X63175D01*
Y180094D01*
X64010Y180318D01*
X66380Y181686D01*
X68314Y183620D01*
X69682Y185990D01*
X69906Y186825D01*
D02*
G37*
G36*
X1501221Y194674D02*
X1498779D01*
X1496420Y194042D01*
X1494306Y192821D01*
X1492579Y191094D01*
X1491358Y188980D01*
X1490726Y186621D01*
Y184179D01*
X1491358Y181820D01*
X1492579Y179706D01*
X1494306Y177979D01*
X1496420Y176758D01*
X1498779Y176126D01*
X1501221D01*
X1503580Y176758D01*
X1505694Y177979D01*
X1507421Y179706D01*
X1508642Y181820D01*
X1509274Y184179D01*
Y186621D01*
X1508642Y188980D01*
X1507421Y191094D01*
X1505694Y192821D01*
X1503580Y194042D01*
X1501221Y194674D01*
D02*
G37*
G36*
X1475821D02*
X1473379D01*
X1471020Y194042D01*
X1468906Y192821D01*
X1467179Y191094D01*
X1465958Y188980D01*
X1465326Y186621D01*
Y184179D01*
X1465958Y181820D01*
X1467179Y179706D01*
X1468906Y177979D01*
X1471020Y176758D01*
X1473379Y176126D01*
X1475821D01*
X1478180Y176758D01*
X1480294Y177979D01*
X1482021Y179706D01*
X1483242Y181820D01*
X1483874Y184179D01*
Y186621D01*
X1483242Y188980D01*
X1482021Y191094D01*
X1480294Y192821D01*
X1478180Y194042D01*
X1475821Y194674D01*
D02*
G37*
G36*
X1450421D02*
X1447979D01*
X1445620Y194042D01*
X1443506Y192821D01*
X1441779Y191094D01*
X1440558Y188980D01*
X1439926Y186621D01*
Y184179D01*
X1440558Y181820D01*
X1441779Y179706D01*
X1443506Y177979D01*
X1445620Y176758D01*
X1447979Y176126D01*
X1450421D01*
X1452780Y176758D01*
X1454894Y177979D01*
X1456621Y179706D01*
X1457842Y181820D01*
X1458474Y184179D01*
Y186621D01*
X1457842Y188980D01*
X1456621Y191094D01*
X1454894Y192821D01*
X1452780Y194042D01*
X1450421Y194674D01*
D02*
G37*
G36*
X1408202Y182225D02*
X1401575D01*
Y175598D01*
X1402372Y175811D01*
X1404718Y177166D01*
X1406634Y179082D01*
X1407989Y181428D01*
X1408202Y182225D01*
D02*
G37*
G36*
X1395225D02*
X1388598D01*
X1388811Y181428D01*
X1390166Y179082D01*
X1392082Y177166D01*
X1394428Y175811D01*
X1395225Y175598D01*
Y182225D01*
D02*
G37*
G36*
X905370Y180053D02*
X903571D01*
X901908Y179365D01*
X900635Y178092D01*
X899947Y176429D01*
Y174629D01*
X900635Y172967D01*
X901908Y171694D01*
X903571Y171005D01*
X905370D01*
X907033Y171694D01*
X908306Y172967D01*
X908995Y174629D01*
Y176429D01*
X908306Y178092D01*
X907033Y179365D01*
X905370Y180053D01*
D02*
G37*
G36*
X895900Y164524D02*
X894100D01*
X892437Y163835D01*
X891165Y162563D01*
X890476Y160900D01*
Y159100D01*
X891165Y157437D01*
X892437Y156165D01*
X894100Y155476D01*
X895900D01*
X897563Y156165D01*
X898835Y157437D01*
X899524Y159100D01*
Y160900D01*
X898835Y162563D01*
X897563Y163835D01*
X895900Y164524D01*
D02*
G37*
G36*
X845900D02*
X844100D01*
X842437Y163835D01*
X841165Y162563D01*
X840476Y160900D01*
Y159100D01*
X841165Y157437D01*
X842437Y156165D01*
X844100Y155476D01*
X845900D01*
X847563Y156165D01*
X848835Y157437D01*
X849524Y159100D01*
Y160900D01*
X848835Y162563D01*
X847563Y163835D01*
X845900Y164524D01*
D02*
G37*
G36*
X671824Y188524D02*
X668176D01*
X664597Y187812D01*
X661226Y186416D01*
X658192Y184389D01*
X655611Y181808D01*
X653584Y178774D01*
X652188Y175403D01*
X651476Y171824D01*
Y168176D01*
X652188Y164597D01*
X653584Y161226D01*
X655611Y158192D01*
X658192Y155611D01*
X661226Y153584D01*
X664597Y152188D01*
X668176Y151476D01*
X671824D01*
X675403Y152188D01*
X678774Y153584D01*
X681808Y155611D01*
X684389Y158192D01*
X686416Y161226D01*
X687812Y164597D01*
X688524Y168176D01*
Y171824D01*
X687812Y175403D01*
X686416Y178774D01*
X684389Y181808D01*
X681808Y184389D01*
X678774Y186416D01*
X675403Y187812D01*
X671824Y188524D01*
D02*
G37*
G36*
X91234Y169374D02*
X88766D01*
X86382Y168735D01*
X84244Y167501D01*
X82499Y165756D01*
X81265Y163618D01*
X80626Y161234D01*
Y158766D01*
X81265Y156382D01*
X82499Y154244D01*
X84244Y152499D01*
X86382Y151265D01*
X88766Y150626D01*
X91234D01*
X93618Y151265D01*
X95756Y152499D01*
X97501Y154244D01*
X98735Y156382D01*
X99374Y158766D01*
Y161234D01*
X98735Y163618D01*
X97501Y165756D01*
X95756Y167501D01*
X93618Y168735D01*
X91234Y169374D01*
D02*
G37*
G36*
X61234D02*
X58766D01*
X56382Y168735D01*
X54244Y167501D01*
X52499Y165756D01*
X51265Y163618D01*
X50626Y161234D01*
Y158766D01*
X51265Y156382D01*
X52499Y154244D01*
X54244Y152499D01*
X56382Y151265D01*
X58766Y150626D01*
X61234D01*
X63618Y151265D01*
X65756Y152499D01*
X67501Y154244D01*
X68735Y156382D01*
X69374Y158766D01*
Y161234D01*
X68735Y163618D01*
X67501Y165756D01*
X65756Y167501D01*
X63618Y168735D01*
X61234Y169374D01*
D02*
G37*
G36*
X541351Y172124D02*
X538049D01*
X534810Y171480D01*
X531759Y170216D01*
X529014Y168381D01*
X526679Y166046D01*
X524844Y163301D01*
X523580Y160250D01*
X522936Y157011D01*
Y153709D01*
X523580Y150470D01*
X524844Y147419D01*
X526679Y144674D01*
X529014Y142339D01*
X531759Y140504D01*
X534810Y139240D01*
X538049Y138596D01*
X541351D01*
X544590Y139240D01*
X547641Y140504D01*
X550386Y142339D01*
X552721Y144674D01*
X554556Y147419D01*
X555820Y150470D01*
X556464Y153709D01*
Y157011D01*
X555820Y160250D01*
X554556Y163301D01*
X552721Y166046D01*
X550386Y168381D01*
X547641Y170216D01*
X544590Y171480D01*
X541351Y172124D01*
D02*
G37*
G36*
X236551D02*
X233249D01*
X230010Y171480D01*
X226959Y170216D01*
X224214Y168381D01*
X221879Y166046D01*
X220044Y163301D01*
X218780Y160250D01*
X218136Y157011D01*
Y153709D01*
X218780Y150470D01*
X220044Y147419D01*
X221879Y144674D01*
X224214Y142339D01*
X226959Y140504D01*
X230010Y139240D01*
X233249Y138596D01*
X236551D01*
X239790Y139240D01*
X242841Y140504D01*
X245586Y142339D01*
X247921Y144674D01*
X249756Y147419D01*
X251020Y150470D01*
X251664Y153709D01*
Y157011D01*
X251020Y160250D01*
X249756Y163301D01*
X247921Y166046D01*
X245586Y168381D01*
X242841Y170216D01*
X239790Y171480D01*
X236551Y172124D01*
D02*
G37*
G36*
X780900Y144524D02*
X779100D01*
X777437Y143835D01*
X776165Y142563D01*
X775476Y140900D01*
Y139100D01*
X776165Y137437D01*
X777437Y136165D01*
X779100Y135476D01*
X780900D01*
X782563Y136165D01*
X783835Y137437D01*
X784524Y139100D01*
Y140900D01*
X783835Y142563D01*
X782563Y143835D01*
X780900Y144524D01*
D02*
G37*
G36*
X70390Y140390D02*
X63175D01*
Y133175D01*
X70390D01*
Y140390D01*
D02*
G37*
G36*
X56825D02*
X49610D01*
Y133175D01*
X56825D01*
Y140390D01*
D02*
G37*
G36*
X1581824Y168524D02*
X1578176D01*
X1574597Y167812D01*
X1571226Y166416D01*
X1568192Y164389D01*
X1565611Y161808D01*
X1563584Y158774D01*
X1562188Y155403D01*
X1561476Y151825D01*
Y148175D01*
X1562188Y144597D01*
X1563584Y141226D01*
X1565611Y138192D01*
X1568192Y135611D01*
X1571226Y133584D01*
X1574597Y132188D01*
X1578176Y131476D01*
X1581824D01*
X1585403Y132188D01*
X1588774Y133584D01*
X1591808Y135611D01*
X1594388Y138192D01*
X1596416Y141226D01*
X1597812Y144597D01*
X1598524Y148175D01*
Y151825D01*
X1597812Y155403D01*
X1596416Y158774D01*
X1594388Y161808D01*
X1591808Y164389D01*
X1588774Y166416D01*
X1585403Y167812D01*
X1581824Y168524D01*
D02*
G37*
G36*
X1501221Y143874D02*
X1498779D01*
X1496420Y143242D01*
X1494306Y142021D01*
X1492579Y140294D01*
X1491358Y138180D01*
X1490726Y135821D01*
Y133379D01*
X1491358Y131020D01*
X1492579Y128906D01*
X1494306Y127179D01*
X1496420Y125958D01*
X1498779Y125326D01*
X1501221D01*
X1503580Y125958D01*
X1505694Y127179D01*
X1507421Y128906D01*
X1508642Y131020D01*
X1509274Y133379D01*
Y135821D01*
X1508642Y138180D01*
X1507421Y140294D01*
X1505694Y142021D01*
X1503580Y143242D01*
X1501221Y143874D01*
D02*
G37*
G36*
X1475821D02*
X1473379D01*
X1471020Y143242D01*
X1468906Y142021D01*
X1467179Y140294D01*
X1465958Y138180D01*
X1465326Y135821D01*
Y133379D01*
X1465958Y131020D01*
X1467179Y128906D01*
X1468906Y127179D01*
X1471020Y125958D01*
X1473379Y125326D01*
X1475821D01*
X1478180Y125958D01*
X1480294Y127179D01*
X1482021Y128906D01*
X1483242Y131020D01*
X1483874Y133379D01*
Y135821D01*
X1483242Y138180D01*
X1482021Y140294D01*
X1480294Y142021D01*
X1478180Y143242D01*
X1475821Y143874D01*
D02*
G37*
G36*
X1450421D02*
X1447979D01*
X1445620Y143242D01*
X1443506Y142021D01*
X1441779Y140294D01*
X1440558Y138180D01*
X1439926Y135821D01*
Y133379D01*
X1440558Y131020D01*
X1441779Y128906D01*
X1443506Y127179D01*
X1445620Y125958D01*
X1447979Y125326D01*
X1450421D01*
X1452780Y125958D01*
X1454894Y127179D01*
X1456621Y128906D01*
X1457842Y131020D01*
X1458474Y133379D01*
Y135821D01*
X1457842Y138180D01*
X1456621Y140294D01*
X1454894Y142021D01*
X1452780Y143242D01*
X1450421Y143874D01*
D02*
G37*
G36*
X1407674D02*
X1389126D01*
Y125326D01*
X1407674D01*
Y143874D01*
D02*
G37*
G36*
X91234Y139374D02*
X88766D01*
X86382Y138735D01*
X84244Y137501D01*
X82499Y135756D01*
X81265Y133618D01*
X80626Y131234D01*
Y128766D01*
X81265Y126382D01*
X82499Y124244D01*
X84244Y122499D01*
X86382Y121265D01*
X88766Y120626D01*
X91234D01*
X93618Y121265D01*
X95756Y122499D01*
X97501Y124244D01*
X98735Y126382D01*
X99374Y128766D01*
Y131234D01*
X98735Y133618D01*
X97501Y135756D01*
X95756Y137501D01*
X93618Y138735D01*
X91234Y139374D01*
D02*
G37*
G36*
X70390Y126825D02*
X63175D01*
Y119610D01*
X70390D01*
Y126825D01*
D02*
G37*
G36*
X56825D02*
X49610D01*
Y119610D01*
X56825D01*
Y126825D01*
D02*
G37*
G36*
X803300Y124024D02*
X801700D01*
X800221Y123411D01*
X799089Y122279D01*
X798476Y120800D01*
Y119200D01*
X799089Y117721D01*
X800221Y116589D01*
X801700Y115976D01*
X803300D01*
X804779Y116589D01*
X805911Y117721D01*
X806524Y119200D01*
Y120800D01*
X805911Y122279D01*
X804779Y123411D01*
X803300Y124024D01*
D02*
G37*
G36*
X1425075Y71096D02*
Y63175D01*
X1432996D01*
X1432654Y64454D01*
X1431134Y67086D01*
X1428986Y69234D01*
X1426354Y70753D01*
X1425075Y71096D01*
D02*
G37*
G36*
X1418725D02*
X1417446Y70753D01*
X1414814Y69234D01*
X1412666Y67086D01*
X1411147Y64454D01*
X1410804Y63175D01*
X1418725D01*
Y71096D01*
D02*
G37*
G36*
X1325075D02*
Y63175D01*
X1332996D01*
X1332654Y64454D01*
X1331134Y67086D01*
X1328986Y69234D01*
X1326354Y70753D01*
X1325075Y71096D01*
D02*
G37*
G36*
X1318725D02*
X1317446Y70753D01*
X1314814Y69234D01*
X1312666Y67086D01*
X1311147Y64454D01*
X1310804Y63175D01*
X1318725D01*
Y71096D01*
D02*
G37*
G36*
X1225075D02*
Y63175D01*
X1232996D01*
X1232654Y64454D01*
X1231134Y67086D01*
X1228986Y69234D01*
X1226354Y70753D01*
X1225075Y71096D01*
D02*
G37*
G36*
X1218725D02*
X1217446Y70753D01*
X1214814Y69234D01*
X1212666Y67086D01*
X1211146Y64454D01*
X1210804Y63175D01*
X1218725D01*
Y71096D01*
D02*
G37*
G36*
X1125075D02*
Y63175D01*
X1132996D01*
X1132654Y64454D01*
X1131134Y67086D01*
X1128986Y69234D01*
X1126354Y70753D01*
X1125075Y71096D01*
D02*
G37*
G36*
X1118725D02*
X1117446Y70753D01*
X1114814Y69234D01*
X1112666Y67086D01*
X1111146Y64454D01*
X1110804Y63175D01*
X1118725D01*
Y71096D01*
D02*
G37*
G36*
X993175D02*
Y63175D01*
X1001096D01*
X1000753Y64454D01*
X999234Y67086D01*
X997086Y69234D01*
X994454Y70753D01*
X993175Y71096D01*
D02*
G37*
G36*
X986825D02*
X985546Y70753D01*
X982914Y69234D01*
X980766Y67086D01*
X979247Y64454D01*
X978904Y63175D01*
X986825D01*
Y71096D01*
D02*
G37*
G36*
X893175D02*
Y63175D01*
X901096D01*
X900753Y64454D01*
X899234Y67086D01*
X897086Y69234D01*
X894454Y70753D01*
X893175Y71096D01*
D02*
G37*
G36*
X886825D02*
X885546Y70753D01*
X882914Y69234D01*
X880766Y67086D01*
X879247Y64454D01*
X878904Y63175D01*
X886825D01*
Y71096D01*
D02*
G37*
G36*
X793175D02*
Y63175D01*
X801096D01*
X800753Y64454D01*
X799234Y67086D01*
X797086Y69234D01*
X794454Y70753D01*
X793175Y71096D01*
D02*
G37*
G36*
X786825D02*
X785546Y70753D01*
X782914Y69234D01*
X780766Y67086D01*
X779246Y64454D01*
X778904Y63175D01*
X786825D01*
Y71096D01*
D02*
G37*
G36*
X673175D02*
Y63175D01*
X681096D01*
X680754Y64454D01*
X679234Y67086D01*
X677086Y69234D01*
X674454Y70753D01*
X673175Y71096D01*
D02*
G37*
G36*
X666825D02*
X665546Y70753D01*
X662914Y69234D01*
X660766Y67086D01*
X659247Y64454D01*
X658904Y63175D01*
X666825D01*
Y71096D01*
D02*
G37*
G36*
X533175D02*
Y63175D01*
X541096D01*
X540754Y64454D01*
X539234Y67086D01*
X537086Y69234D01*
X534454Y70753D01*
X533175Y71096D01*
D02*
G37*
G36*
X526825D02*
X525546Y70753D01*
X522914Y69234D01*
X520766Y67086D01*
X519246Y64454D01*
X518904Y63175D01*
X526825D01*
Y71096D01*
D02*
G37*
G36*
X393175D02*
Y63175D01*
X401096D01*
X400754Y64454D01*
X399234Y67086D01*
X397086Y69234D01*
X394454Y70753D01*
X393175Y71096D01*
D02*
G37*
G36*
X386825D02*
X385546Y70753D01*
X382914Y69234D01*
X380766Y67086D01*
X379246Y64454D01*
X378904Y63175D01*
X386825D01*
Y71096D01*
D02*
G37*
G36*
X233175D02*
Y63175D01*
X241096D01*
X240753Y64454D01*
X239234Y67086D01*
X237086Y69234D01*
X234454Y70753D01*
X233175Y71096D01*
D02*
G37*
G36*
X226825D02*
X225546Y70753D01*
X222914Y69234D01*
X220766Y67086D01*
X219246Y64454D01*
X218904Y63175D01*
X226825D01*
Y71096D01*
D02*
G37*
G36*
X1561385Y70524D02*
X1558615D01*
X1555938Y69807D01*
X1553538Y68421D01*
X1551579Y66462D01*
X1550193Y64062D01*
X1549476Y61385D01*
Y58615D01*
X1550193Y55938D01*
X1551579Y53538D01*
X1553538Y51579D01*
X1555938Y50193D01*
X1558615Y49476D01*
X1561385D01*
X1564062Y50193D01*
X1566462Y51579D01*
X1568421Y53538D01*
X1569807Y55938D01*
X1570524Y58615D01*
Y61385D01*
X1569807Y64062D01*
X1568421Y66462D01*
X1566462Y68421D01*
X1564062Y69807D01*
X1561385Y70524D01*
D02*
G37*
G36*
X1523286D02*
X1520515D01*
X1517838Y69807D01*
X1515438Y68421D01*
X1513479Y66462D01*
X1512093Y64062D01*
X1511376Y61385D01*
Y58615D01*
X1512093Y55938D01*
X1513479Y53538D01*
X1515438Y51579D01*
X1517838Y50193D01*
X1520515Y49476D01*
X1523286D01*
X1525962Y50193D01*
X1528362Y51579D01*
X1530321Y53538D01*
X1531707Y55938D01*
X1532424Y58615D01*
Y61385D01*
X1531707Y64062D01*
X1530321Y66462D01*
X1528362Y68421D01*
X1525962Y69807D01*
X1523286Y70524D01*
D02*
G37*
G36*
X1485186D02*
X1482415D01*
X1479738Y69807D01*
X1477338Y68421D01*
X1475379Y66462D01*
X1473993Y64062D01*
X1473276Y61385D01*
Y58615D01*
X1473993Y55938D01*
X1475379Y53538D01*
X1477338Y51579D01*
X1479738Y50193D01*
X1482415Y49476D01*
X1485186D01*
X1487862Y50193D01*
X1490262Y51579D01*
X1492221Y53538D01*
X1493607Y55938D01*
X1494324Y58615D01*
Y61385D01*
X1493607Y64062D01*
X1492221Y66462D01*
X1490262Y68421D01*
X1487862Y69807D01*
X1485186Y70524D01*
D02*
G37*
G36*
X1385186D02*
X1382415D01*
X1379738Y69807D01*
X1377338Y68421D01*
X1375379Y66462D01*
X1373993Y64062D01*
X1373276Y61385D01*
Y58615D01*
X1373993Y55938D01*
X1375379Y53538D01*
X1377338Y51579D01*
X1379738Y50193D01*
X1382415Y49476D01*
X1385186D01*
X1387862Y50193D01*
X1390262Y51579D01*
X1392221Y53538D01*
X1393607Y55938D01*
X1394324Y58615D01*
Y61385D01*
X1393607Y64062D01*
X1392221Y66462D01*
X1390262Y68421D01*
X1387862Y69807D01*
X1385186Y70524D01*
D02*
G37*
G36*
X1285186D02*
X1282415D01*
X1279738Y69807D01*
X1277338Y68421D01*
X1275379Y66462D01*
X1273993Y64062D01*
X1273276Y61385D01*
Y58615D01*
X1273993Y55938D01*
X1275379Y53538D01*
X1277338Y51579D01*
X1279738Y50193D01*
X1282415Y49476D01*
X1285186D01*
X1287862Y50193D01*
X1290262Y51579D01*
X1292221Y53538D01*
X1293607Y55938D01*
X1294324Y58615D01*
Y61385D01*
X1293607Y64062D01*
X1292221Y66462D01*
X1290262Y68421D01*
X1287862Y69807D01*
X1285186Y70524D01*
D02*
G37*
G36*
X1185185D02*
X1182414D01*
X1179738Y69807D01*
X1177338Y68421D01*
X1175379Y66462D01*
X1173993Y64062D01*
X1173276Y61385D01*
Y58615D01*
X1173993Y55938D01*
X1175379Y53538D01*
X1177338Y51579D01*
X1179738Y50193D01*
X1182414Y49476D01*
X1185185D01*
X1187862Y50193D01*
X1190262Y51579D01*
X1192221Y53538D01*
X1193607Y55938D01*
X1194324Y58615D01*
Y61385D01*
X1193607Y64062D01*
X1192221Y66462D01*
X1190262Y68421D01*
X1187862Y69807D01*
X1185185Y70524D01*
D02*
G37*
G36*
X1085185D02*
X1082414D01*
X1079738Y69807D01*
X1077338Y68421D01*
X1075379Y66462D01*
X1073993Y64062D01*
X1073276Y61385D01*
Y58615D01*
X1073993Y55938D01*
X1075379Y53538D01*
X1077338Y51579D01*
X1079738Y50193D01*
X1082414Y49476D01*
X1085185D01*
X1087862Y50193D01*
X1090262Y51579D01*
X1092221Y53538D01*
X1093607Y55938D01*
X1094324Y58615D01*
Y61385D01*
X1093607Y64062D01*
X1092221Y66462D01*
X1090262Y68421D01*
X1087862Y69807D01*
X1085185Y70524D01*
D02*
G37*
G36*
X953286D02*
X950515D01*
X947838Y69807D01*
X945438Y68421D01*
X943479Y66462D01*
X942093Y64062D01*
X941376Y61385D01*
Y58615D01*
X942093Y55938D01*
X943479Y53538D01*
X945438Y51579D01*
X947838Y50193D01*
X950515Y49476D01*
X953286D01*
X955962Y50193D01*
X958362Y51579D01*
X960321Y53538D01*
X961707Y55938D01*
X962424Y58615D01*
Y61385D01*
X961707Y64062D01*
X960321Y66462D01*
X958362Y68421D01*
X955962Y69807D01*
X953286Y70524D01*
D02*
G37*
G36*
X853286D02*
X850515D01*
X847838Y69807D01*
X845438Y68421D01*
X843479Y66462D01*
X842093Y64062D01*
X841376Y61385D01*
Y58615D01*
X842093Y55938D01*
X843479Y53538D01*
X845438Y51579D01*
X847838Y50193D01*
X850515Y49476D01*
X853286D01*
X855962Y50193D01*
X858362Y51579D01*
X860321Y53538D01*
X861707Y55938D01*
X862424Y58615D01*
Y61385D01*
X861707Y64062D01*
X860321Y66462D01*
X858362Y68421D01*
X855962Y69807D01*
X853286Y70524D01*
D02*
G37*
G36*
X753286D02*
X750515D01*
X747838Y69807D01*
X745438Y68421D01*
X743479Y66462D01*
X742093Y64062D01*
X741376Y61385D01*
Y58615D01*
X742093Y55938D01*
X743479Y53538D01*
X745438Y51579D01*
X747838Y50193D01*
X750515Y49476D01*
X753286D01*
X755962Y50193D01*
X758362Y51579D01*
X760321Y53538D01*
X761707Y55938D01*
X762424Y58615D01*
Y61385D01*
X761707Y64062D01*
X760321Y66462D01*
X758362Y68421D01*
X755962Y69807D01*
X753286Y70524D01*
D02*
G37*
G36*
X633285D02*
X630514D01*
X627838Y69807D01*
X625438Y68421D01*
X623479Y66462D01*
X622093Y64062D01*
X621376Y61385D01*
Y58615D01*
X622093Y55938D01*
X623479Y53538D01*
X625438Y51579D01*
X627838Y50193D01*
X630514Y49476D01*
X633285D01*
X635962Y50193D01*
X638362Y51579D01*
X640321Y53538D01*
X641707Y55938D01*
X642424Y58615D01*
Y61385D01*
X641707Y64062D01*
X640321Y66462D01*
X638362Y68421D01*
X635962Y69807D01*
X633285Y70524D01*
D02*
G37*
G36*
X595186D02*
X592415D01*
X589738Y69807D01*
X587338Y68421D01*
X585379Y66462D01*
X583993Y64062D01*
X583276Y61385D01*
Y58615D01*
X583993Y55938D01*
X585379Y53538D01*
X587338Y51579D01*
X589738Y50193D01*
X592415Y49476D01*
X595186D01*
X597862Y50193D01*
X600262Y51579D01*
X602221Y53538D01*
X603607Y55938D01*
X604324Y58615D01*
Y61385D01*
X603607Y64062D01*
X602221Y66462D01*
X600262Y68421D01*
X597862Y69807D01*
X595186Y70524D01*
D02*
G37*
G36*
X493285D02*
X490514D01*
X487838Y69807D01*
X485438Y68421D01*
X483479Y66462D01*
X482093Y64062D01*
X481376Y61385D01*
Y58615D01*
X482093Y55938D01*
X483479Y53538D01*
X485438Y51579D01*
X487838Y50193D01*
X490514Y49476D01*
X493285D01*
X495962Y50193D01*
X498362Y51579D01*
X500321Y53538D01*
X501707Y55938D01*
X502424Y58615D01*
Y61385D01*
X501707Y64062D01*
X500321Y66462D01*
X498362Y68421D01*
X495962Y69807D01*
X493285Y70524D01*
D02*
G37*
G36*
X455186D02*
X452415D01*
X449738Y69807D01*
X447338Y68421D01*
X445379Y66462D01*
X443993Y64062D01*
X443276Y61385D01*
Y58615D01*
X443993Y55938D01*
X445379Y53538D01*
X447338Y51579D01*
X449738Y50193D01*
X452415Y49476D01*
X455186D01*
X457862Y50193D01*
X460262Y51579D01*
X462221Y53538D01*
X463607Y55938D01*
X464324Y58615D01*
Y61385D01*
X463607Y64062D01*
X462221Y66462D01*
X460262Y68421D01*
X457862Y69807D01*
X455186Y70524D01*
D02*
G37*
G36*
X353286D02*
X350514D01*
X347838Y69807D01*
X345438Y68421D01*
X343479Y66462D01*
X342093Y64062D01*
X341376Y61385D01*
Y58615D01*
X342093Y55938D01*
X343479Y53538D01*
X345438Y51579D01*
X347838Y50193D01*
X350514Y49476D01*
X353286D01*
X355962Y50193D01*
X358362Y51579D01*
X360321Y53538D01*
X361707Y55938D01*
X362424Y58615D01*
Y61385D01*
X361707Y64062D01*
X360321Y66462D01*
X358362Y68421D01*
X355962Y69807D01*
X353286Y70524D01*
D02*
G37*
G36*
X315186D02*
X312414D01*
X309738Y69807D01*
X307338Y68421D01*
X305379Y66462D01*
X303993Y64062D01*
X303276Y61385D01*
Y58615D01*
X303993Y55938D01*
X305379Y53538D01*
X307338Y51579D01*
X309738Y50193D01*
X312414Y49476D01*
X315186D01*
X317862Y50193D01*
X320262Y51579D01*
X322221Y53538D01*
X323607Y55938D01*
X324324Y58615D01*
Y61385D01*
X323607Y64062D01*
X322221Y66462D01*
X320262Y68421D01*
X317862Y69807D01*
X315186Y70524D01*
D02*
G37*
G36*
X193286D02*
X190515D01*
X187838Y69807D01*
X185438Y68421D01*
X183479Y66462D01*
X182093Y64062D01*
X181376Y61385D01*
Y58615D01*
X182093Y55938D01*
X183479Y53538D01*
X185438Y51579D01*
X187838Y50193D01*
X190515Y49476D01*
X193286D01*
X195962Y50193D01*
X198362Y51579D01*
X200321Y53538D01*
X201707Y55938D01*
X202424Y58615D01*
Y61385D01*
X201707Y64062D01*
X200321Y66462D01*
X198362Y68421D01*
X195962Y69807D01*
X193286Y70524D01*
D02*
G37*
G36*
X155185D02*
X152415D01*
X149738Y69807D01*
X147338Y68421D01*
X145379Y66462D01*
X143993Y64062D01*
X143276Y61385D01*
Y58615D01*
X143993Y55938D01*
X145379Y53538D01*
X147338Y51579D01*
X149738Y50193D01*
X152415Y49476D01*
X155185D01*
X157862Y50193D01*
X160262Y51579D01*
X162221Y53538D01*
X163607Y55938D01*
X164324Y58615D01*
Y61385D01*
X163607Y64062D01*
X162221Y66462D01*
X160262Y68421D01*
X157862Y69807D01*
X155185Y70524D01*
D02*
G37*
G36*
X1432996Y56825D02*
X1425075D01*
Y48904D01*
X1426354Y49246D01*
X1428986Y50766D01*
X1431134Y52914D01*
X1432654Y55546D01*
X1432996Y56825D01*
D02*
G37*
G36*
X1418725D02*
X1410804D01*
X1411147Y55546D01*
X1412666Y52914D01*
X1414814Y50766D01*
X1417446Y49246D01*
X1418725Y48904D01*
Y56825D01*
D02*
G37*
G36*
X1332996D02*
X1325075D01*
Y48904D01*
X1326354Y49246D01*
X1328986Y50766D01*
X1331134Y52914D01*
X1332654Y55546D01*
X1332996Y56825D01*
D02*
G37*
G36*
X1318725D02*
X1310804D01*
X1311147Y55546D01*
X1312666Y52914D01*
X1314814Y50766D01*
X1317446Y49246D01*
X1318725Y48904D01*
Y56825D01*
D02*
G37*
G36*
X1232996D02*
X1225075D01*
Y48904D01*
X1226354Y49246D01*
X1228986Y50766D01*
X1231134Y52914D01*
X1232654Y55546D01*
X1232996Y56825D01*
D02*
G37*
G36*
X1218725D02*
X1210804D01*
X1211146Y55546D01*
X1212666Y52914D01*
X1214814Y50766D01*
X1217446Y49246D01*
X1218725Y48904D01*
Y56825D01*
D02*
G37*
G36*
X1132996D02*
X1125075D01*
Y48904D01*
X1126354Y49246D01*
X1128986Y50766D01*
X1131134Y52914D01*
X1132654Y55546D01*
X1132996Y56825D01*
D02*
G37*
G36*
X1118725D02*
X1110804D01*
X1111146Y55546D01*
X1112666Y52914D01*
X1114814Y50766D01*
X1117446Y49246D01*
X1118725Y48904D01*
Y56825D01*
D02*
G37*
G36*
X1001096D02*
X993175D01*
Y48904D01*
X994454Y49246D01*
X997086Y50766D01*
X999234Y52914D01*
X1000753Y55546D01*
X1001096Y56825D01*
D02*
G37*
G36*
X986825D02*
X978904D01*
X979247Y55546D01*
X980766Y52914D01*
X982914Y50766D01*
X985546Y49246D01*
X986825Y48904D01*
Y56825D01*
D02*
G37*
G36*
X901096D02*
X893175D01*
Y48904D01*
X894454Y49246D01*
X897086Y50766D01*
X899234Y52914D01*
X900753Y55546D01*
X901096Y56825D01*
D02*
G37*
G36*
X886825D02*
X878904D01*
X879247Y55546D01*
X880766Y52914D01*
X882914Y50766D01*
X885546Y49246D01*
X886825Y48904D01*
Y56825D01*
D02*
G37*
G36*
X801096D02*
X793175D01*
Y48904D01*
X794454Y49246D01*
X797086Y50766D01*
X799234Y52914D01*
X800753Y55546D01*
X801096Y56825D01*
D02*
G37*
G36*
X786825D02*
X778904D01*
X779246Y55546D01*
X780766Y52914D01*
X782914Y50766D01*
X785546Y49246D01*
X786825Y48904D01*
Y56825D01*
D02*
G37*
G36*
X681096D02*
X673175D01*
Y48904D01*
X674454Y49246D01*
X677086Y50766D01*
X679234Y52914D01*
X680754Y55546D01*
X681096Y56825D01*
D02*
G37*
G36*
X666825D02*
X658904D01*
X659247Y55546D01*
X660766Y52914D01*
X662914Y50766D01*
X665546Y49246D01*
X666825Y48904D01*
Y56825D01*
D02*
G37*
G36*
X541096D02*
X533175D01*
Y48904D01*
X534454Y49246D01*
X537086Y50766D01*
X539234Y52914D01*
X540754Y55546D01*
X541096Y56825D01*
D02*
G37*
G36*
X526825D02*
X518904D01*
X519246Y55546D01*
X520766Y52914D01*
X522914Y50766D01*
X525546Y49246D01*
X526825Y48904D01*
Y56825D01*
D02*
G37*
G36*
X401096D02*
X393175D01*
Y48904D01*
X394454Y49246D01*
X397086Y50766D01*
X399234Y52914D01*
X400754Y55546D01*
X401096Y56825D01*
D02*
G37*
G36*
X386825D02*
X378904D01*
X379246Y55546D01*
X380766Y52914D01*
X382914Y50766D01*
X385546Y49246D01*
X386825Y48904D01*
Y56825D01*
D02*
G37*
G36*
X241096D02*
X233175D01*
Y48904D01*
X234454Y49246D01*
X237086Y50766D01*
X239234Y52914D01*
X240753Y55546D01*
X241096Y56825D01*
D02*
G37*
G36*
X226825D02*
X218904D01*
X219246Y55546D01*
X220766Y52914D01*
X222914Y50766D01*
X225546Y49246D01*
X226825Y48904D01*
Y56825D01*
D02*
G37*
G36*
X81824Y68524D02*
X78176D01*
X74597Y67812D01*
X71226Y66416D01*
X68192Y64388D01*
X65612Y61808D01*
X63584Y58774D01*
X62188Y55403D01*
X61476Y51824D01*
Y48176D01*
X62188Y44597D01*
X63584Y41226D01*
X65612Y38192D01*
X68192Y35612D01*
X71226Y33584D01*
X74597Y32188D01*
X78176Y31476D01*
X81824D01*
X85403Y32188D01*
X88774Y33584D01*
X91808Y35612D01*
X94389Y38192D01*
X96416Y41226D01*
X97812Y44597D01*
X98524Y48176D01*
Y51824D01*
X97812Y55403D01*
X96416Y58774D01*
X94389Y61808D01*
X91808Y64388D01*
X88774Y66416D01*
X85403Y67812D01*
X81824Y68524D01*
D02*
G37*
G36*
X1050800Y51524D02*
X1049200D01*
X1047721Y50911D01*
X1046589Y49779D01*
X1045976Y48300D01*
Y46700D01*
X1046589Y45221D01*
X1047230Y44580D01*
X1047578Y43750D01*
X1047230Y42920D01*
X1046589Y42279D01*
X1045976Y40800D01*
Y39200D01*
X1046589Y37721D01*
X1047230Y37080D01*
X1047578Y36250D01*
X1047230Y35420D01*
X1046589Y34779D01*
X1045976Y33300D01*
Y31700D01*
X1046589Y30221D01*
X1047721Y29089D01*
X1049200Y28476D01*
X1050800D01*
X1052279Y29089D01*
X1053411Y30221D01*
X1054024Y31700D01*
Y33300D01*
X1053411Y34779D01*
X1052770Y35420D01*
X1052422Y36250D01*
X1052770Y37080D01*
X1053411Y37721D01*
X1054024Y39200D01*
Y40800D01*
X1053411Y42279D01*
X1052770Y42920D01*
X1052422Y43750D01*
X1052770Y44580D01*
X1053411Y45221D01*
X1054024Y46700D01*
Y48300D01*
X1053411Y49779D01*
X1052279Y50911D01*
X1050800Y51524D01*
D02*
G37*
%LPD*%
D74*
X89650Y327500D02*
D03*
Y297500D02*
D03*
Y267500D02*
D03*
X59650Y327500D02*
D03*
Y297500D02*
D03*
X60000Y160000D02*
D03*
Y190000D02*
D03*
X90000Y130000D02*
D03*
Y160000D02*
D03*
Y190000D02*
D03*
D75*
X59650Y267500D02*
D03*
X60000Y130000D02*
D03*
D76*
X16450Y297500D02*
D03*
X16800Y160000D02*
D03*
D90*
X1449200Y185400D02*
D03*
X1474600D02*
D03*
X1500000D02*
D03*
Y134600D02*
D03*
X1474600D02*
D03*
X1449200D02*
D03*
X1398400Y185400D02*
D03*
D91*
Y134600D02*
D03*
D100*
X1518000Y320000D02*
D03*
X1425000D02*
D03*
D101*
X1496500Y390000D02*
D03*
X1446500D02*
D03*
Y245000D02*
D03*
X1496500D02*
D03*
X1471500D02*
D03*
D102*
X105000Y415000D02*
D03*
D103*
X45000D02*
D03*
D104*
X75000Y368000D02*
D03*
D105*
X1582860Y246940D02*
D03*
Y304740D02*
D03*
D106*
X1619660Y319040D02*
D03*
Y232640D02*
D03*
D107*
X1577860Y319040D02*
D03*
Y232640D02*
D03*
D108*
X349200Y450000D02*
D03*
D109*
X374600D02*
D03*
X400000D02*
D03*
X425400D02*
D03*
D110*
X970000Y380000D02*
D03*
X995400D02*
D03*
X970000Y290000D02*
D03*
X995400D02*
D03*
D112*
X1483800Y60000D02*
D03*
X1521900D02*
D03*
X1560000D02*
D03*
X1383800D02*
D03*
X1421900D02*
D03*
X1083800D02*
D03*
X1121900D02*
D03*
X1183800D02*
D03*
X1221900D02*
D03*
X1283800D02*
D03*
X1321900D02*
D03*
X593800D02*
D03*
X631900D02*
D03*
X670000D02*
D03*
X153800D02*
D03*
X191900D02*
D03*
X230000D02*
D03*
X313800D02*
D03*
X351900D02*
D03*
X390000D02*
D03*
X453800D02*
D03*
X491900D02*
D03*
X530000D02*
D03*
X951900D02*
D03*
X990000D02*
D03*
X851900D02*
D03*
X890000D02*
D03*
X751900D02*
D03*
X790000D02*
D03*
D113*
X110000Y190000D02*
D03*
X347500Y390000D02*
D03*
X442301Y262500D02*
D03*
X425806Y234194D02*
D03*
X1197699Y320000D02*
D03*
X1182500Y412500D02*
D03*
X1160000Y330000D02*
D03*
Y320000D02*
D03*
Y345000D02*
D03*
X942500Y397500D02*
D03*
X1072500Y395283D02*
D03*
X1557500Y385000D02*
D03*
X1593871Y341371D02*
D03*
X1595000Y375000D02*
D03*
X1610000D02*
D03*
X1322500Y332500D02*
D03*
X1542500Y357500D02*
D03*
X390000Y107500D02*
D03*
X440000Y137500D02*
D03*
X467500Y127500D02*
D03*
X490000Y170000D02*
D03*
X310000Y140000D02*
D03*
X332500Y152500D02*
D03*
X617500Y157500D02*
D03*
X600000Y142500D02*
D03*
X155000Y140000D02*
D03*
X705000Y120000D02*
D03*
X780000Y140000D02*
D03*
X336279Y215391D02*
D03*
X300000Y237500D02*
D03*
X377500Y215000D02*
D03*
X527500Y217500D02*
D03*
X386998Y220000D02*
D03*
X394522D02*
D03*
X275000Y237500D02*
D03*
X260000Y235000D02*
D03*
X335000Y252500D02*
D03*
X385000Y175000D02*
D03*
X397500D02*
D03*
X517500Y255000D02*
D03*
X420000Y330000D02*
D03*
X302500Y322500D02*
D03*
X260000D02*
D03*
X1160000Y312000D02*
D03*
X1240000Y272537D02*
D03*
X1090000Y252500D02*
D03*
X1237500Y279634D02*
D03*
X1092500Y262500D02*
D03*
X904471Y175529D02*
D03*
X1250000Y272500D02*
D03*
X1227500Y259206D02*
D03*
X1205000D02*
D03*
X1062500Y260000D02*
D03*
X1195000Y285000D02*
D03*
X1230000Y315000D02*
D03*
X1287500Y301706D02*
D03*
X1070000Y385000D02*
D03*
X1170000Y302500D02*
D03*
X942500Y307500D02*
D03*
X1052500Y287500D02*
D03*
X1050000Y270000D02*
D03*
X1085000Y275000D02*
D03*
X1220000Y287500D02*
D03*
X1212500Y302500D02*
D03*
X1457500Y220000D02*
D03*
X1140000Y335000D02*
D03*
X1342500Y315000D02*
D03*
X1132500Y427500D02*
D03*
X1584240Y293560D02*
D03*
Y265620D02*
D03*
X842500Y170000D02*
D03*
X845000Y160000D02*
D03*
X910000Y120000D02*
D03*
X897500D02*
D03*
X895000Y160000D02*
D03*
X970000Y242548D02*
D03*
Y235024D02*
D03*
Y227500D02*
D03*
X1072500Y195000D02*
D03*
X1082500D02*
D03*
X1090000D02*
D03*
X1122500Y192500D02*
D03*
X1160000Y417500D02*
D03*
X1300000Y330000D02*
D03*
X1327500Y390000D02*
D03*
D114*
X775000Y360301D02*
D03*
X765000D02*
D03*
X619760Y289560D02*
D03*
X576580D02*
D03*
X635000D02*
D03*
X586740D02*
D03*
X594360D02*
D03*
X609600D02*
D03*
X642620D02*
D03*
X601980D02*
D03*
X627380D02*
D03*
X1102500Y350000D02*
D03*
X1160000Y430000D02*
D03*
X1210000Y420000D02*
D03*
X710000Y220000D02*
D03*
X720000D02*
D03*
X770000Y200000D02*
D03*
X750000Y210000D02*
D03*
X760000D02*
D03*
X770000D02*
D03*
X750000Y200000D02*
D03*
X760000D02*
D03*
X770000Y220000D02*
D03*
X740000D02*
D03*
X750000D02*
D03*
X730000D02*
D03*
X760000D02*
D03*
X775000Y355000D02*
D03*
Y345000D02*
D03*
Y335000D02*
D03*
X795000Y345000D02*
D03*
Y335000D02*
D03*
X775000Y325000D02*
D03*
Y315000D02*
D03*
Y305000D02*
D03*
X730000Y210000D02*
D03*
X740000D02*
D03*
X710000Y200000D02*
D03*
X720000D02*
D03*
X730000D02*
D03*
X740000D02*
D03*
X720000Y210000D02*
D03*
X710000D02*
D03*
X558800Y289560D02*
D03*
X568960Y271780D02*
D03*
Y276860D02*
D03*
Y281940D02*
D03*
Y287020D02*
D03*
X574040Y302260D02*
D03*
X650000Y360000D02*
D03*
X620000D02*
D03*
X630000D02*
D03*
X640000D02*
D03*
X650000Y350000D02*
D03*
X610000D02*
D03*
X520000D02*
D03*
X530000D02*
D03*
X540000D02*
D03*
X550000D02*
D03*
X560000D02*
D03*
X570000D02*
D03*
X580000D02*
D03*
X590000D02*
D03*
X600000D02*
D03*
X620000D02*
D03*
X630000D02*
D03*
X640000D02*
D03*
X520000Y360000D02*
D03*
X530000D02*
D03*
X540000D02*
D03*
X550000D02*
D03*
X560000D02*
D03*
X570000D02*
D03*
X580000D02*
D03*
X610000D02*
D03*
X590000D02*
D03*
X600000D02*
D03*
X765000Y355000D02*
D03*
Y345000D02*
D03*
Y335000D02*
D03*
Y325000D02*
D03*
Y315000D02*
D03*
Y305000D02*
D03*
X902500Y195000D02*
D03*
X802500Y120000D02*
D03*
X895000Y195000D02*
D03*
X887500D02*
D03*
X1170000Y145000D02*
D03*
Y140000D02*
D03*
Y135000D02*
D03*
X1102500Y360000D02*
D03*
Y355000D02*
D03*
Y365000D02*
D03*
Y415000D02*
D03*
Y420000D02*
D03*
Y425000D02*
D03*
Y430000D02*
D03*
X865000Y345000D02*
D03*
X855000D02*
D03*
X845000D02*
D03*
X835000D02*
D03*
X825000D02*
D03*
X815000D02*
D03*
X805000D02*
D03*
X865000Y335000D02*
D03*
X855000D02*
D03*
X845000D02*
D03*
X835000D02*
D03*
X825000D02*
D03*
X815000D02*
D03*
X805000D02*
D03*
X1300000Y430000D02*
D03*
X1275000Y420000D02*
D03*
X1242500D02*
D03*
X1182500D02*
D03*
X1250000Y360500D02*
D03*
X1230250D02*
D03*
X1210500D02*
D03*
Y380250D02*
D03*
X1230250D02*
D03*
X1250000D02*
D03*
Y400000D02*
D03*
X1230250D02*
D03*
X1210500D02*
D03*
X1050000Y47500D02*
D03*
Y40000D02*
D03*
Y32500D02*
D03*
M02*
