M48
;Layer_Color=9474304
;FILE_FORMAT=4:4
METRIC,LZ
;TYPE=PLATED
T01F00S00C0.3000
T03F00S00C0.8128
T04F00S00C1.0000
T06F00S00C1.0160
T07F00S00C1.0200
T08F00S00C1.1000
T09F00S00C1.2000
T10F00S00C2.6000
;TYPE=NON_PLATED
T11F00S00C0.6500
T12F00S00C3.0000
T13F00S00C3.0480
T14F00S00C3.4000
%
T01
X00155Y0014
X0031
X0039Y001075
X0044Y001375
X004675Y001275
X006Y001425
X00705Y0012
X0078Y0014
X008025Y0012
X008975
X0091
X0105Y000475
Y0004
Y000325
X0117Y00135
Y0014
Y00145
X013225Y003325
X013425Y00315
X013275Y0039
X015575Y00385
X015425Y003575
X01593871Y00341371
X01595Y00375
X0161
X0158424Y0029356
Y0026562
X014575Y0022
X012875Y00301706
X013Y0033
X0125Y003605
X0123025
X012105
Y0038025
X0123025
X0125
Y004
X0123025
X012105
X0121Y0042
X011825
Y004125
X0116Y004175
Y0043
X011325Y004275
X011025Y0043
Y00425
Y0042
Y00415
X010725Y00395283
X0107Y00385
X011025Y00365
Y0036
Y00355
Y0035
X0114Y00335
X0116Y0033
Y0032
Y00312
X0117Y003025
X012125Y003025
X0122Y002875
X012375Y00279634
X0124Y00272537
X0125Y002725
X012275Y00259206
X01205
X01195Y00285
X01197699Y0032
X0123Y00315
X0116Y00345
X01085Y00275
X010925Y002625
X0109Y002525
X010625Y0026
X0105Y0027
X010525Y002875
X010725Y00195
X010825
X0109
X011225Y001925
X0097Y002275
Y00235024
Y00242548
X009425Y003075
Y003975
X012425Y0042
X01275
X013Y0043
X00865Y00345
X00855
X00845
X00835
X00825
X00815
X00805
X00795
Y00335
X00805
X00815
X00825
X00835
X00845
X00855
X00865
X00775
Y00325
Y00315
Y00305
X00765
Y00315
Y00325
Y00335
Y00345
X00775
Y00355
Y00360301
X00765
Y00355
X0065Y0036
Y0035
X0064
Y0036
X0063
Y0035
X0062
Y0036
X0061
Y0035
X006
Y0036
X0059
Y0035
X0058
Y0036
X0057
Y0035
X0056
Y0036
X0055
Y0035
X0054
Y0036
X0053
Y0035
X005588Y0028956
X0056896Y0028702
Y0028194
Y0027686
Y0027178
X0057658Y0028956
X0058674
X0059436
X0060198
X006096
X0061976
X0062738
X00635
X0064262
X0057404Y0030226
X005275Y002175
X006175Y001575
X0071Y002
X0072
X0073
Y0021
Y0022
X0072
Y0021
X0071
Y0022
X0074
Y0021
X0075
Y0022
X0076
Y0021
X0077
Y0022
Y002
X0076
X0075
X0074
X008425Y0017
X00845Y0016
X00895
X00904471Y00175529
X009025Y00195
X00895
X008875
X0049Y0017
X003975Y00175
X00385
X00386998Y0022
X00394522
X003775Y00215
X00336279Y00215391
X00335Y002525
X003Y002375
X00275
X0026Y00235
Y003225
X003025
X003475Y0039
X0042Y0033
X00442301Y002625
X00425806Y00234194
X005175Y00255
X0052Y0035
Y0036
X003325Y001525
X0011Y0019
T03
X0097Y0029
X009954
Y0038
X0097
T04
X013984Y001346
X014492
X014746
X015
Y001854
X014746
X014492
X013984
T06
X003492Y0045
X003746
X004
X004254
T07
X0006Y0013
X0009
Y0016
X0006
Y0019
X0009
X0008965Y002675
Y002975
Y003275
X0005965
Y002975
Y002675
T08
X014465Y00245
X014715
X014965
Y0039
X014465
T09
X001538Y0006
X001919
X0023
X003138
X003519
X0039
X004538
X004919
X0053
X005938
X006319
X0067
X007519
X0079
X008519
X0089
X009519
X0099
X010838
X011219
X011838
X012219
X012838
X013219
X013838
X014219
X014838
X015219
X0156
T10
X01425Y0032
X01518
T11
X0158286Y0024694
Y0030474
T12
X000168Y0016
X0001645Y002975
T13
X005397Y0015536
Y0043476
X002349
Y0015536
T14
X0008Y0005
X0158Y0015
Y0041
X0067Y0043
Y0017
X0014Y0023
X0016Y0046
M30
